G75*
%MOIN*%
%OFA0B0*%
%FSLAX24Y24*%
%IPPOS*%
%LPD*%
%AMOC8*
5,1,8,0,0,1.08239X$1,22.5*
%
%ADD10C,0.0010*%
%ADD11C,0.0000*%
%ADD12C,0.0030*%
%ADD13C,0.0020*%
%ADD14C,0.0060*%
%ADD15C,0.0050*%
%ADD16C,0.0070*%
%ADD17C,0.0100*%
D10*
X014000Y004680D02*
X018420Y004680D01*
X026050Y019940D02*
X026050Y024360D01*
X006370Y024360D01*
X006370Y019940D01*
X018420Y004680D02*
X018869Y005140D01*
X019307Y005611D01*
X019734Y006092D01*
X020149Y006582D01*
X020552Y007083D01*
X020944Y007593D01*
X021323Y008113D01*
X021689Y008641D01*
X022043Y009178D01*
X022384Y009723D01*
X022712Y010276D01*
X023026Y010836D01*
X023328Y011404D01*
X023615Y011979D01*
X023889Y012561D01*
X024149Y013149D01*
X024394Y013743D01*
X024626Y014343D01*
X024843Y014948D01*
X025046Y015558D01*
X025234Y016173D01*
X025407Y016792D01*
X025565Y017415D01*
X025709Y018042D01*
X025838Y018672D01*
X025951Y019305D01*
X026050Y019940D01*
X014000Y004680D02*
X013551Y005140D01*
X013113Y005611D01*
X012686Y006092D01*
X012271Y006582D01*
X011868Y007083D01*
X011476Y007593D01*
X011097Y008113D01*
X010731Y008641D01*
X010377Y009178D01*
X010036Y009723D01*
X009708Y010276D01*
X009394Y010836D01*
X009092Y011404D01*
X008805Y011979D01*
X008531Y012561D01*
X008271Y013149D01*
X008026Y013743D01*
X007794Y014343D01*
X007577Y014948D01*
X007374Y015558D01*
X007186Y016173D01*
X007013Y016792D01*
X006855Y017415D01*
X006711Y018042D01*
X006582Y018672D01*
X006469Y019305D01*
X006370Y019940D01*
D11*
X010050Y012680D02*
X010052Y012730D01*
X010058Y012780D01*
X010068Y012829D01*
X010082Y012877D01*
X010099Y012924D01*
X010120Y012969D01*
X010145Y013013D01*
X010173Y013054D01*
X010205Y013093D01*
X010239Y013130D01*
X010276Y013164D01*
X010316Y013194D01*
X010358Y013221D01*
X010402Y013245D01*
X010448Y013266D01*
X010495Y013282D01*
X010543Y013295D01*
X010593Y013304D01*
X010642Y013309D01*
X010693Y013310D01*
X010743Y013307D01*
X010792Y013300D01*
X010841Y013289D01*
X010889Y013274D01*
X010935Y013256D01*
X010980Y013234D01*
X011023Y013208D01*
X011064Y013179D01*
X011103Y013147D01*
X011139Y013112D01*
X011171Y013074D01*
X011201Y013034D01*
X011228Y012991D01*
X011251Y012947D01*
X011270Y012901D01*
X011286Y012853D01*
X011298Y012804D01*
X011306Y012755D01*
X011310Y012705D01*
X011310Y012655D01*
X011306Y012605D01*
X011298Y012556D01*
X011286Y012507D01*
X011270Y012459D01*
X011251Y012413D01*
X011228Y012369D01*
X011201Y012326D01*
X011171Y012286D01*
X011139Y012248D01*
X011103Y012213D01*
X011064Y012181D01*
X011023Y012152D01*
X010980Y012126D01*
X010935Y012104D01*
X010889Y012086D01*
X010841Y012071D01*
X010792Y012060D01*
X010743Y012053D01*
X010693Y012050D01*
X010642Y012051D01*
X010593Y012056D01*
X010543Y012065D01*
X010495Y012078D01*
X010448Y012094D01*
X010402Y012115D01*
X010358Y012139D01*
X010316Y012166D01*
X010276Y012196D01*
X010239Y012230D01*
X010205Y012267D01*
X010173Y012306D01*
X010145Y012347D01*
X010120Y012391D01*
X010099Y012436D01*
X010082Y012483D01*
X010068Y012531D01*
X010058Y012580D01*
X010052Y012630D01*
X010050Y012680D01*
X015550Y016805D02*
X015552Y016855D01*
X015558Y016905D01*
X015568Y016954D01*
X015582Y017002D01*
X015599Y017049D01*
X015620Y017094D01*
X015645Y017138D01*
X015673Y017179D01*
X015705Y017218D01*
X015739Y017255D01*
X015776Y017289D01*
X015816Y017319D01*
X015858Y017346D01*
X015902Y017370D01*
X015948Y017391D01*
X015995Y017407D01*
X016043Y017420D01*
X016093Y017429D01*
X016142Y017434D01*
X016193Y017435D01*
X016243Y017432D01*
X016292Y017425D01*
X016341Y017414D01*
X016389Y017399D01*
X016435Y017381D01*
X016480Y017359D01*
X016523Y017333D01*
X016564Y017304D01*
X016603Y017272D01*
X016639Y017237D01*
X016671Y017199D01*
X016701Y017159D01*
X016728Y017116D01*
X016751Y017072D01*
X016770Y017026D01*
X016786Y016978D01*
X016798Y016929D01*
X016806Y016880D01*
X016810Y016830D01*
X016810Y016780D01*
X016806Y016730D01*
X016798Y016681D01*
X016786Y016632D01*
X016770Y016584D01*
X016751Y016538D01*
X016728Y016494D01*
X016701Y016451D01*
X016671Y016411D01*
X016639Y016373D01*
X016603Y016338D01*
X016564Y016306D01*
X016523Y016277D01*
X016480Y016251D01*
X016435Y016229D01*
X016389Y016211D01*
X016341Y016196D01*
X016292Y016185D01*
X016243Y016178D01*
X016193Y016175D01*
X016142Y016176D01*
X016093Y016181D01*
X016043Y016190D01*
X015995Y016203D01*
X015948Y016219D01*
X015902Y016240D01*
X015858Y016264D01*
X015816Y016291D01*
X015776Y016321D01*
X015739Y016355D01*
X015705Y016392D01*
X015673Y016431D01*
X015645Y016472D01*
X015620Y016516D01*
X015599Y016561D01*
X015582Y016608D01*
X015568Y016656D01*
X015558Y016705D01*
X015552Y016755D01*
X015550Y016805D01*
X021175Y012680D02*
X021177Y012730D01*
X021183Y012780D01*
X021193Y012829D01*
X021207Y012877D01*
X021224Y012924D01*
X021245Y012969D01*
X021270Y013013D01*
X021298Y013054D01*
X021330Y013093D01*
X021364Y013130D01*
X021401Y013164D01*
X021441Y013194D01*
X021483Y013221D01*
X021527Y013245D01*
X021573Y013266D01*
X021620Y013282D01*
X021668Y013295D01*
X021718Y013304D01*
X021767Y013309D01*
X021818Y013310D01*
X021868Y013307D01*
X021917Y013300D01*
X021966Y013289D01*
X022014Y013274D01*
X022060Y013256D01*
X022105Y013234D01*
X022148Y013208D01*
X022189Y013179D01*
X022228Y013147D01*
X022264Y013112D01*
X022296Y013074D01*
X022326Y013034D01*
X022353Y012991D01*
X022376Y012947D01*
X022395Y012901D01*
X022411Y012853D01*
X022423Y012804D01*
X022431Y012755D01*
X022435Y012705D01*
X022435Y012655D01*
X022431Y012605D01*
X022423Y012556D01*
X022411Y012507D01*
X022395Y012459D01*
X022376Y012413D01*
X022353Y012369D01*
X022326Y012326D01*
X022296Y012286D01*
X022264Y012248D01*
X022228Y012213D01*
X022189Y012181D01*
X022148Y012152D01*
X022105Y012126D01*
X022060Y012104D01*
X022014Y012086D01*
X021966Y012071D01*
X021917Y012060D01*
X021868Y012053D01*
X021818Y012050D01*
X021767Y012051D01*
X021718Y012056D01*
X021668Y012065D01*
X021620Y012078D01*
X021573Y012094D01*
X021527Y012115D01*
X021483Y012139D01*
X021441Y012166D01*
X021401Y012196D01*
X021364Y012230D01*
X021330Y012267D01*
X021298Y012306D01*
X021270Y012347D01*
X021245Y012391D01*
X021224Y012436D01*
X021207Y012483D01*
X021193Y012531D01*
X021183Y012580D01*
X021177Y012630D01*
X021175Y012680D01*
D12*
X021193Y013570D02*
X021317Y013693D01*
X021317Y013940D01*
X021438Y013755D02*
X021685Y013755D01*
X021562Y013632D02*
X021562Y013879D01*
X021193Y013570D02*
X021070Y013693D01*
X021070Y013940D01*
X021132Y014445D02*
X021255Y014445D01*
X021317Y014507D01*
X021317Y014630D01*
X021193Y014630D01*
X021070Y014507D02*
X021132Y014445D01*
X021070Y014507D02*
X021070Y014754D01*
X021132Y014815D01*
X021255Y014815D01*
X021317Y014754D01*
X021438Y014815D02*
X021685Y014445D01*
X021685Y014815D01*
X021807Y014815D02*
X021992Y014815D01*
X022054Y014754D01*
X022054Y014507D01*
X021992Y014445D01*
X021807Y014445D01*
X021807Y014815D01*
X021438Y014815D02*
X021438Y014445D01*
X011435Y013755D02*
X011188Y013755D01*
X011067Y013693D02*
X011067Y013940D01*
X011067Y013693D02*
X010943Y013570D01*
X010820Y013693D01*
X010820Y013940D01*
X011312Y013879D02*
X011312Y013632D01*
X011117Y014445D02*
X010932Y014445D01*
X010932Y014815D01*
X011117Y014815D01*
X011179Y014754D01*
X011179Y014507D01*
X011117Y014445D01*
X010810Y014445D02*
X010810Y014815D01*
X010563Y014815D02*
X010563Y014445D01*
X010442Y014507D02*
X010442Y014630D01*
X010318Y014630D01*
X010195Y014507D02*
X010195Y014754D01*
X010257Y014815D01*
X010380Y014815D01*
X010442Y014754D01*
X010563Y014815D02*
X010810Y014445D01*
X010442Y014507D02*
X010380Y014445D01*
X010257Y014445D01*
X010195Y014507D01*
D13*
X016835Y017362D02*
X016872Y017325D01*
X016945Y017325D01*
X016982Y017362D01*
X016982Y017508D01*
X016945Y017545D01*
X016872Y017545D01*
X016835Y017508D01*
X016835Y017362D01*
X017056Y017362D02*
X017093Y017325D01*
X017166Y017325D01*
X017203Y017362D01*
X017203Y017545D01*
X017277Y017545D02*
X017424Y017545D01*
X017350Y017545D02*
X017350Y017325D01*
X017498Y017362D02*
X017535Y017325D01*
X017608Y017325D01*
X017645Y017362D01*
X017645Y017398D01*
X017608Y017435D01*
X017535Y017435D01*
X017498Y017472D01*
X017498Y017508D01*
X017535Y017545D01*
X017608Y017545D01*
X017645Y017508D01*
X017719Y017545D02*
X017866Y017325D01*
X017719Y017325D02*
X017866Y017545D01*
X017056Y017545D02*
X017056Y017362D01*
X018940Y017977D02*
X018977Y017940D01*
X019050Y017940D01*
X019087Y017977D01*
X019087Y018123D01*
X019050Y018160D01*
X018977Y018160D01*
X018940Y018123D01*
X018940Y017977D01*
X019161Y017977D02*
X019198Y017940D01*
X019271Y017940D01*
X019308Y017977D01*
X019308Y018160D01*
X019382Y018160D02*
X019529Y018160D01*
X019455Y018160D02*
X019455Y017940D01*
X019603Y017940D02*
X019713Y017940D01*
X019750Y017977D01*
X019750Y018123D01*
X019713Y018160D01*
X019603Y018160D01*
X019603Y017940D01*
X019824Y017940D02*
X019971Y018160D01*
X019824Y018160D02*
X019971Y017940D01*
X020440Y018138D02*
X020440Y018285D01*
X020440Y018138D02*
X020513Y018065D01*
X020587Y018138D01*
X020587Y018285D01*
X020661Y018175D02*
X020808Y018175D01*
X020734Y018248D02*
X020734Y018102D01*
X019161Y018160D02*
X019161Y017977D01*
X020352Y015785D02*
X020315Y015748D01*
X020315Y015602D01*
X020352Y015565D01*
X020425Y015565D01*
X020462Y015602D01*
X020462Y015748D01*
X020425Y015785D01*
X020352Y015785D01*
X020536Y015785D02*
X020536Y015602D01*
X020573Y015565D01*
X020646Y015565D01*
X020683Y015602D01*
X020683Y015785D01*
X020757Y015785D02*
X020904Y015785D01*
X020830Y015785D02*
X020830Y015565D01*
X020978Y015602D02*
X021015Y015565D01*
X021088Y015565D01*
X021125Y015602D01*
X021199Y015565D02*
X021346Y015785D01*
X021199Y015785D02*
X021346Y015565D01*
X021125Y015748D02*
X021088Y015785D01*
X021015Y015785D01*
X020978Y015748D01*
X020978Y015602D01*
D14*
X020680Y015930D02*
X020180Y015930D01*
X019930Y016180D01*
X019680Y015930D01*
X019180Y015930D01*
X018930Y016180D01*
X018680Y015930D01*
X018180Y015930D01*
X017930Y016180D01*
X017930Y017680D01*
X018180Y017930D01*
X018680Y017930D01*
X018930Y017680D01*
X019180Y017930D01*
X019680Y017930D01*
X019930Y017680D01*
X020180Y017930D01*
X020680Y017930D01*
X020930Y017680D01*
X020930Y016180D01*
X020680Y015930D01*
X020580Y015180D02*
X019780Y015180D01*
X019680Y015080D01*
X019680Y014280D01*
X019780Y014180D01*
X019680Y014080D01*
X019680Y013280D01*
X019780Y013180D01*
X020580Y013180D01*
X020680Y013280D01*
X020680Y014080D01*
X020580Y014180D01*
X020680Y014280D01*
X020680Y015080D01*
X020580Y015180D01*
X021730Y016030D02*
X021730Y016180D01*
X021780Y016230D01*
X021780Y018130D01*
X021730Y018180D01*
X021730Y018330D01*
X021732Y018347D01*
X021736Y018364D01*
X021743Y018380D01*
X021753Y018394D01*
X021766Y018407D01*
X021780Y018417D01*
X021796Y018424D01*
X021813Y018428D01*
X021830Y018430D01*
X022530Y018430D02*
X022547Y018428D01*
X022564Y018424D01*
X022580Y018417D01*
X022594Y018407D01*
X022607Y018394D01*
X022617Y018380D01*
X022624Y018364D01*
X022628Y018347D01*
X022630Y018330D01*
X022630Y018180D01*
X022580Y018130D01*
X022580Y016230D01*
X022630Y016180D01*
X022630Y016030D01*
X022628Y016013D01*
X022624Y015996D01*
X022617Y015980D01*
X022607Y015966D01*
X022594Y015953D01*
X022580Y015943D01*
X022564Y015936D01*
X022547Y015932D01*
X022530Y015930D01*
X021830Y015930D02*
X021813Y015932D01*
X021796Y015936D01*
X021780Y015943D01*
X021766Y015953D01*
X021753Y015966D01*
X021743Y015980D01*
X021736Y015996D01*
X021732Y016013D01*
X021730Y016030D01*
X023700Y016130D02*
X023700Y016280D01*
X023750Y016330D01*
X023750Y018230D01*
X023700Y018280D01*
X023700Y018430D01*
X023702Y018447D01*
X023706Y018464D01*
X023713Y018480D01*
X023723Y018494D01*
X023736Y018507D01*
X023750Y018517D01*
X023766Y018524D01*
X023783Y018528D01*
X023800Y018530D01*
X024500Y018530D02*
X024517Y018528D01*
X024534Y018524D01*
X024550Y018517D01*
X024564Y018507D01*
X024577Y018494D01*
X024587Y018480D01*
X024594Y018464D01*
X024598Y018447D01*
X024600Y018430D01*
X024600Y018280D01*
X024550Y018230D01*
X024550Y016330D01*
X024600Y016280D01*
X024600Y016130D01*
X024598Y016113D01*
X024594Y016096D01*
X024587Y016080D01*
X024577Y016066D01*
X024564Y016053D01*
X024550Y016043D01*
X024534Y016036D01*
X024517Y016032D01*
X024500Y016030D01*
X023800Y016030D02*
X023783Y016032D01*
X023766Y016036D01*
X023750Y016043D01*
X023736Y016053D01*
X023723Y016066D01*
X023713Y016080D01*
X023706Y016096D01*
X023702Y016113D01*
X023700Y016130D01*
X019430Y018330D02*
X019430Y020030D01*
X019428Y020047D01*
X019424Y020064D01*
X019417Y020080D01*
X019407Y020094D01*
X019394Y020107D01*
X019380Y020117D01*
X019364Y020124D01*
X019347Y020128D01*
X019330Y020130D01*
X018530Y020130D01*
X018513Y020128D01*
X018496Y020124D01*
X018480Y020117D01*
X018466Y020107D01*
X018453Y020094D01*
X018443Y020080D01*
X018436Y020064D01*
X018432Y020047D01*
X018430Y020030D01*
X018430Y018330D01*
X018432Y018313D01*
X018436Y018296D01*
X018443Y018280D01*
X018453Y018266D01*
X018466Y018253D01*
X018480Y018243D01*
X018496Y018236D01*
X018513Y018232D01*
X018530Y018230D01*
X019330Y018230D01*
X019347Y018232D01*
X019364Y018236D01*
X019380Y018243D01*
X019394Y018253D01*
X019407Y018266D01*
X019417Y018280D01*
X019424Y018296D01*
X019428Y018313D01*
X019430Y018330D01*
X018930Y019030D02*
X018930Y019080D01*
X018930Y019280D02*
X018930Y019330D01*
X018380Y021030D02*
X018380Y021180D01*
X018330Y021230D01*
X018330Y023130D01*
X018380Y023180D01*
X018380Y023330D01*
X018378Y023347D01*
X018374Y023364D01*
X018367Y023380D01*
X018357Y023394D01*
X018344Y023407D01*
X018330Y023417D01*
X018314Y023424D01*
X018297Y023428D01*
X018280Y023430D01*
X017580Y023430D02*
X017563Y023428D01*
X017546Y023424D01*
X017530Y023417D01*
X017516Y023407D01*
X017503Y023394D01*
X017493Y023380D01*
X017486Y023364D01*
X017482Y023347D01*
X017480Y023330D01*
X017480Y023180D01*
X017530Y023130D01*
X017530Y021230D01*
X017480Y021180D01*
X017480Y021030D01*
X017482Y021013D01*
X017486Y020996D01*
X017493Y020980D01*
X017503Y020966D01*
X017516Y020953D01*
X017530Y020943D01*
X017546Y020936D01*
X017563Y020932D01*
X017580Y020930D01*
X018280Y020930D02*
X018297Y020932D01*
X018314Y020936D01*
X018330Y020943D01*
X018344Y020953D01*
X018357Y020966D01*
X018367Y020980D01*
X018374Y020996D01*
X018378Y021013D01*
X018380Y021030D01*
X020085Y021579D02*
X020085Y021799D01*
X020158Y021872D01*
X020305Y021872D01*
X020378Y021799D01*
X020378Y021579D01*
X020378Y021726D02*
X020525Y021872D01*
X020525Y022039D02*
X020525Y022333D01*
X020525Y022186D02*
X020085Y022186D01*
X020231Y022039D01*
X020158Y022500D02*
X020085Y022573D01*
X020085Y022720D01*
X020158Y022793D01*
X020452Y022500D01*
X020525Y022573D01*
X020525Y022720D01*
X020452Y022793D01*
X020158Y022793D01*
X020158Y022500D02*
X020452Y022500D01*
X020525Y021579D02*
X020085Y021579D01*
X015525Y021539D02*
X015525Y021833D01*
X015525Y021686D02*
X015085Y021686D01*
X015231Y021539D01*
X015158Y021372D02*
X015305Y021372D01*
X015378Y021299D01*
X015378Y021079D01*
X015378Y021226D02*
X015525Y021372D01*
X015525Y021079D02*
X015085Y021079D01*
X015085Y021299D01*
X015158Y021372D01*
X014880Y021180D02*
X014830Y021230D01*
X014830Y023130D01*
X014880Y023180D01*
X014880Y023330D01*
X014878Y023347D01*
X014874Y023364D01*
X014867Y023380D01*
X014857Y023394D01*
X014844Y023407D01*
X014830Y023417D01*
X014814Y023424D01*
X014797Y023428D01*
X014780Y023430D01*
X014080Y023430D02*
X014063Y023428D01*
X014046Y023424D01*
X014030Y023417D01*
X014016Y023407D01*
X014003Y023394D01*
X013993Y023380D01*
X013986Y023364D01*
X013982Y023347D01*
X013980Y023330D01*
X013980Y023180D01*
X014030Y023130D01*
X014030Y021230D01*
X013980Y021180D01*
X013980Y021030D01*
X013982Y021013D01*
X013986Y020996D01*
X013993Y020980D01*
X014003Y020966D01*
X014016Y020953D01*
X014030Y020943D01*
X014046Y020936D01*
X014063Y020932D01*
X014080Y020930D01*
X014780Y020930D02*
X014797Y020932D01*
X014814Y020936D01*
X014830Y020943D01*
X014844Y020953D01*
X014857Y020966D01*
X014867Y020980D01*
X014874Y020996D01*
X014878Y021013D01*
X014880Y021030D01*
X014880Y021180D01*
X015231Y022000D02*
X015085Y022146D01*
X015525Y022146D01*
X015525Y022000D02*
X015525Y022293D01*
X014330Y019880D02*
X013530Y019880D01*
X013513Y019878D01*
X013496Y019874D01*
X013480Y019867D01*
X013466Y019857D01*
X013453Y019844D01*
X013443Y019830D01*
X013436Y019814D01*
X013432Y019797D01*
X013430Y019780D01*
X013430Y018080D01*
X013432Y018063D01*
X013436Y018046D01*
X013443Y018030D01*
X013453Y018016D01*
X013466Y018003D01*
X013480Y017993D01*
X013496Y017986D01*
X013513Y017982D01*
X013530Y017980D01*
X014330Y017980D01*
X014347Y017982D01*
X014364Y017986D01*
X014380Y017993D01*
X014394Y018003D01*
X014407Y018016D01*
X014417Y018030D01*
X014424Y018046D01*
X014428Y018063D01*
X014430Y018080D01*
X014430Y019780D01*
X014428Y019797D01*
X014424Y019814D01*
X014417Y019830D01*
X014407Y019844D01*
X014394Y019857D01*
X014380Y019867D01*
X014364Y019874D01*
X014347Y019878D01*
X014330Y019880D01*
X013930Y019080D02*
X013930Y019030D01*
X013930Y018830D02*
X013930Y018780D01*
X014330Y017880D02*
X013530Y017880D01*
X013513Y017878D01*
X013496Y017874D01*
X013480Y017867D01*
X013466Y017857D01*
X013453Y017844D01*
X013443Y017830D01*
X013436Y017814D01*
X013432Y017797D01*
X013430Y017780D01*
X013430Y016080D01*
X013432Y016063D01*
X013436Y016046D01*
X013443Y016030D01*
X013453Y016016D01*
X013466Y016003D01*
X013480Y015993D01*
X013496Y015986D01*
X013513Y015982D01*
X013530Y015980D01*
X014330Y015980D01*
X014347Y015982D01*
X014364Y015986D01*
X014380Y015993D01*
X014394Y016003D01*
X014407Y016016D01*
X014417Y016030D01*
X014424Y016046D01*
X014428Y016063D01*
X014430Y016080D01*
X014430Y017780D01*
X014428Y017797D01*
X014424Y017814D01*
X014417Y017830D01*
X014407Y017844D01*
X014394Y017857D01*
X014380Y017867D01*
X014364Y017874D01*
X014347Y017878D01*
X014330Y017880D01*
X013930Y017080D02*
X013930Y017030D01*
X013930Y016830D02*
X013930Y016780D01*
X012580Y015180D02*
X011780Y015180D01*
X011680Y015080D01*
X011680Y014280D01*
X011780Y014180D01*
X011680Y014080D01*
X011680Y013280D01*
X011780Y013180D01*
X012580Y013180D01*
X012680Y013280D01*
X012680Y014080D01*
X012580Y014180D01*
X012680Y014280D01*
X012680Y015080D01*
X012580Y015180D01*
X010130Y016280D02*
X010130Y016430D01*
X010080Y016480D01*
X010080Y018380D01*
X010130Y018430D01*
X010130Y018580D01*
X010128Y018597D01*
X010124Y018614D01*
X010117Y018630D01*
X010107Y018644D01*
X010094Y018657D01*
X010080Y018667D01*
X010064Y018674D01*
X010047Y018678D01*
X010030Y018680D01*
X009330Y018680D02*
X009313Y018678D01*
X009296Y018674D01*
X009280Y018667D01*
X009266Y018657D01*
X009253Y018644D01*
X009243Y018630D01*
X009236Y018614D01*
X009232Y018597D01*
X009230Y018580D01*
X009230Y018430D01*
X009280Y018380D01*
X009280Y016480D01*
X009230Y016430D01*
X009230Y016280D01*
X009232Y016263D01*
X009236Y016246D01*
X009243Y016230D01*
X009253Y016216D01*
X009266Y016203D01*
X009280Y016193D01*
X009296Y016186D01*
X009313Y016182D01*
X009330Y016180D01*
X008980Y016360D02*
X008980Y016510D01*
X008930Y016560D01*
X008930Y018460D01*
X008980Y018510D01*
X008980Y018660D01*
X008978Y018677D01*
X008974Y018694D01*
X008967Y018710D01*
X008957Y018724D01*
X008944Y018737D01*
X008930Y018747D01*
X008914Y018754D01*
X008897Y018758D01*
X008880Y018760D01*
X008180Y018760D02*
X008163Y018758D01*
X008146Y018754D01*
X008130Y018747D01*
X008116Y018737D01*
X008103Y018724D01*
X008093Y018710D01*
X008086Y018694D01*
X008082Y018677D01*
X008080Y018660D01*
X008080Y018510D01*
X008130Y018460D01*
X008130Y016560D01*
X008080Y016510D01*
X008080Y016360D01*
X008082Y016343D01*
X008086Y016326D01*
X008093Y016310D01*
X008103Y016296D01*
X008116Y016283D01*
X008130Y016273D01*
X008146Y016266D01*
X008163Y016262D01*
X008180Y016260D01*
X008880Y016260D02*
X008897Y016262D01*
X008914Y016266D01*
X008930Y016273D01*
X008944Y016283D01*
X008957Y016296D01*
X008967Y016310D01*
X008974Y016326D01*
X008978Y016343D01*
X008980Y016360D01*
X010030Y016180D02*
X010047Y016182D01*
X010064Y016186D01*
X010080Y016193D01*
X010094Y016203D01*
X010107Y016216D01*
X010117Y016230D01*
X010124Y016246D01*
X010128Y016263D01*
X010130Y016280D01*
X012030Y012680D02*
X011930Y012580D01*
X011930Y011780D01*
X012030Y011680D01*
X011930Y011580D01*
X011930Y010780D01*
X012030Y010680D01*
X011930Y010580D01*
X011930Y009780D01*
X012030Y009680D01*
X012830Y009680D01*
X012930Y009780D01*
X012930Y010580D01*
X012830Y010680D01*
X012930Y010780D01*
X012930Y011580D01*
X012830Y011680D01*
X012930Y011780D01*
X012930Y012580D01*
X012830Y012680D01*
X012030Y012680D01*
X015230Y012530D02*
X015230Y013330D01*
X015232Y013347D01*
X015236Y013364D01*
X015243Y013380D01*
X015253Y013394D01*
X015266Y013407D01*
X015280Y013417D01*
X015296Y013424D01*
X015313Y013428D01*
X015330Y013430D01*
X017030Y013430D01*
X017047Y013428D01*
X017064Y013424D01*
X017080Y013417D01*
X017094Y013407D01*
X017107Y013394D01*
X017117Y013380D01*
X017124Y013364D01*
X017128Y013347D01*
X017130Y013330D01*
X017130Y012530D01*
X017128Y012513D01*
X017124Y012496D01*
X017117Y012480D01*
X017107Y012466D01*
X017094Y012453D01*
X017080Y012443D01*
X017064Y012436D01*
X017047Y012432D01*
X017030Y012430D01*
X015330Y012430D01*
X015313Y012432D01*
X015296Y012436D01*
X015280Y012443D01*
X015266Y012453D01*
X015253Y012466D01*
X015243Y012480D01*
X015236Y012496D01*
X015232Y012513D01*
X015230Y012530D01*
X016030Y012930D02*
X016080Y012930D01*
X016280Y012930D02*
X016330Y012930D01*
X017930Y013330D02*
X017930Y015030D01*
X017932Y015047D01*
X017936Y015064D01*
X017943Y015080D01*
X017953Y015094D01*
X017966Y015107D01*
X017980Y015117D01*
X017996Y015124D01*
X018013Y015128D01*
X018030Y015130D01*
X018830Y015130D01*
X018847Y015128D01*
X018864Y015124D01*
X018880Y015117D01*
X018894Y015107D01*
X018907Y015094D01*
X018917Y015080D01*
X018924Y015064D01*
X018928Y015047D01*
X018930Y015030D01*
X018930Y013330D01*
X018928Y013313D01*
X018924Y013296D01*
X018917Y013280D01*
X018907Y013266D01*
X018894Y013253D01*
X018880Y013243D01*
X018864Y013236D01*
X018847Y013232D01*
X018830Y013230D01*
X018030Y013230D01*
X018013Y013232D01*
X017996Y013236D01*
X017980Y013243D01*
X017966Y013253D01*
X017953Y013266D01*
X017943Y013280D01*
X017936Y013296D01*
X017932Y013313D01*
X017930Y013330D01*
X018430Y014030D02*
X018430Y014080D01*
X018430Y014280D02*
X018430Y014330D01*
X018780Y012680D02*
X019580Y012680D01*
X019680Y012580D01*
X019680Y011780D01*
X019580Y011680D01*
X019680Y011580D01*
X019680Y010780D01*
X019580Y010680D01*
X019680Y010580D01*
X019680Y009780D01*
X019580Y009680D01*
X018780Y009680D01*
X018680Y009780D01*
X018680Y010580D01*
X018780Y010680D01*
X018680Y010780D01*
X018680Y011580D01*
X018780Y011680D01*
X018680Y011780D01*
X018680Y012580D01*
X018780Y012680D01*
X018530Y008850D02*
X018530Y008700D01*
X018480Y008650D01*
X018480Y006750D01*
X018530Y006700D01*
X018530Y006550D01*
X018528Y006533D01*
X018524Y006516D01*
X018517Y006500D01*
X018507Y006486D01*
X018494Y006473D01*
X018480Y006463D01*
X018464Y006456D01*
X018447Y006452D01*
X018430Y006450D01*
X017730Y006450D02*
X017713Y006452D01*
X017696Y006456D01*
X017680Y006463D01*
X017666Y006473D01*
X017653Y006486D01*
X017643Y006500D01*
X017636Y006516D01*
X017632Y006533D01*
X017630Y006550D01*
X017630Y006700D01*
X017680Y006750D01*
X017680Y008650D01*
X017630Y008700D01*
X017630Y008850D01*
X017632Y008867D01*
X017636Y008884D01*
X017643Y008900D01*
X017653Y008914D01*
X017666Y008927D01*
X017680Y008937D01*
X017696Y008944D01*
X017713Y008948D01*
X017730Y008950D01*
X018430Y008950D02*
X018447Y008948D01*
X018464Y008944D01*
X018480Y008937D01*
X018494Y008927D01*
X018507Y008914D01*
X018517Y008900D01*
X018524Y008884D01*
X018528Y008867D01*
X018530Y008850D01*
X014630Y008830D02*
X014630Y008680D01*
X014580Y008630D01*
X014580Y006730D01*
X014630Y006680D01*
X014630Y006530D01*
X014628Y006513D01*
X014624Y006496D01*
X014617Y006480D01*
X014607Y006466D01*
X014594Y006453D01*
X014580Y006443D01*
X014564Y006436D01*
X014547Y006432D01*
X014530Y006430D01*
X013830Y006430D02*
X013813Y006432D01*
X013796Y006436D01*
X013780Y006443D01*
X013766Y006453D01*
X013753Y006466D01*
X013743Y006480D01*
X013736Y006496D01*
X013732Y006513D01*
X013730Y006530D01*
X013730Y006680D01*
X013780Y006730D01*
X013780Y008630D01*
X013730Y008680D01*
X013730Y008830D01*
X013732Y008847D01*
X013736Y008864D01*
X013743Y008880D01*
X013753Y008894D01*
X013766Y008907D01*
X013780Y008917D01*
X013796Y008924D01*
X013813Y008928D01*
X013830Y008930D01*
X014530Y008930D02*
X014547Y008928D01*
X014564Y008924D01*
X014580Y008917D01*
X014594Y008907D01*
X014607Y008894D01*
X014617Y008880D01*
X014624Y008864D01*
X014628Y008847D01*
X014630Y008830D01*
X011630Y021030D02*
X011630Y021180D01*
X011580Y021230D01*
X011580Y023130D01*
X011630Y023180D01*
X011630Y023330D01*
X011628Y023347D01*
X011624Y023364D01*
X011617Y023380D01*
X011607Y023394D01*
X011594Y023407D01*
X011580Y023417D01*
X011564Y023424D01*
X011547Y023428D01*
X011530Y023430D01*
X010830Y023430D02*
X010813Y023428D01*
X010796Y023424D01*
X010780Y023417D01*
X010766Y023407D01*
X010753Y023394D01*
X010743Y023380D01*
X010736Y023364D01*
X010732Y023347D01*
X010730Y023330D01*
X010730Y023180D01*
X010780Y023130D01*
X010780Y021230D01*
X010730Y021180D01*
X010730Y021030D01*
X010732Y021013D01*
X010736Y020996D01*
X010743Y020980D01*
X010753Y020966D01*
X010766Y020953D01*
X010780Y020943D01*
X010796Y020936D01*
X010813Y020932D01*
X010830Y020930D01*
X011530Y020930D02*
X011547Y020932D01*
X011564Y020936D01*
X011580Y020943D01*
X011594Y020953D01*
X011607Y020966D01*
X011617Y020980D01*
X011624Y020996D01*
X011628Y021013D01*
X011630Y021030D01*
X011585Y021079D02*
X011585Y021299D01*
X011658Y021372D01*
X011805Y021372D01*
X011878Y021299D01*
X011878Y021079D01*
X011878Y021226D02*
X012025Y021372D01*
X012025Y021539D02*
X012025Y021833D01*
X012025Y021686D02*
X011585Y021686D01*
X011731Y021539D01*
X011585Y021079D02*
X012025Y021079D01*
X012025Y022000D02*
X011731Y022293D01*
X011658Y022293D01*
X011585Y022220D01*
X011585Y022073D01*
X011658Y022000D01*
X012025Y022000D02*
X012025Y022293D01*
D15*
X011405Y010016D02*
X011405Y009903D01*
X011461Y009846D01*
X011575Y009959D02*
X011575Y010016D01*
X011632Y010073D01*
X011688Y010073D01*
X011745Y010016D01*
X011745Y009903D01*
X011688Y009846D01*
X011575Y010016D02*
X011518Y010073D01*
X011461Y010073D01*
X011405Y010016D01*
X011461Y010846D02*
X011405Y010903D01*
X011405Y011016D01*
X011461Y011073D01*
X011518Y011073D01*
X011745Y010846D01*
X011745Y011073D01*
X011745Y011846D02*
X011745Y012073D01*
X011745Y011959D02*
X011405Y011959D01*
X011518Y011846D01*
X013105Y011909D02*
X013105Y011759D01*
X013180Y011684D01*
X013480Y011684D01*
X013555Y011759D01*
X013555Y011909D01*
X013480Y011984D01*
X013180Y011984D01*
X013105Y011909D01*
X013180Y012145D02*
X013480Y012145D01*
X013555Y012220D01*
X013555Y012370D01*
X013480Y012445D01*
X013330Y012445D01*
X013330Y012295D01*
X013180Y012445D02*
X013105Y012370D01*
X013105Y012220D01*
X013180Y012145D01*
X013555Y011524D02*
X013555Y011224D01*
X013105Y011224D01*
X013255Y011064D02*
X013555Y011064D01*
X013330Y011064D02*
X013330Y010763D01*
X013255Y010763D02*
X013105Y010914D01*
X013255Y011064D01*
X013255Y010763D02*
X013555Y010763D01*
X013555Y010603D02*
X013105Y010603D01*
X013105Y010303D02*
X013555Y010603D01*
X013555Y010303D02*
X013105Y010303D01*
X013255Y010143D02*
X013555Y010143D01*
X013330Y010143D02*
X013330Y009843D01*
X013255Y009843D02*
X013105Y009993D01*
X013255Y010143D01*
X013255Y009843D02*
X013555Y009843D01*
X013530Y007466D02*
X013230Y007466D01*
X013155Y007391D01*
X013155Y007240D01*
X013230Y007165D01*
X013305Y007165D01*
X013380Y007240D01*
X013380Y007466D01*
X013530Y007466D02*
X013605Y007391D01*
X013605Y007240D01*
X013530Y007165D01*
X013605Y007005D02*
X013455Y006855D01*
X013455Y006930D02*
X013455Y006705D01*
X013605Y006705D02*
X013155Y006705D01*
X013155Y006930D01*
X013230Y007005D01*
X013380Y007005D01*
X013455Y006930D01*
X018655Y007804D02*
X018655Y008029D01*
X018730Y008104D01*
X018880Y008104D01*
X018955Y008029D01*
X018955Y007804D01*
X019105Y007804D02*
X018655Y007804D01*
X018955Y007954D02*
X019105Y008104D01*
X019030Y008265D02*
X019105Y008340D01*
X019105Y008490D01*
X019030Y008565D01*
X018955Y008565D01*
X018880Y008490D01*
X018880Y008415D01*
X018880Y008490D02*
X018805Y008565D01*
X018730Y008565D01*
X018655Y008490D01*
X018655Y008340D01*
X018730Y008265D01*
X020555Y009805D02*
X021005Y009805D01*
X021005Y010105D01*
X021005Y010265D02*
X020555Y010566D01*
X020555Y010726D02*
X020555Y011026D01*
X020555Y010876D02*
X021005Y010876D01*
X021005Y011186D02*
X020555Y011186D01*
X020555Y011411D01*
X020630Y011486D01*
X020780Y011486D01*
X020855Y011411D01*
X020855Y011186D01*
X020855Y011336D02*
X021005Y011486D01*
X021005Y011647D02*
X020705Y011647D01*
X020555Y011797D01*
X020705Y011947D01*
X021005Y011947D01*
X020780Y011947D02*
X020780Y011647D01*
X020205Y011432D02*
X020205Y011205D01*
X019978Y011432D01*
X019921Y011432D01*
X019865Y011375D01*
X019865Y011262D01*
X019921Y011205D01*
X020205Y010432D02*
X020205Y010205D01*
X020205Y010318D02*
X019865Y010318D01*
X019978Y010205D01*
X020555Y010265D02*
X021005Y010566D01*
X020555Y010105D02*
X020555Y009805D01*
X020780Y009805D02*
X020780Y009955D01*
X020148Y012205D02*
X020205Y012262D01*
X020205Y012375D01*
X020148Y012432D01*
X020092Y012432D01*
X020035Y012375D01*
X020035Y012318D01*
X020035Y012375D02*
X019978Y012432D01*
X019921Y012432D01*
X019865Y012375D01*
X019865Y012262D01*
X019921Y012205D01*
X017805Y013630D02*
X017730Y013555D01*
X017430Y013555D01*
X017355Y013630D01*
X017355Y013780D01*
X017430Y013855D01*
X017355Y014015D02*
X017580Y014015D01*
X017505Y014166D01*
X017505Y014241D01*
X017580Y014316D01*
X017730Y014316D01*
X017805Y014241D01*
X017805Y014090D01*
X017730Y014015D01*
X017730Y013855D02*
X017805Y013780D01*
X017805Y013630D01*
X017355Y014015D02*
X017355Y014316D01*
X016316Y013930D02*
X016241Y014005D01*
X016090Y014005D01*
X016015Y013930D01*
X015855Y013930D02*
X015780Y014005D01*
X015630Y014005D01*
X015555Y013930D01*
X015555Y013630D01*
X015630Y013555D01*
X015780Y013555D01*
X015855Y013630D01*
X016015Y013555D02*
X016316Y013855D01*
X016316Y013930D01*
X016316Y013555D02*
X016015Y013555D01*
X018205Y015305D02*
X018505Y015305D01*
X018355Y015305D02*
X018355Y015755D01*
X018205Y015605D01*
X021055Y017280D02*
X021130Y017205D01*
X021280Y017205D01*
X021355Y017280D01*
X021355Y017355D01*
X021280Y017430D01*
X021055Y017430D01*
X021055Y017280D01*
X021055Y017430D02*
X021205Y017580D01*
X021355Y017655D01*
X022755Y017509D02*
X022755Y017284D01*
X023205Y017284D01*
X023055Y017284D02*
X023055Y017509D01*
X022980Y017584D01*
X022830Y017584D01*
X022755Y017509D01*
X022830Y017745D02*
X022905Y017745D01*
X022980Y017820D01*
X022980Y017970D01*
X023055Y018045D01*
X023130Y018045D01*
X023205Y017970D01*
X023205Y017820D01*
X023130Y017745D01*
X023055Y017745D01*
X022980Y017820D01*
X022980Y017970D02*
X022905Y018045D01*
X022830Y018045D01*
X022755Y017970D01*
X022755Y017820D01*
X022830Y017745D01*
X023055Y017434D02*
X023205Y017584D01*
X024725Y017609D02*
X024725Y017384D01*
X025175Y017384D01*
X025025Y017384D02*
X025025Y017609D01*
X024950Y017684D01*
X024800Y017684D01*
X024725Y017609D01*
X024800Y017845D02*
X024725Y017920D01*
X024725Y018070D01*
X024800Y018145D01*
X024875Y018145D01*
X025175Y017845D01*
X025175Y018145D01*
X025175Y017684D02*
X025025Y017534D01*
X020005Y018759D02*
X019930Y018684D01*
X019630Y018684D01*
X019555Y018759D01*
X019555Y018909D01*
X019630Y018984D01*
X019630Y019145D02*
X019555Y019220D01*
X019555Y019370D01*
X019630Y019445D01*
X019705Y019445D01*
X019780Y019370D01*
X019855Y019445D01*
X019930Y019445D01*
X020005Y019370D01*
X020005Y019220D01*
X019930Y019145D01*
X019930Y018984D02*
X020005Y018909D01*
X020005Y018759D01*
X019780Y019295D02*
X019780Y019370D01*
X018105Y021455D02*
X017655Y021455D01*
X017655Y021680D01*
X017730Y021755D01*
X017880Y021755D01*
X017955Y021680D01*
X017955Y021455D01*
X017955Y021605D02*
X018105Y021755D01*
X018105Y021915D02*
X018105Y022216D01*
X018105Y022066D02*
X017655Y022066D01*
X017805Y021915D01*
X017730Y022376D02*
X017655Y022451D01*
X017655Y022601D01*
X017730Y022676D01*
X017805Y022676D01*
X017880Y022601D01*
X017955Y022676D01*
X018030Y022676D01*
X018105Y022601D01*
X018105Y022451D01*
X018030Y022376D01*
X017880Y022526D02*
X017880Y022601D01*
X014605Y022726D02*
X014155Y022726D01*
X014380Y022501D01*
X014380Y022801D01*
X014605Y022341D02*
X014605Y022040D01*
X014605Y022191D02*
X014155Y022191D01*
X014305Y022040D01*
X014380Y021880D02*
X014455Y021805D01*
X014455Y021580D01*
X014605Y021580D02*
X014155Y021580D01*
X014155Y021805D01*
X014230Y021880D01*
X014380Y021880D01*
X014455Y021730D02*
X014605Y021880D01*
X013080Y019066D02*
X013080Y018765D01*
X012855Y018991D01*
X013305Y018991D01*
X013230Y018605D02*
X013305Y018530D01*
X013305Y018380D01*
X013230Y018305D01*
X012930Y018305D01*
X012855Y018380D01*
X012855Y018530D01*
X012930Y018605D01*
X013255Y017320D02*
X013255Y017020D01*
X013255Y017170D02*
X012805Y017170D01*
X012955Y017020D01*
X012880Y016859D02*
X012805Y016784D01*
X012805Y016634D01*
X012880Y016559D01*
X013180Y016559D01*
X013255Y016634D01*
X013255Y016784D01*
X013180Y016859D01*
X010705Y017534D02*
X010255Y017534D01*
X010255Y017759D01*
X010330Y017834D01*
X010480Y017834D01*
X010555Y017759D01*
X010555Y017534D01*
X010555Y017684D02*
X010705Y017834D01*
X010705Y017995D02*
X010630Y017995D01*
X010330Y018295D01*
X010255Y018295D01*
X010255Y017995D01*
X009555Y018075D02*
X009555Y018375D01*
X009555Y018225D02*
X009105Y018225D01*
X009255Y018075D01*
X009180Y017914D02*
X009330Y017914D01*
X009405Y017839D01*
X009405Y017614D01*
X009555Y017614D02*
X009105Y017614D01*
X009105Y017839D01*
X009180Y017914D01*
X009405Y017764D02*
X009555Y017914D01*
X010905Y021455D02*
X010905Y021680D01*
X010980Y021755D01*
X011130Y021755D01*
X011205Y021680D01*
X011205Y021455D01*
X011355Y021455D02*
X010905Y021455D01*
X011205Y021605D02*
X011355Y021755D01*
X011355Y021915D02*
X011355Y022216D01*
X011355Y022066D02*
X010905Y022066D01*
X011055Y021915D01*
X011130Y022376D02*
X010905Y022376D01*
X010905Y022676D01*
X011055Y022601D02*
X011130Y022676D01*
X011280Y022676D01*
X011355Y022601D01*
X011355Y022451D01*
X011280Y022376D01*
X011130Y022376D02*
X011055Y022526D01*
X011055Y022601D01*
D16*
X011805Y023930D02*
X011805Y020180D01*
X013805Y020180D01*
X013805Y020430D01*
X013680Y020430D01*
X013680Y023680D01*
X013805Y023680D01*
X013805Y023930D01*
X011805Y023930D01*
X015305Y023930D02*
X015305Y020180D01*
X017305Y020180D01*
X017305Y020430D01*
X017180Y020430D01*
X017180Y023680D01*
X017305Y023680D01*
X017305Y023930D01*
X015305Y023930D01*
X018805Y023930D02*
X018805Y020180D01*
X020805Y020180D01*
X020805Y020430D01*
X020680Y020430D01*
X020680Y023680D01*
X020805Y023680D01*
X020805Y023930D01*
X018805Y023930D01*
D17*
X018930Y019280D02*
X018630Y019280D01*
X018630Y019080D02*
X018930Y019080D01*
X019230Y019080D01*
X019230Y019280D02*
X018930Y019280D01*
X014230Y019030D02*
X013930Y019030D01*
X013630Y019030D01*
X013630Y018830D02*
X013930Y018830D01*
X014230Y018830D01*
X014230Y017030D02*
X013930Y017030D01*
X013630Y017030D01*
X013630Y016830D02*
X013930Y016830D01*
X014230Y016830D01*
X018130Y014280D02*
X018430Y014280D01*
X018730Y014280D01*
X018730Y014080D02*
X018430Y014080D01*
X018130Y014080D01*
X016280Y013230D02*
X016280Y012930D01*
X016280Y012630D01*
X016080Y012630D02*
X016080Y012930D01*
X016080Y013230D01*
M02*
