G75*
%MOIN*%
%OFA0B0*%
%FSLAX25Y25*%
%IPPOS*%
%LPD*%
%AMOC8*
5,1,8,0,0,1.08239X$1,22.5*
%
%ADD10R,0.05131X0.04737*%
%ADD11OC8,0.06400*%
%ADD12C,0.07200*%
%ADD13OC8,0.07200*%
%ADD14C,0.08200*%
%ADD15R,0.04331X0.01575*%
%ADD16R,0.04146X0.04343*%
D10*
X0078654Y0137000D03*
X0085346Y0137000D03*
X0168654Y0137000D03*
X0175346Y0137000D03*
X0188654Y0137000D03*
X0195346Y0137000D03*
X0293654Y0137000D03*
X0300346Y0137000D03*
D11*
X0167000Y0047000D03*
X0188000Y0058000D03*
X0197000Y0057000D03*
X0196000Y0066000D03*
X0197000Y0047000D03*
X0212000Y0137000D03*
X0222000Y0137000D03*
X0232000Y0137000D03*
X0242000Y0137000D03*
X0252000Y0137000D03*
X0262000Y0137000D03*
X0297000Y0147000D03*
X0306000Y0148000D03*
X0298000Y0156000D03*
X0322000Y0167000D03*
X0322000Y0137000D03*
X0262000Y0167000D03*
X0252000Y0167000D03*
X0242000Y0167000D03*
X0232000Y0167000D03*
X0222000Y0167000D03*
X0212000Y0167000D03*
X0188000Y0156000D03*
X0196000Y0148000D03*
X0187000Y0147000D03*
X0152000Y0137000D03*
X0137000Y0137000D03*
X0122000Y0137000D03*
X0107000Y0137000D03*
X0086000Y0148000D03*
X0077000Y0147000D03*
X0078000Y0156000D03*
X0107000Y0167000D03*
X0122000Y0167000D03*
X0137000Y0167000D03*
X0152000Y0167000D03*
D12*
X0192000Y0097000D03*
D13*
X0182000Y0097000D03*
X0172000Y0097000D03*
X0172000Y0087000D03*
X0182000Y0087000D03*
X0192000Y0087000D03*
D14*
X0172000Y0067000D03*
X0172000Y0057000D03*
X0172000Y0147000D03*
X0172000Y0157000D03*
X0067000Y0152000D03*
X0057000Y0152000D03*
X0277000Y0152000D03*
X0287000Y0152000D03*
D15*
X0191449Y0115937D03*
X0191449Y0113969D03*
X0191449Y0112000D03*
X0191449Y0110031D03*
X0191449Y0108063D03*
X0172551Y0108063D03*
X0172551Y0110031D03*
X0172551Y0112000D03*
X0172551Y0113969D03*
X0172551Y0115937D03*
D16*
X0179717Y0127000D03*
X0184283Y0127000D03*
M02*
