G75*
%MOIN*%
%OFA0B0*%
%FSLAX25Y25*%
%IPPOS*%
%LPD*%
%AMOC8*
5,1,8,0,0,1.08239X$1,22.5*
%
%ADD10C,0.00004*%
%ADD11R,0.04331X0.03937*%
%ADD12OC8,0.05600*%
%ADD13C,0.06400*%
%ADD14OC8,0.06400*%
%ADD15C,0.07400*%
%ADD16R,0.04016X0.01181*%
%ADD17R,0.03346X0.03543*%
%ADD18C,0.03378*%
%ADD19C,0.01000*%
%ADD20C,0.02400*%
%ADD21C,0.02000*%
%ADD22C,0.02787*%
D10*
X0158378Y0010858D02*
X0158378Y0109283D01*
X0158372Y0109759D01*
X0158355Y0110234D01*
X0158326Y0110709D01*
X0158286Y0111183D01*
X0158234Y0111656D01*
X0158171Y0112127D01*
X0158097Y0112597D01*
X0158011Y0113065D01*
X0157914Y0113531D01*
X0157806Y0113994D01*
X0157687Y0114454D01*
X0157556Y0114912D01*
X0157415Y0115366D01*
X0157262Y0115817D01*
X0157099Y0116263D01*
X0156925Y0116706D01*
X0156740Y0117144D01*
X0156545Y0117578D01*
X0156339Y0118007D01*
X0156123Y0118431D01*
X0155897Y0118850D01*
X0155661Y0119263D01*
X0155415Y0119670D01*
X0155159Y0120071D01*
X0154893Y0120465D01*
X0154618Y0120854D01*
X0154334Y0121235D01*
X0154041Y0121609D01*
X0153739Y0121977D01*
X0153427Y0122337D01*
X0153108Y0122689D01*
X0152780Y0123033D01*
X0152443Y0123370D01*
X0152099Y0123698D01*
X0151747Y0124017D01*
X0151387Y0124329D01*
X0151019Y0124631D01*
X0150645Y0124924D01*
X0150264Y0125208D01*
X0149875Y0125483D01*
X0149481Y0125749D01*
X0149080Y0126005D01*
X0148673Y0126251D01*
X0148260Y0126487D01*
X0147841Y0126713D01*
X0147417Y0126929D01*
X0146988Y0127135D01*
X0146554Y0127330D01*
X0146116Y0127515D01*
X0145673Y0127689D01*
X0145227Y0127852D01*
X0144776Y0128005D01*
X0144322Y0128146D01*
X0143864Y0128277D01*
X0143404Y0128396D01*
X0142941Y0128504D01*
X0142475Y0128601D01*
X0142007Y0128687D01*
X0141537Y0128761D01*
X0141066Y0128824D01*
X0140593Y0128876D01*
X0140119Y0128916D01*
X0139644Y0128945D01*
X0139169Y0128962D01*
X0138693Y0128968D01*
X0138693Y0128969D02*
X0008569Y0128969D01*
X0008569Y0156528D01*
X0018411Y0149638D02*
X0018413Y0149791D01*
X0018419Y0149945D01*
X0018429Y0150098D01*
X0018443Y0150250D01*
X0018461Y0150403D01*
X0018483Y0150554D01*
X0018508Y0150705D01*
X0018538Y0150856D01*
X0018572Y0151006D01*
X0018609Y0151154D01*
X0018650Y0151302D01*
X0018695Y0151448D01*
X0018744Y0151594D01*
X0018797Y0151738D01*
X0018853Y0151880D01*
X0018913Y0152021D01*
X0018977Y0152161D01*
X0019044Y0152299D01*
X0019115Y0152435D01*
X0019190Y0152569D01*
X0019267Y0152701D01*
X0019349Y0152831D01*
X0019433Y0152959D01*
X0019521Y0153085D01*
X0019612Y0153208D01*
X0019706Y0153329D01*
X0019804Y0153447D01*
X0019904Y0153563D01*
X0020008Y0153676D01*
X0020114Y0153787D01*
X0020223Y0153895D01*
X0020335Y0154000D01*
X0020449Y0154101D01*
X0020567Y0154200D01*
X0020686Y0154296D01*
X0020808Y0154389D01*
X0020933Y0154478D01*
X0021060Y0154565D01*
X0021189Y0154647D01*
X0021320Y0154727D01*
X0021453Y0154803D01*
X0021588Y0154876D01*
X0021725Y0154945D01*
X0021864Y0155010D01*
X0022004Y0155072D01*
X0022146Y0155130D01*
X0022289Y0155185D01*
X0022434Y0155236D01*
X0022580Y0155283D01*
X0022727Y0155326D01*
X0022875Y0155365D01*
X0023024Y0155401D01*
X0023174Y0155432D01*
X0023325Y0155460D01*
X0023476Y0155484D01*
X0023629Y0155504D01*
X0023781Y0155520D01*
X0023934Y0155532D01*
X0024087Y0155540D01*
X0024240Y0155544D01*
X0024394Y0155544D01*
X0024547Y0155540D01*
X0024700Y0155532D01*
X0024853Y0155520D01*
X0025005Y0155504D01*
X0025158Y0155484D01*
X0025309Y0155460D01*
X0025460Y0155432D01*
X0025610Y0155401D01*
X0025759Y0155365D01*
X0025907Y0155326D01*
X0026054Y0155283D01*
X0026200Y0155236D01*
X0026345Y0155185D01*
X0026488Y0155130D01*
X0026630Y0155072D01*
X0026770Y0155010D01*
X0026909Y0154945D01*
X0027046Y0154876D01*
X0027181Y0154803D01*
X0027314Y0154727D01*
X0027445Y0154647D01*
X0027574Y0154565D01*
X0027701Y0154478D01*
X0027826Y0154389D01*
X0027948Y0154296D01*
X0028067Y0154200D01*
X0028185Y0154101D01*
X0028299Y0154000D01*
X0028411Y0153895D01*
X0028520Y0153787D01*
X0028626Y0153676D01*
X0028730Y0153563D01*
X0028830Y0153447D01*
X0028928Y0153329D01*
X0029022Y0153208D01*
X0029113Y0153085D01*
X0029201Y0152959D01*
X0029285Y0152831D01*
X0029367Y0152701D01*
X0029444Y0152569D01*
X0029519Y0152435D01*
X0029590Y0152299D01*
X0029657Y0152161D01*
X0029721Y0152021D01*
X0029781Y0151880D01*
X0029837Y0151738D01*
X0029890Y0151594D01*
X0029939Y0151448D01*
X0029984Y0151302D01*
X0030025Y0151154D01*
X0030062Y0151006D01*
X0030096Y0150856D01*
X0030126Y0150705D01*
X0030151Y0150554D01*
X0030173Y0150403D01*
X0030191Y0150250D01*
X0030205Y0150098D01*
X0030215Y0149945D01*
X0030221Y0149791D01*
X0030223Y0149638D01*
X0030221Y0149485D01*
X0030215Y0149331D01*
X0030205Y0149178D01*
X0030191Y0149026D01*
X0030173Y0148873D01*
X0030151Y0148722D01*
X0030126Y0148571D01*
X0030096Y0148420D01*
X0030062Y0148270D01*
X0030025Y0148122D01*
X0029984Y0147974D01*
X0029939Y0147828D01*
X0029890Y0147682D01*
X0029837Y0147538D01*
X0029781Y0147396D01*
X0029721Y0147255D01*
X0029657Y0147115D01*
X0029590Y0146977D01*
X0029519Y0146841D01*
X0029444Y0146707D01*
X0029367Y0146575D01*
X0029285Y0146445D01*
X0029201Y0146317D01*
X0029113Y0146191D01*
X0029022Y0146068D01*
X0028928Y0145947D01*
X0028830Y0145829D01*
X0028730Y0145713D01*
X0028626Y0145600D01*
X0028520Y0145489D01*
X0028411Y0145381D01*
X0028299Y0145276D01*
X0028185Y0145175D01*
X0028067Y0145076D01*
X0027948Y0144980D01*
X0027826Y0144887D01*
X0027701Y0144798D01*
X0027574Y0144711D01*
X0027445Y0144629D01*
X0027314Y0144549D01*
X0027181Y0144473D01*
X0027046Y0144400D01*
X0026909Y0144331D01*
X0026770Y0144266D01*
X0026630Y0144204D01*
X0026488Y0144146D01*
X0026345Y0144091D01*
X0026200Y0144040D01*
X0026054Y0143993D01*
X0025907Y0143950D01*
X0025759Y0143911D01*
X0025610Y0143875D01*
X0025460Y0143844D01*
X0025309Y0143816D01*
X0025158Y0143792D01*
X0025005Y0143772D01*
X0024853Y0143756D01*
X0024700Y0143744D01*
X0024547Y0143736D01*
X0024394Y0143732D01*
X0024240Y0143732D01*
X0024087Y0143736D01*
X0023934Y0143744D01*
X0023781Y0143756D01*
X0023629Y0143772D01*
X0023476Y0143792D01*
X0023325Y0143816D01*
X0023174Y0143844D01*
X0023024Y0143875D01*
X0022875Y0143911D01*
X0022727Y0143950D01*
X0022580Y0143993D01*
X0022434Y0144040D01*
X0022289Y0144091D01*
X0022146Y0144146D01*
X0022004Y0144204D01*
X0021864Y0144266D01*
X0021725Y0144331D01*
X0021588Y0144400D01*
X0021453Y0144473D01*
X0021320Y0144549D01*
X0021189Y0144629D01*
X0021060Y0144711D01*
X0020933Y0144798D01*
X0020808Y0144887D01*
X0020686Y0144980D01*
X0020567Y0145076D01*
X0020449Y0145175D01*
X0020335Y0145276D01*
X0020223Y0145381D01*
X0020114Y0145489D01*
X0020008Y0145600D01*
X0019904Y0145713D01*
X0019804Y0145829D01*
X0019706Y0145947D01*
X0019612Y0146068D01*
X0019521Y0146191D01*
X0019433Y0146317D01*
X0019349Y0146445D01*
X0019267Y0146575D01*
X0019190Y0146707D01*
X0019115Y0146841D01*
X0019044Y0146977D01*
X0018977Y0147115D01*
X0018913Y0147255D01*
X0018853Y0147396D01*
X0018797Y0147538D01*
X0018744Y0147682D01*
X0018695Y0147828D01*
X0018650Y0147974D01*
X0018609Y0148122D01*
X0018572Y0148270D01*
X0018538Y0148420D01*
X0018508Y0148571D01*
X0018483Y0148722D01*
X0018461Y0148873D01*
X0018443Y0149026D01*
X0018429Y0149178D01*
X0018419Y0149331D01*
X0018413Y0149485D01*
X0018411Y0149638D01*
X0008569Y0156528D02*
X0008575Y0157004D01*
X0008592Y0157479D01*
X0008621Y0157954D01*
X0008661Y0158428D01*
X0008713Y0158901D01*
X0008776Y0159372D01*
X0008850Y0159842D01*
X0008936Y0160310D01*
X0009033Y0160776D01*
X0009141Y0161239D01*
X0009260Y0161699D01*
X0009391Y0162157D01*
X0009532Y0162611D01*
X0009685Y0163062D01*
X0009848Y0163508D01*
X0010022Y0163951D01*
X0010207Y0164389D01*
X0010402Y0164823D01*
X0010608Y0165252D01*
X0010824Y0165676D01*
X0011050Y0166095D01*
X0011286Y0166508D01*
X0011532Y0166915D01*
X0011788Y0167316D01*
X0012054Y0167710D01*
X0012329Y0168099D01*
X0012613Y0168480D01*
X0012906Y0168854D01*
X0013208Y0169222D01*
X0013520Y0169582D01*
X0013839Y0169934D01*
X0014167Y0170278D01*
X0014504Y0170615D01*
X0014848Y0170943D01*
X0015200Y0171262D01*
X0015560Y0171574D01*
X0015928Y0171876D01*
X0016302Y0172169D01*
X0016683Y0172453D01*
X0017072Y0172728D01*
X0017466Y0172994D01*
X0017867Y0173250D01*
X0018274Y0173496D01*
X0018687Y0173732D01*
X0019106Y0173958D01*
X0019530Y0174174D01*
X0019959Y0174380D01*
X0020393Y0174575D01*
X0020831Y0174760D01*
X0021274Y0174934D01*
X0021720Y0175097D01*
X0022171Y0175250D01*
X0022625Y0175391D01*
X0023083Y0175522D01*
X0023543Y0175641D01*
X0024006Y0175749D01*
X0024472Y0175846D01*
X0024940Y0175932D01*
X0025410Y0176006D01*
X0025881Y0176069D01*
X0026354Y0176121D01*
X0026828Y0176161D01*
X0027303Y0176190D01*
X0027778Y0176207D01*
X0028254Y0176213D01*
X0335746Y0176213D01*
X0336222Y0176207D01*
X0336697Y0176190D01*
X0337172Y0176161D01*
X0337646Y0176121D01*
X0338119Y0176069D01*
X0338590Y0176006D01*
X0339060Y0175932D01*
X0339528Y0175846D01*
X0339994Y0175749D01*
X0340457Y0175641D01*
X0340917Y0175522D01*
X0341375Y0175391D01*
X0341829Y0175250D01*
X0342280Y0175097D01*
X0342726Y0174934D01*
X0343169Y0174760D01*
X0343607Y0174575D01*
X0344041Y0174380D01*
X0344470Y0174174D01*
X0344894Y0173958D01*
X0345313Y0173732D01*
X0345726Y0173496D01*
X0346133Y0173250D01*
X0346534Y0172994D01*
X0346928Y0172728D01*
X0347317Y0172453D01*
X0347698Y0172169D01*
X0348072Y0171876D01*
X0348440Y0171574D01*
X0348800Y0171262D01*
X0349152Y0170943D01*
X0349496Y0170615D01*
X0349833Y0170278D01*
X0350161Y0169934D01*
X0350480Y0169582D01*
X0350792Y0169222D01*
X0351094Y0168854D01*
X0351387Y0168480D01*
X0351671Y0168099D01*
X0351946Y0167710D01*
X0352212Y0167316D01*
X0352468Y0166915D01*
X0352714Y0166508D01*
X0352950Y0166095D01*
X0353176Y0165676D01*
X0353392Y0165252D01*
X0353598Y0164823D01*
X0353793Y0164389D01*
X0353978Y0163951D01*
X0354152Y0163508D01*
X0354315Y0163062D01*
X0354468Y0162611D01*
X0354609Y0162157D01*
X0354740Y0161699D01*
X0354859Y0161239D01*
X0354967Y0160776D01*
X0355064Y0160310D01*
X0355150Y0159842D01*
X0355224Y0159372D01*
X0355287Y0158901D01*
X0355339Y0158428D01*
X0355379Y0157954D01*
X0355408Y0157479D01*
X0355425Y0157004D01*
X0355431Y0156528D01*
X0355431Y0128969D01*
X0225307Y0128969D01*
X0225307Y0128968D02*
X0224831Y0128962D01*
X0224356Y0128945D01*
X0223881Y0128916D01*
X0223407Y0128876D01*
X0222934Y0128824D01*
X0222463Y0128761D01*
X0221993Y0128687D01*
X0221525Y0128601D01*
X0221059Y0128504D01*
X0220596Y0128396D01*
X0220136Y0128277D01*
X0219678Y0128146D01*
X0219224Y0128005D01*
X0218773Y0127852D01*
X0218327Y0127689D01*
X0217884Y0127515D01*
X0217446Y0127330D01*
X0217012Y0127135D01*
X0216583Y0126929D01*
X0216159Y0126713D01*
X0215740Y0126487D01*
X0215327Y0126251D01*
X0214920Y0126005D01*
X0214519Y0125749D01*
X0214125Y0125483D01*
X0213736Y0125208D01*
X0213355Y0124924D01*
X0212981Y0124631D01*
X0212613Y0124329D01*
X0212253Y0124017D01*
X0211901Y0123698D01*
X0211557Y0123370D01*
X0211220Y0123033D01*
X0210892Y0122689D01*
X0210573Y0122337D01*
X0210261Y0121977D01*
X0209959Y0121609D01*
X0209666Y0121235D01*
X0209382Y0120854D01*
X0209107Y0120465D01*
X0208841Y0120071D01*
X0208585Y0119670D01*
X0208339Y0119263D01*
X0208103Y0118850D01*
X0207877Y0118431D01*
X0207661Y0118007D01*
X0207455Y0117578D01*
X0207260Y0117144D01*
X0207075Y0116706D01*
X0206901Y0116263D01*
X0206738Y0115817D01*
X0206585Y0115366D01*
X0206444Y0114912D01*
X0206313Y0114454D01*
X0206194Y0113994D01*
X0206086Y0113531D01*
X0205989Y0113065D01*
X0205903Y0112597D01*
X0205829Y0112127D01*
X0205766Y0111656D01*
X0205714Y0111183D01*
X0205674Y0110709D01*
X0205645Y0110234D01*
X0205628Y0109759D01*
X0205622Y0109283D01*
X0205622Y0010858D01*
X0158378Y0010858D01*
X0176094Y0034480D02*
X0176096Y0034633D01*
X0176102Y0034787D01*
X0176112Y0034940D01*
X0176126Y0035092D01*
X0176144Y0035245D01*
X0176166Y0035396D01*
X0176191Y0035547D01*
X0176221Y0035698D01*
X0176255Y0035848D01*
X0176292Y0035996D01*
X0176333Y0036144D01*
X0176378Y0036290D01*
X0176427Y0036436D01*
X0176480Y0036580D01*
X0176536Y0036722D01*
X0176596Y0036863D01*
X0176660Y0037003D01*
X0176727Y0037141D01*
X0176798Y0037277D01*
X0176873Y0037411D01*
X0176950Y0037543D01*
X0177032Y0037673D01*
X0177116Y0037801D01*
X0177204Y0037927D01*
X0177295Y0038050D01*
X0177389Y0038171D01*
X0177487Y0038289D01*
X0177587Y0038405D01*
X0177691Y0038518D01*
X0177797Y0038629D01*
X0177906Y0038737D01*
X0178018Y0038842D01*
X0178132Y0038943D01*
X0178250Y0039042D01*
X0178369Y0039138D01*
X0178491Y0039231D01*
X0178616Y0039320D01*
X0178743Y0039407D01*
X0178872Y0039489D01*
X0179003Y0039569D01*
X0179136Y0039645D01*
X0179271Y0039718D01*
X0179408Y0039787D01*
X0179547Y0039852D01*
X0179687Y0039914D01*
X0179829Y0039972D01*
X0179972Y0040027D01*
X0180117Y0040078D01*
X0180263Y0040125D01*
X0180410Y0040168D01*
X0180558Y0040207D01*
X0180707Y0040243D01*
X0180857Y0040274D01*
X0181008Y0040302D01*
X0181159Y0040326D01*
X0181312Y0040346D01*
X0181464Y0040362D01*
X0181617Y0040374D01*
X0181770Y0040382D01*
X0181923Y0040386D01*
X0182077Y0040386D01*
X0182230Y0040382D01*
X0182383Y0040374D01*
X0182536Y0040362D01*
X0182688Y0040346D01*
X0182841Y0040326D01*
X0182992Y0040302D01*
X0183143Y0040274D01*
X0183293Y0040243D01*
X0183442Y0040207D01*
X0183590Y0040168D01*
X0183737Y0040125D01*
X0183883Y0040078D01*
X0184028Y0040027D01*
X0184171Y0039972D01*
X0184313Y0039914D01*
X0184453Y0039852D01*
X0184592Y0039787D01*
X0184729Y0039718D01*
X0184864Y0039645D01*
X0184997Y0039569D01*
X0185128Y0039489D01*
X0185257Y0039407D01*
X0185384Y0039320D01*
X0185509Y0039231D01*
X0185631Y0039138D01*
X0185750Y0039042D01*
X0185868Y0038943D01*
X0185982Y0038842D01*
X0186094Y0038737D01*
X0186203Y0038629D01*
X0186309Y0038518D01*
X0186413Y0038405D01*
X0186513Y0038289D01*
X0186611Y0038171D01*
X0186705Y0038050D01*
X0186796Y0037927D01*
X0186884Y0037801D01*
X0186968Y0037673D01*
X0187050Y0037543D01*
X0187127Y0037411D01*
X0187202Y0037277D01*
X0187273Y0037141D01*
X0187340Y0037003D01*
X0187404Y0036863D01*
X0187464Y0036722D01*
X0187520Y0036580D01*
X0187573Y0036436D01*
X0187622Y0036290D01*
X0187667Y0036144D01*
X0187708Y0035996D01*
X0187745Y0035848D01*
X0187779Y0035698D01*
X0187809Y0035547D01*
X0187834Y0035396D01*
X0187856Y0035245D01*
X0187874Y0035092D01*
X0187888Y0034940D01*
X0187898Y0034787D01*
X0187904Y0034633D01*
X0187906Y0034480D01*
X0187904Y0034327D01*
X0187898Y0034173D01*
X0187888Y0034020D01*
X0187874Y0033868D01*
X0187856Y0033715D01*
X0187834Y0033564D01*
X0187809Y0033413D01*
X0187779Y0033262D01*
X0187745Y0033112D01*
X0187708Y0032964D01*
X0187667Y0032816D01*
X0187622Y0032670D01*
X0187573Y0032524D01*
X0187520Y0032380D01*
X0187464Y0032238D01*
X0187404Y0032097D01*
X0187340Y0031957D01*
X0187273Y0031819D01*
X0187202Y0031683D01*
X0187127Y0031549D01*
X0187050Y0031417D01*
X0186968Y0031287D01*
X0186884Y0031159D01*
X0186796Y0031033D01*
X0186705Y0030910D01*
X0186611Y0030789D01*
X0186513Y0030671D01*
X0186413Y0030555D01*
X0186309Y0030442D01*
X0186203Y0030331D01*
X0186094Y0030223D01*
X0185982Y0030118D01*
X0185868Y0030017D01*
X0185750Y0029918D01*
X0185631Y0029822D01*
X0185509Y0029729D01*
X0185384Y0029640D01*
X0185257Y0029553D01*
X0185128Y0029471D01*
X0184997Y0029391D01*
X0184864Y0029315D01*
X0184729Y0029242D01*
X0184592Y0029173D01*
X0184453Y0029108D01*
X0184313Y0029046D01*
X0184171Y0028988D01*
X0184028Y0028933D01*
X0183883Y0028882D01*
X0183737Y0028835D01*
X0183590Y0028792D01*
X0183442Y0028753D01*
X0183293Y0028717D01*
X0183143Y0028686D01*
X0182992Y0028658D01*
X0182841Y0028634D01*
X0182688Y0028614D01*
X0182536Y0028598D01*
X0182383Y0028586D01*
X0182230Y0028578D01*
X0182077Y0028574D01*
X0181923Y0028574D01*
X0181770Y0028578D01*
X0181617Y0028586D01*
X0181464Y0028598D01*
X0181312Y0028614D01*
X0181159Y0028634D01*
X0181008Y0028658D01*
X0180857Y0028686D01*
X0180707Y0028717D01*
X0180558Y0028753D01*
X0180410Y0028792D01*
X0180263Y0028835D01*
X0180117Y0028882D01*
X0179972Y0028933D01*
X0179829Y0028988D01*
X0179687Y0029046D01*
X0179547Y0029108D01*
X0179408Y0029173D01*
X0179271Y0029242D01*
X0179136Y0029315D01*
X0179003Y0029391D01*
X0178872Y0029471D01*
X0178743Y0029553D01*
X0178616Y0029640D01*
X0178491Y0029729D01*
X0178369Y0029822D01*
X0178250Y0029918D01*
X0178132Y0030017D01*
X0178018Y0030118D01*
X0177906Y0030223D01*
X0177797Y0030331D01*
X0177691Y0030442D01*
X0177587Y0030555D01*
X0177487Y0030671D01*
X0177389Y0030789D01*
X0177295Y0030910D01*
X0177204Y0031033D01*
X0177116Y0031159D01*
X0177032Y0031287D01*
X0176950Y0031417D01*
X0176873Y0031549D01*
X0176798Y0031683D01*
X0176727Y0031819D01*
X0176660Y0031957D01*
X0176596Y0032097D01*
X0176536Y0032238D01*
X0176480Y0032380D01*
X0176427Y0032524D01*
X0176378Y0032670D01*
X0176333Y0032816D01*
X0176292Y0032964D01*
X0176255Y0033112D01*
X0176221Y0033262D01*
X0176191Y0033413D01*
X0176166Y0033564D01*
X0176144Y0033715D01*
X0176126Y0033868D01*
X0176112Y0034020D01*
X0176102Y0034173D01*
X0176096Y0034327D01*
X0176094Y0034480D01*
X0333777Y0149638D02*
X0333779Y0149791D01*
X0333785Y0149945D01*
X0333795Y0150098D01*
X0333809Y0150250D01*
X0333827Y0150403D01*
X0333849Y0150554D01*
X0333874Y0150705D01*
X0333904Y0150856D01*
X0333938Y0151006D01*
X0333975Y0151154D01*
X0334016Y0151302D01*
X0334061Y0151448D01*
X0334110Y0151594D01*
X0334163Y0151738D01*
X0334219Y0151880D01*
X0334279Y0152021D01*
X0334343Y0152161D01*
X0334410Y0152299D01*
X0334481Y0152435D01*
X0334556Y0152569D01*
X0334633Y0152701D01*
X0334715Y0152831D01*
X0334799Y0152959D01*
X0334887Y0153085D01*
X0334978Y0153208D01*
X0335072Y0153329D01*
X0335170Y0153447D01*
X0335270Y0153563D01*
X0335374Y0153676D01*
X0335480Y0153787D01*
X0335589Y0153895D01*
X0335701Y0154000D01*
X0335815Y0154101D01*
X0335933Y0154200D01*
X0336052Y0154296D01*
X0336174Y0154389D01*
X0336299Y0154478D01*
X0336426Y0154565D01*
X0336555Y0154647D01*
X0336686Y0154727D01*
X0336819Y0154803D01*
X0336954Y0154876D01*
X0337091Y0154945D01*
X0337230Y0155010D01*
X0337370Y0155072D01*
X0337512Y0155130D01*
X0337655Y0155185D01*
X0337800Y0155236D01*
X0337946Y0155283D01*
X0338093Y0155326D01*
X0338241Y0155365D01*
X0338390Y0155401D01*
X0338540Y0155432D01*
X0338691Y0155460D01*
X0338842Y0155484D01*
X0338995Y0155504D01*
X0339147Y0155520D01*
X0339300Y0155532D01*
X0339453Y0155540D01*
X0339606Y0155544D01*
X0339760Y0155544D01*
X0339913Y0155540D01*
X0340066Y0155532D01*
X0340219Y0155520D01*
X0340371Y0155504D01*
X0340524Y0155484D01*
X0340675Y0155460D01*
X0340826Y0155432D01*
X0340976Y0155401D01*
X0341125Y0155365D01*
X0341273Y0155326D01*
X0341420Y0155283D01*
X0341566Y0155236D01*
X0341711Y0155185D01*
X0341854Y0155130D01*
X0341996Y0155072D01*
X0342136Y0155010D01*
X0342275Y0154945D01*
X0342412Y0154876D01*
X0342547Y0154803D01*
X0342680Y0154727D01*
X0342811Y0154647D01*
X0342940Y0154565D01*
X0343067Y0154478D01*
X0343192Y0154389D01*
X0343314Y0154296D01*
X0343433Y0154200D01*
X0343551Y0154101D01*
X0343665Y0154000D01*
X0343777Y0153895D01*
X0343886Y0153787D01*
X0343992Y0153676D01*
X0344096Y0153563D01*
X0344196Y0153447D01*
X0344294Y0153329D01*
X0344388Y0153208D01*
X0344479Y0153085D01*
X0344567Y0152959D01*
X0344651Y0152831D01*
X0344733Y0152701D01*
X0344810Y0152569D01*
X0344885Y0152435D01*
X0344956Y0152299D01*
X0345023Y0152161D01*
X0345087Y0152021D01*
X0345147Y0151880D01*
X0345203Y0151738D01*
X0345256Y0151594D01*
X0345305Y0151448D01*
X0345350Y0151302D01*
X0345391Y0151154D01*
X0345428Y0151006D01*
X0345462Y0150856D01*
X0345492Y0150705D01*
X0345517Y0150554D01*
X0345539Y0150403D01*
X0345557Y0150250D01*
X0345571Y0150098D01*
X0345581Y0149945D01*
X0345587Y0149791D01*
X0345589Y0149638D01*
X0345587Y0149485D01*
X0345581Y0149331D01*
X0345571Y0149178D01*
X0345557Y0149026D01*
X0345539Y0148873D01*
X0345517Y0148722D01*
X0345492Y0148571D01*
X0345462Y0148420D01*
X0345428Y0148270D01*
X0345391Y0148122D01*
X0345350Y0147974D01*
X0345305Y0147828D01*
X0345256Y0147682D01*
X0345203Y0147538D01*
X0345147Y0147396D01*
X0345087Y0147255D01*
X0345023Y0147115D01*
X0344956Y0146977D01*
X0344885Y0146841D01*
X0344810Y0146707D01*
X0344733Y0146575D01*
X0344651Y0146445D01*
X0344567Y0146317D01*
X0344479Y0146191D01*
X0344388Y0146068D01*
X0344294Y0145947D01*
X0344196Y0145829D01*
X0344096Y0145713D01*
X0343992Y0145600D01*
X0343886Y0145489D01*
X0343777Y0145381D01*
X0343665Y0145276D01*
X0343551Y0145175D01*
X0343433Y0145076D01*
X0343314Y0144980D01*
X0343192Y0144887D01*
X0343067Y0144798D01*
X0342940Y0144711D01*
X0342811Y0144629D01*
X0342680Y0144549D01*
X0342547Y0144473D01*
X0342412Y0144400D01*
X0342275Y0144331D01*
X0342136Y0144266D01*
X0341996Y0144204D01*
X0341854Y0144146D01*
X0341711Y0144091D01*
X0341566Y0144040D01*
X0341420Y0143993D01*
X0341273Y0143950D01*
X0341125Y0143911D01*
X0340976Y0143875D01*
X0340826Y0143844D01*
X0340675Y0143816D01*
X0340524Y0143792D01*
X0340371Y0143772D01*
X0340219Y0143756D01*
X0340066Y0143744D01*
X0339913Y0143736D01*
X0339760Y0143732D01*
X0339606Y0143732D01*
X0339453Y0143736D01*
X0339300Y0143744D01*
X0339147Y0143756D01*
X0338995Y0143772D01*
X0338842Y0143792D01*
X0338691Y0143816D01*
X0338540Y0143844D01*
X0338390Y0143875D01*
X0338241Y0143911D01*
X0338093Y0143950D01*
X0337946Y0143993D01*
X0337800Y0144040D01*
X0337655Y0144091D01*
X0337512Y0144146D01*
X0337370Y0144204D01*
X0337230Y0144266D01*
X0337091Y0144331D01*
X0336954Y0144400D01*
X0336819Y0144473D01*
X0336686Y0144549D01*
X0336555Y0144629D01*
X0336426Y0144711D01*
X0336299Y0144798D01*
X0336174Y0144887D01*
X0336052Y0144980D01*
X0335933Y0145076D01*
X0335815Y0145175D01*
X0335701Y0145276D01*
X0335589Y0145381D01*
X0335480Y0145489D01*
X0335374Y0145600D01*
X0335270Y0145713D01*
X0335170Y0145829D01*
X0335072Y0145947D01*
X0334978Y0146068D01*
X0334887Y0146191D01*
X0334799Y0146317D01*
X0334715Y0146445D01*
X0334633Y0146575D01*
X0334556Y0146707D01*
X0334481Y0146841D01*
X0334410Y0146977D01*
X0334343Y0147115D01*
X0334279Y0147255D01*
X0334219Y0147396D01*
X0334163Y0147538D01*
X0334110Y0147682D01*
X0334061Y0147828D01*
X0334016Y0147974D01*
X0333975Y0148122D01*
X0333938Y0148270D01*
X0333904Y0148420D01*
X0333874Y0148571D01*
X0333849Y0148722D01*
X0333827Y0148873D01*
X0333809Y0149026D01*
X0333795Y0149178D01*
X0333785Y0149331D01*
X0333779Y0149485D01*
X0333777Y0149638D01*
D11*
X0300346Y0137000D03*
X0293654Y0137000D03*
X0195346Y0137000D03*
X0188654Y0137000D03*
X0175346Y0137000D03*
X0168654Y0137000D03*
X0085346Y0137000D03*
X0078654Y0137000D03*
D12*
X0077000Y0147000D03*
X0086000Y0148000D03*
X0078000Y0156000D03*
X0107000Y0167000D03*
X0122000Y0167000D03*
X0137000Y0167000D03*
X0152000Y0167000D03*
X0188000Y0156000D03*
X0196000Y0148000D03*
X0187000Y0147000D03*
X0212000Y0137000D03*
X0222000Y0137000D03*
X0232000Y0137000D03*
X0242000Y0137000D03*
X0252000Y0137000D03*
X0262000Y0137000D03*
X0297000Y0147000D03*
X0306000Y0148000D03*
X0298000Y0156000D03*
X0322000Y0167000D03*
X0322000Y0137000D03*
X0262000Y0167000D03*
X0252000Y0167000D03*
X0242000Y0167000D03*
X0232000Y0167000D03*
X0222000Y0167000D03*
X0212000Y0167000D03*
X0152000Y0137000D03*
X0137000Y0137000D03*
X0122000Y0137000D03*
X0107000Y0137000D03*
X0196000Y0066000D03*
X0197000Y0057000D03*
X0188000Y0058000D03*
X0197000Y0047000D03*
X0167000Y0047000D03*
D13*
X0192000Y0097000D03*
D14*
X0182000Y0097000D03*
X0172000Y0097000D03*
X0172000Y0087000D03*
X0182000Y0087000D03*
X0192000Y0087000D03*
D15*
X0172000Y0067000D03*
X0172000Y0057000D03*
X0172000Y0147000D03*
X0172000Y0157000D03*
X0067000Y0152000D03*
X0057000Y0152000D03*
X0277000Y0152000D03*
X0287000Y0152000D03*
D16*
X0191449Y0115937D03*
X0191449Y0113969D03*
X0191449Y0112000D03*
X0191449Y0110031D03*
X0191449Y0108063D03*
X0172551Y0108063D03*
X0172551Y0110031D03*
X0172551Y0112000D03*
X0172551Y0113969D03*
X0172551Y0115937D03*
D17*
X0179717Y0127000D03*
X0184283Y0127000D03*
D18*
X0182000Y0132000D03*
X0196178Y0132000D03*
X0202000Y0132000D03*
X0205833Y0125362D03*
X0194119Y0119892D03*
X0181552Y0122021D03*
X0166100Y0131400D03*
X0201047Y0145015D03*
X0202500Y0154200D03*
X0182000Y0157000D03*
X0142000Y0152000D03*
X0197108Y0110100D03*
X0188700Y0103500D03*
X0197797Y0101515D03*
X0170400Y0104300D03*
X0183000Y0077000D03*
X0247800Y0145400D03*
X0262200Y0145400D03*
X0236500Y0154611D03*
D19*
X0236089Y0154200D01*
X0202500Y0154200D01*
X0209900Y0147000D02*
X0235661Y0147000D01*
X0240661Y0142000D01*
X0257000Y0142000D01*
X0262000Y0137000D01*
X0222000Y0137000D02*
X0217937Y0132937D01*
X0215056Y0132937D01*
X0210819Y0128700D01*
X0192600Y0128700D01*
X0192300Y0128400D01*
X0182000Y0117000D01*
X0182000Y0097000D01*
X0184400Y0102000D02*
X0187400Y0099000D01*
X0187400Y0092400D01*
X0182000Y0087000D01*
X0192000Y0087000D02*
X0200937Y0095937D01*
X0200937Y0115937D01*
X0195300Y0115937D01*
X0194119Y0117118D01*
X0194119Y0119892D01*
X0195300Y0115937D02*
X0191449Y0115937D01*
X0191449Y0113969D02*
X0186569Y0113969D01*
X0186569Y0118269D01*
X0192862Y0125362D01*
X0205833Y0125362D01*
X0202000Y0132000D02*
X0202000Y0134500D01*
X0206000Y0138500D01*
X0206000Y0143100D01*
X0209900Y0147000D01*
X0201100Y0144963D02*
X0201047Y0145015D01*
X0201100Y0144963D02*
X0201100Y0139000D01*
X0195346Y0137000D02*
X0195346Y0132831D01*
X0196178Y0132000D01*
X0188500Y0130000D02*
X0188500Y0136846D01*
X0188654Y0137000D01*
X0182000Y0137000D02*
X0167000Y0122000D01*
X0167000Y0117000D01*
X0170031Y0113969D01*
X0172551Y0113969D01*
X0176531Y0113969D01*
X0178700Y0111800D01*
X0178700Y0103700D01*
X0172000Y0097000D01*
X0170400Y0104300D02*
X0170400Y0105912D01*
X0172551Y0108063D01*
X0172551Y0110031D02*
X0165548Y0110031D01*
X0163580Y0112000D01*
X0167100Y0112900D02*
X0168000Y0112000D01*
X0172551Y0112000D01*
X0172551Y0115937D02*
X0172553Y0116001D01*
X0172559Y0116065D01*
X0172568Y0116129D01*
X0172582Y0116191D01*
X0172599Y0116253D01*
X0172620Y0116314D01*
X0172645Y0116373D01*
X0172673Y0116431D01*
X0172704Y0116487D01*
X0172739Y0116541D01*
X0172777Y0116593D01*
X0172818Y0116642D01*
X0172862Y0116689D01*
X0172909Y0116733D01*
X0172958Y0116774D01*
X0173010Y0116812D01*
X0173064Y0116847D01*
X0173120Y0116878D01*
X0173178Y0116906D01*
X0173237Y0116931D01*
X0173298Y0116952D01*
X0173360Y0116969D01*
X0173422Y0116983D01*
X0173486Y0116992D01*
X0173550Y0116998D01*
X0173614Y0117000D01*
X0182000Y0117000D01*
X0186569Y0113969D02*
X0184400Y0111800D01*
X0184400Y0102000D01*
X0188700Y0103500D02*
X0188700Y0104801D01*
X0187038Y0106463D01*
X0187038Y0111503D01*
X0187535Y0112000D01*
X0191449Y0112000D01*
X0191449Y0110031D02*
X0197040Y0110031D01*
X0197108Y0110100D01*
X0194165Y0107770D02*
X0194165Y0102805D01*
X0195455Y0101515D01*
X0197797Y0101515D01*
X0194165Y0107770D02*
X0193873Y0108063D01*
X0191449Y0108063D01*
X0179717Y0127000D02*
X0179717Y0129717D01*
X0182000Y0132000D01*
X0182000Y0137000D02*
X0182000Y0157000D01*
X0172800Y0163300D02*
X0179900Y0170400D01*
X0208600Y0170400D01*
X0212000Y0167000D01*
X0177000Y0142000D02*
X0162000Y0142000D01*
X0152000Y0152000D01*
X0142000Y0152000D01*
X0152000Y0147000D02*
X0117000Y0147000D01*
X0107000Y0137000D01*
X0152000Y0147000D02*
X0157000Y0142000D01*
X0157000Y0137000D01*
X0162600Y0131400D01*
X0166100Y0131400D01*
D20*
X0167000Y0127000D02*
X0162000Y0127000D01*
X0156296Y0127000D01*
X0153775Y0129116D01*
X0152000Y0130891D01*
X0152000Y0137000D01*
X0162000Y0127000D02*
X0162000Y0119334D01*
X0163580Y0117754D01*
X0163580Y0112000D01*
X0163580Y0082000D01*
X0168580Y0077000D01*
X0183000Y0077000D01*
X0181552Y0122021D02*
X0179717Y0123856D01*
X0179717Y0127000D01*
X0175346Y0135346D02*
X0167000Y0127000D01*
X0175346Y0135346D02*
X0175346Y0137000D01*
X0195346Y0137000D02*
X0196000Y0137654D01*
X0196000Y0148000D01*
X0198289Y0150289D01*
X0261439Y0150289D01*
X0272000Y0160850D01*
X0307900Y0160850D01*
X0322000Y0146750D01*
X0322000Y0137000D01*
X0306000Y0142654D02*
X0300346Y0137000D01*
X0300333Y0137000D01*
X0306000Y0142654D02*
X0306000Y0148000D01*
X0262200Y0145400D02*
X0247800Y0145400D01*
X0232000Y0157000D02*
X0242000Y0167000D01*
X0232000Y0157000D02*
X0212000Y0157000D01*
X0202000Y0167000D01*
X0182000Y0167000D01*
X0172000Y0157000D01*
X0137000Y0167000D02*
X0122000Y0152000D01*
X0112000Y0152000D01*
X0102000Y0162000D01*
X0067000Y0162000D01*
X0057000Y0152000D01*
X0085346Y0147346D02*
X0085346Y0137000D01*
X0107000Y0137000D01*
X0086000Y0148000D02*
X0085346Y0147346D01*
D21*
X0082346Y0145148D02*
X0082346Y0140679D01*
X0082141Y0140474D01*
X0082047Y0140569D01*
X0081591Y0140832D01*
X0081082Y0140968D01*
X0078654Y0140968D01*
X0078654Y0137000D01*
X0078654Y0133031D01*
X0081082Y0133031D01*
X0081591Y0133168D01*
X0082047Y0133431D01*
X0082141Y0133526D01*
X0082436Y0133231D01*
X0088257Y0133231D01*
X0089026Y0134000D01*
X0103495Y0134000D01*
X0105095Y0132400D01*
X0108905Y0132400D01*
X0111600Y0135095D01*
X0111600Y0138347D01*
X0117953Y0144700D01*
X0151047Y0144700D01*
X0154700Y0141047D01*
X0154700Y0140805D01*
X0153905Y0141600D01*
X0150095Y0141600D01*
X0147400Y0138905D01*
X0147400Y0135095D01*
X0149000Y0133495D01*
X0149000Y0130294D01*
X0149457Y0129191D01*
X0151327Y0127321D01*
X0151390Y0127201D01*
X0151746Y0126902D01*
X0152076Y0126572D01*
X0152201Y0126521D01*
X0154268Y0124786D01*
X0154597Y0124457D01*
X0154722Y0124405D01*
X0154825Y0124318D01*
X0155269Y0124178D01*
X0155700Y0124000D01*
X0155835Y0124000D01*
X0155963Y0123959D01*
X0156427Y0124000D01*
X0159000Y0124000D01*
X0159000Y0118737D01*
X0159457Y0117635D01*
X0160580Y0116511D01*
X0160580Y0081403D01*
X0161037Y0080301D01*
X0161881Y0079457D01*
X0166881Y0074457D01*
X0167983Y0074000D01*
X0181126Y0074000D01*
X0182306Y0073511D01*
X0183694Y0073511D01*
X0184976Y0074042D01*
X0185958Y0075024D01*
X0186489Y0076306D01*
X0186489Y0077694D01*
X0185958Y0078976D01*
X0184976Y0079958D01*
X0183694Y0080489D01*
X0182306Y0080489D01*
X0181126Y0080000D01*
X0169823Y0080000D01*
X0166580Y0083243D01*
X0166580Y0107731D01*
X0168743Y0107731D01*
X0168743Y0107508D01*
X0168543Y0107307D01*
X0168424Y0107258D01*
X0167442Y0106276D01*
X0166911Y0104994D01*
X0166911Y0103606D01*
X0167442Y0102324D01*
X0168424Y0101342D01*
X0169023Y0101094D01*
X0167000Y0099071D01*
X0167000Y0094929D01*
X0169929Y0092000D01*
X0167000Y0089071D01*
X0167000Y0084929D01*
X0169929Y0082000D01*
X0174071Y0082000D01*
X0177000Y0084929D01*
X0177000Y0089071D01*
X0174071Y0092000D01*
X0169929Y0092000D01*
X0174071Y0092000D01*
X0177000Y0094929D01*
X0179929Y0092000D01*
X0177000Y0089071D01*
X0177000Y0084929D01*
X0179929Y0082000D01*
X0184071Y0082000D01*
X0187000Y0084929D01*
X0189929Y0082000D01*
X0194071Y0082000D01*
X0197000Y0084929D01*
X0197000Y0088747D01*
X0203237Y0094984D01*
X0203237Y0116890D01*
X0201890Y0118237D01*
X0197210Y0118237D01*
X0197608Y0119198D01*
X0197608Y0120586D01*
X0197077Y0121868D01*
X0196095Y0122850D01*
X0195583Y0123062D01*
X0203199Y0123062D01*
X0203856Y0122404D01*
X0205139Y0121873D01*
X0206527Y0121873D01*
X0207809Y0122404D01*
X0208791Y0123386D01*
X0209322Y0124668D01*
X0209322Y0126056D01*
X0209179Y0126400D01*
X0211771Y0126400D01*
X0213119Y0127747D01*
X0216008Y0130637D01*
X0218890Y0130637D01*
X0220237Y0131984D01*
X0220237Y0131984D01*
X0220653Y0132400D01*
X0223905Y0132400D01*
X0226600Y0135095D01*
X0226600Y0138905D01*
X0223905Y0141600D01*
X0220095Y0141600D01*
X0217400Y0138905D01*
X0217400Y0135653D01*
X0216984Y0135237D01*
X0216600Y0135237D01*
X0216600Y0138905D01*
X0213905Y0141600D01*
X0210095Y0141600D01*
X0208300Y0139805D01*
X0208300Y0142147D01*
X0210853Y0144700D01*
X0234709Y0144700D01*
X0238952Y0140457D01*
X0237400Y0138905D01*
X0237400Y0135095D01*
X0240095Y0132400D01*
X0243905Y0132400D01*
X0246600Y0135095D01*
X0246600Y0138905D01*
X0245805Y0139700D01*
X0248195Y0139700D01*
X0247400Y0138905D01*
X0247400Y0135095D01*
X0250095Y0132400D01*
X0253905Y0132400D01*
X0256600Y0135095D01*
X0256600Y0138905D01*
X0255805Y0139700D01*
X0256047Y0139700D01*
X0257400Y0138347D01*
X0257400Y0135095D01*
X0260095Y0132400D01*
X0263905Y0132400D01*
X0265705Y0134200D01*
X0282757Y0134200D01*
X0283786Y0134626D01*
X0287360Y0138200D01*
X0289488Y0138200D01*
X0289488Y0137000D01*
X0293653Y0137000D01*
X0289488Y0137000D01*
X0289488Y0134768D01*
X0289624Y0134260D01*
X0289888Y0133803D01*
X0290260Y0133431D01*
X0290716Y0133168D01*
X0291225Y0133031D01*
X0293653Y0133031D01*
X0293653Y0137000D01*
X0293653Y0137000D01*
X0293654Y0137000D01*
X0293654Y0133031D01*
X0296082Y0133031D01*
X0296591Y0133168D01*
X0297047Y0133431D01*
X0297141Y0133526D01*
X0297436Y0133231D01*
X0303257Y0133231D01*
X0304312Y0134286D01*
X0304312Y0136723D01*
X0308543Y0140954D01*
X0309000Y0142057D01*
X0309000Y0144495D01*
X0310600Y0146095D01*
X0310600Y0149905D01*
X0307905Y0152600D01*
X0304095Y0152600D01*
X0301400Y0149905D01*
X0301400Y0149105D01*
X0299105Y0151400D01*
X0299905Y0151400D01*
X0302600Y0154095D01*
X0302600Y0157850D01*
X0306657Y0157850D01*
X0319000Y0145507D01*
X0319000Y0140505D01*
X0317400Y0138905D01*
X0317400Y0135095D01*
X0320095Y0132400D01*
X0323905Y0132400D01*
X0326600Y0135095D01*
X0326600Y0138905D01*
X0325000Y0140505D01*
X0325000Y0147347D01*
X0324543Y0148449D01*
X0309599Y0163393D01*
X0308497Y0163850D01*
X0271403Y0163850D01*
X0270301Y0163393D01*
X0269457Y0162549D01*
X0260196Y0153289D01*
X0239729Y0153289D01*
X0239989Y0153917D01*
X0239989Y0155305D01*
X0239458Y0156587D01*
X0238476Y0157569D01*
X0237299Y0158056D01*
X0241643Y0162400D01*
X0243905Y0162400D01*
X0246600Y0165095D01*
X0246600Y0168905D01*
X0243905Y0171600D01*
X0240095Y0171600D01*
X0237400Y0168905D01*
X0237400Y0166643D01*
X0236600Y0165843D01*
X0236600Y0168905D01*
X0233905Y0171600D01*
X0230095Y0171600D01*
X0227400Y0168905D01*
X0227400Y0165095D01*
X0230095Y0162400D01*
X0233157Y0162400D01*
X0230757Y0160000D01*
X0213243Y0160000D01*
X0210843Y0162400D01*
X0213905Y0162400D01*
X0216600Y0165095D01*
X0216600Y0168905D01*
X0213905Y0171600D01*
X0210653Y0171600D01*
X0209553Y0172700D01*
X0178947Y0172700D01*
X0177600Y0171353D01*
X0172741Y0166494D01*
X0172165Y0166494D01*
X0170991Y0166007D01*
X0170093Y0165109D01*
X0169606Y0163935D01*
X0169606Y0162665D01*
X0169855Y0162065D01*
X0168884Y0161663D01*
X0167337Y0160115D01*
X0166500Y0158094D01*
X0166500Y0155906D01*
X0167337Y0153884D01*
X0168884Y0152337D01*
X0169456Y0152101D01*
X0169013Y0151875D01*
X0168287Y0151348D01*
X0167652Y0150713D01*
X0167125Y0149987D01*
X0166718Y0149188D01*
X0166440Y0148335D01*
X0166300Y0147449D01*
X0166300Y0147000D01*
X0172000Y0147000D01*
X0177700Y0147000D01*
X0177700Y0147449D01*
X0177560Y0148335D01*
X0177282Y0149188D01*
X0176875Y0149987D01*
X0176348Y0150713D01*
X0175713Y0151348D01*
X0174987Y0151875D01*
X0174544Y0152101D01*
X0175115Y0152337D01*
X0176663Y0153884D01*
X0177500Y0155906D01*
X0177500Y0158094D01*
X0177452Y0158210D01*
X0183243Y0164000D01*
X0200757Y0164000D01*
X0208257Y0156500D01*
X0205134Y0156500D01*
X0204476Y0157158D01*
X0203194Y0157689D01*
X0201806Y0157689D01*
X0200524Y0157158D01*
X0199542Y0156176D01*
X0199011Y0154894D01*
X0199011Y0153506D01*
X0199101Y0153289D01*
X0197692Y0153289D01*
X0196590Y0152832D01*
X0196357Y0152600D01*
X0194095Y0152600D01*
X0191400Y0149905D01*
X0191400Y0149105D01*
X0189105Y0151400D01*
X0189905Y0151400D01*
X0192600Y0154095D01*
X0192600Y0157905D01*
X0189905Y0160600D01*
X0186095Y0160600D01*
X0184714Y0159220D01*
X0183976Y0159958D01*
X0182694Y0160489D01*
X0181306Y0160489D01*
X0180024Y0159958D01*
X0179042Y0158976D01*
X0178511Y0157694D01*
X0178511Y0156306D01*
X0179042Y0155024D01*
X0179700Y0154366D01*
X0179700Y0143817D01*
X0178809Y0144707D01*
X0177635Y0145194D01*
X0177406Y0145194D01*
X0177560Y0145665D01*
X0177700Y0146551D01*
X0177700Y0147000D01*
X0172000Y0147000D01*
X0172000Y0147000D01*
X0172000Y0147000D01*
X0166300Y0147000D01*
X0166300Y0146551D01*
X0166440Y0145665D01*
X0166718Y0144812D01*
X0166978Y0144300D01*
X0162953Y0144300D01*
X0152953Y0154300D01*
X0144634Y0154300D01*
X0143976Y0154958D01*
X0142694Y0155489D01*
X0141306Y0155489D01*
X0140024Y0154958D01*
X0139042Y0153976D01*
X0138511Y0152694D01*
X0138511Y0151306D01*
X0139042Y0150024D01*
X0139766Y0149300D01*
X0123321Y0149300D01*
X0123699Y0149457D01*
X0124543Y0150301D01*
X0136643Y0162400D01*
X0138905Y0162400D01*
X0141600Y0165095D01*
X0141600Y0168905D01*
X0138905Y0171600D01*
X0135095Y0171600D01*
X0132400Y0168905D01*
X0132400Y0166643D01*
X0120757Y0155000D01*
X0113243Y0155000D01*
X0106043Y0162200D01*
X0107000Y0162200D01*
X0108988Y0162200D01*
X0111800Y0165012D01*
X0111800Y0167000D01*
X0111800Y0168988D01*
X0108988Y0171800D01*
X0107000Y0171800D01*
X0107000Y0167000D01*
X0107000Y0167000D01*
X0111800Y0167000D01*
X0107000Y0167000D01*
X0107000Y0167000D01*
X0107000Y0167000D01*
X0102200Y0167000D01*
X0102200Y0168988D01*
X0105012Y0171800D01*
X0107000Y0171800D01*
X0107000Y0167000D01*
X0107000Y0162200D01*
X0107000Y0167000D01*
X0107000Y0167000D01*
X0102200Y0167000D01*
X0102200Y0165012D01*
X0102212Y0165000D01*
X0066403Y0165000D01*
X0065301Y0164543D01*
X0064457Y0163699D01*
X0058210Y0157452D01*
X0058094Y0157500D01*
X0055906Y0157500D01*
X0053884Y0156663D01*
X0052337Y0155115D01*
X0051500Y0153094D01*
X0051500Y0150906D01*
X0052337Y0148884D01*
X0053884Y0147337D01*
X0055906Y0146500D01*
X0058094Y0146500D01*
X0060115Y0147337D01*
X0061663Y0148884D01*
X0061899Y0149456D01*
X0062125Y0149013D01*
X0062652Y0148287D01*
X0063287Y0147652D01*
X0064013Y0147125D01*
X0064812Y0146718D01*
X0065665Y0146440D01*
X0066551Y0146300D01*
X0067000Y0146300D01*
X0067449Y0146300D01*
X0068335Y0146440D01*
X0069188Y0146718D01*
X0069987Y0147125D01*
X0070713Y0147652D01*
X0071348Y0148287D01*
X0071875Y0149013D01*
X0072282Y0149812D01*
X0072560Y0150665D01*
X0072700Y0151551D01*
X0072700Y0152000D01*
X0072700Y0152449D01*
X0072560Y0153335D01*
X0072282Y0154188D01*
X0071875Y0154987D01*
X0071348Y0155713D01*
X0070713Y0156348D01*
X0069987Y0156875D01*
X0069188Y0157282D01*
X0068335Y0157560D01*
X0067449Y0157700D01*
X0067000Y0157700D01*
X0067000Y0152000D01*
X0067000Y0152000D01*
X0072700Y0152000D01*
X0067000Y0152000D01*
X0067000Y0152000D01*
X0067000Y0157700D01*
X0066943Y0157700D01*
X0068243Y0159000D01*
X0074495Y0159000D01*
X0073400Y0157905D01*
X0073400Y0154095D01*
X0075895Y0151600D01*
X0075095Y0151600D01*
X0072400Y0148905D01*
X0072400Y0145095D01*
X0075095Y0142400D01*
X0078905Y0142400D01*
X0081600Y0145095D01*
X0081600Y0145895D01*
X0082346Y0145148D01*
X0082346Y0144801D02*
X0081306Y0144801D01*
X0082346Y0142802D02*
X0079307Y0142802D01*
X0078653Y0140968D02*
X0076225Y0140968D01*
X0075716Y0140832D01*
X0075260Y0140569D01*
X0074888Y0140197D01*
X0074624Y0139740D01*
X0074488Y0139232D01*
X0074488Y0137000D01*
X0078653Y0137000D01*
X0074488Y0137000D01*
X0074488Y0134768D01*
X0074624Y0134260D01*
X0074888Y0133803D01*
X0075260Y0133431D01*
X0075716Y0133168D01*
X0076225Y0133031D01*
X0078653Y0133031D01*
X0078653Y0137000D01*
X0078653Y0137000D01*
X0078654Y0137000D01*
X0078653Y0137000D01*
X0078653Y0140968D01*
X0078653Y0140803D02*
X0078654Y0140803D01*
X0078653Y0138805D02*
X0078654Y0138805D01*
X0078653Y0136806D02*
X0078654Y0136806D01*
X0078653Y0134808D02*
X0078654Y0134808D01*
X0074488Y0134808D02*
X0010371Y0134808D01*
X0010371Y0136806D02*
X0074488Y0136806D01*
X0074488Y0138805D02*
X0010371Y0138805D01*
X0010371Y0140803D02*
X0075666Y0140803D01*
X0074693Y0142802D02*
X0027555Y0142802D01*
X0026699Y0142308D02*
X0029474Y0143910D01*
X0031358Y0146503D01*
X0032025Y0149638D01*
X0031358Y0152773D01*
X0029474Y0155366D01*
X0026699Y0156968D01*
X0026699Y0156968D01*
X0023512Y0157303D01*
X0023512Y0157303D01*
X0020463Y0156313D01*
X0018082Y0154168D01*
X0016778Y0151240D01*
X0016778Y0148035D01*
X0018082Y0145107D01*
X0020463Y0142963D01*
X0020463Y0142963D01*
X0023512Y0141973D01*
X0026699Y0142308D01*
X0029474Y0143910D02*
X0029474Y0143910D01*
X0030121Y0144801D02*
X0072694Y0144801D01*
X0072400Y0146799D02*
X0069348Y0146799D01*
X0067000Y0146799D02*
X0067000Y0146799D01*
X0067000Y0146300D02*
X0067000Y0152000D01*
X0067000Y0152000D01*
X0067000Y0146300D01*
X0064652Y0146799D02*
X0058816Y0146799D01*
X0061576Y0148798D02*
X0062281Y0148798D01*
X0067000Y0148798D02*
X0067000Y0148798D01*
X0067000Y0150796D02*
X0067000Y0150796D01*
X0067000Y0152795D02*
X0067000Y0152795D01*
X0067000Y0154793D02*
X0067000Y0154793D01*
X0067000Y0156792D02*
X0067000Y0156792D01*
X0068033Y0158790D02*
X0074285Y0158790D01*
X0073400Y0156792D02*
X0070102Y0156792D01*
X0071974Y0154793D02*
X0073400Y0154793D01*
X0072645Y0152795D02*
X0074700Y0152795D01*
X0074291Y0150796D02*
X0072580Y0150796D01*
X0072400Y0148798D02*
X0071719Y0148798D01*
X0081641Y0140803D02*
X0082346Y0140803D01*
X0104685Y0132809D02*
X0010371Y0132809D01*
X0010371Y0130811D02*
X0149000Y0130811D01*
X0149000Y0132809D02*
X0139315Y0132809D01*
X0138905Y0132400D02*
X0141600Y0135095D01*
X0141600Y0138905D01*
X0138905Y0141600D01*
X0135095Y0141600D01*
X0132400Y0138905D01*
X0132400Y0135095D01*
X0135095Y0132400D01*
X0138905Y0132400D01*
X0141114Y0130770D02*
X0010371Y0130770D01*
X0010371Y0156528D01*
X0010484Y0158530D01*
X0011375Y0162434D01*
X0013112Y0166042D01*
X0015609Y0169173D01*
X0018740Y0171670D01*
X0022348Y0173407D01*
X0026252Y0174298D01*
X0028254Y0174411D01*
X0335746Y0174411D01*
X0337748Y0174298D01*
X0341652Y0173407D01*
X0345260Y0171670D01*
X0348391Y0169173D01*
X0350888Y0166042D01*
X0352625Y0162434D01*
X0353516Y0158530D01*
X0353629Y0156528D01*
X0353629Y0130770D01*
X0222886Y0130770D01*
X0218165Y0129693D01*
X0213803Y0127592D01*
X0210017Y0124573D01*
X0206998Y0120788D01*
X0206998Y0120788D01*
X0204898Y0116425D01*
X0203820Y0111704D01*
X0203820Y0012660D01*
X0160180Y0012660D01*
X0160180Y0111704D01*
X0159102Y0116425D01*
X0157002Y0120788D01*
X0153983Y0124573D01*
X0153983Y0124573D01*
X0153983Y0124573D01*
X0150197Y0127592D01*
X0145835Y0129693D01*
X0145835Y0129693D01*
X0141114Y0130770D01*
X0141313Y0134808D02*
X0147687Y0134808D01*
X0147400Y0136806D02*
X0141600Y0136806D01*
X0141600Y0138805D02*
X0147400Y0138805D01*
X0149298Y0140803D02*
X0139702Y0140803D01*
X0134298Y0140803D02*
X0124702Y0140803D01*
X0123905Y0141600D02*
X0120095Y0141600D01*
X0117400Y0138905D01*
X0117400Y0135095D01*
X0120095Y0132400D01*
X0123905Y0132400D01*
X0126600Y0135095D01*
X0126600Y0138905D01*
X0123905Y0141600D01*
X0126600Y0138805D02*
X0132400Y0138805D01*
X0132400Y0136806D02*
X0126600Y0136806D01*
X0126313Y0134808D02*
X0132687Y0134808D01*
X0134685Y0132809D02*
X0124315Y0132809D01*
X0119685Y0132809D02*
X0109315Y0132809D01*
X0111313Y0134808D02*
X0117687Y0134808D01*
X0117400Y0136806D02*
X0111600Y0136806D01*
X0112058Y0138805D02*
X0117400Y0138805D01*
X0119298Y0140803D02*
X0114056Y0140803D01*
X0116055Y0142802D02*
X0152945Y0142802D01*
X0159300Y0141447D02*
X0159300Y0137953D01*
X0163509Y0133743D01*
X0164124Y0134358D01*
X0164551Y0134535D01*
X0164488Y0134768D01*
X0164488Y0137000D01*
X0168653Y0137000D01*
X0164488Y0137000D01*
X0164488Y0139232D01*
X0164614Y0139700D01*
X0161047Y0139700D01*
X0159700Y0141047D01*
X0159300Y0141447D01*
X0159300Y0140803D02*
X0159944Y0140803D01*
X0159300Y0138805D02*
X0164488Y0138805D01*
X0164488Y0136806D02*
X0160446Y0136806D01*
X0162445Y0134808D02*
X0164488Y0134808D01*
X0168653Y0137000D02*
X0168653Y0137000D01*
X0166723Y0144801D02*
X0162452Y0144801D01*
X0160454Y0146799D02*
X0166300Y0146799D01*
X0166591Y0148798D02*
X0158455Y0148798D01*
X0156457Y0150796D02*
X0167735Y0150796D01*
X0168427Y0152795D02*
X0154458Y0152795D01*
X0144141Y0154793D02*
X0166961Y0154793D01*
X0166500Y0156792D02*
X0131034Y0156792D01*
X0133033Y0158790D02*
X0166788Y0158790D01*
X0168010Y0160789D02*
X0135031Y0160789D01*
X0139292Y0162787D02*
X0149425Y0162787D01*
X0150012Y0162200D02*
X0147200Y0165012D01*
X0147200Y0167000D01*
X0152000Y0167000D01*
X0152000Y0167000D01*
X0152000Y0171800D01*
X0153988Y0171800D01*
X0156800Y0168988D01*
X0156800Y0167000D01*
X0152000Y0167000D01*
X0152000Y0167000D01*
X0152000Y0167000D01*
X0152000Y0171800D01*
X0150012Y0171800D01*
X0147200Y0168988D01*
X0147200Y0167000D01*
X0152000Y0167000D01*
X0156800Y0167000D01*
X0156800Y0165012D01*
X0153988Y0162200D01*
X0152000Y0162200D01*
X0152000Y0167000D01*
X0152000Y0167000D01*
X0152000Y0162200D01*
X0150012Y0162200D01*
X0152000Y0162787D02*
X0152000Y0162787D01*
X0152000Y0164786D02*
X0152000Y0164786D01*
X0152000Y0166784D02*
X0152000Y0166784D01*
X0156800Y0166784D02*
X0173031Y0166784D01*
X0169959Y0164786D02*
X0156574Y0164786D01*
X0154575Y0162787D02*
X0169606Y0162787D01*
X0178033Y0158790D02*
X0178965Y0158790D01*
X0178511Y0156792D02*
X0177500Y0156792D01*
X0177039Y0154793D02*
X0179273Y0154793D01*
X0179700Y0152795D02*
X0175573Y0152795D01*
X0176265Y0150796D02*
X0179700Y0150796D01*
X0179700Y0148798D02*
X0177409Y0148798D01*
X0177700Y0146799D02*
X0179700Y0146799D01*
X0179700Y0144801D02*
X0178584Y0144801D01*
X0184300Y0143195D02*
X0185095Y0142400D01*
X0188905Y0142400D01*
X0191600Y0145095D01*
X0191600Y0145895D01*
X0193000Y0144495D01*
X0193000Y0140768D01*
X0192436Y0140768D01*
X0192141Y0140474D01*
X0192047Y0140569D01*
X0191591Y0140832D01*
X0191082Y0140968D01*
X0188654Y0140968D01*
X0188654Y0137000D01*
X0188653Y0137000D01*
X0184488Y0137000D01*
X0188653Y0137000D01*
X0188653Y0137000D01*
X0188653Y0140968D01*
X0186225Y0140968D01*
X0185716Y0140832D01*
X0185260Y0140569D01*
X0184888Y0140197D01*
X0184624Y0139740D01*
X0184488Y0139232D01*
X0184488Y0137000D01*
X0184488Y0134768D01*
X0184606Y0134328D01*
X0183976Y0134958D01*
X0183435Y0135182D01*
X0184300Y0136047D01*
X0184300Y0143195D01*
X0184300Y0142802D02*
X0184693Y0142802D01*
X0184300Y0140803D02*
X0185666Y0140803D01*
X0184488Y0138805D02*
X0184300Y0138805D01*
X0184300Y0136806D02*
X0184488Y0136806D01*
X0184488Y0134808D02*
X0184126Y0134808D01*
X0185130Y0133562D02*
X0185260Y0133431D01*
X0185716Y0133168D01*
X0186225Y0133031D01*
X0188653Y0133031D01*
X0188653Y0137000D01*
X0188654Y0137000D01*
X0188654Y0133031D01*
X0191082Y0133031D01*
X0191591Y0133168D01*
X0192047Y0133431D01*
X0192141Y0133526D01*
X0192436Y0133231D01*
X0192912Y0133231D01*
X0192689Y0132694D01*
X0192689Y0131306D01*
X0192816Y0131000D01*
X0191647Y0131000D01*
X0191300Y0130652D01*
X0191232Y0130649D01*
X0190632Y0129985D01*
X0190300Y0129653D01*
X0190300Y0129653D01*
X0190000Y0129353D01*
X0190000Y0129285D01*
X0187957Y0127024D01*
X0187957Y0129035D01*
X0187820Y0129544D01*
X0187557Y0130000D01*
X0187185Y0130372D01*
X0186729Y0130635D01*
X0186220Y0130772D01*
X0185268Y0130772D01*
X0185489Y0131306D01*
X0185489Y0132694D01*
X0185130Y0133562D01*
X0185441Y0132809D02*
X0192737Y0132809D01*
X0191458Y0130811D02*
X0185284Y0130811D01*
X0187957Y0128812D02*
X0189573Y0128812D01*
X0188653Y0134808D02*
X0188654Y0134808D01*
X0188653Y0136806D02*
X0188654Y0136806D01*
X0188653Y0138805D02*
X0188654Y0138805D01*
X0188653Y0140803D02*
X0188654Y0140803D01*
X0189307Y0142802D02*
X0193000Y0142802D01*
X0193000Y0140803D02*
X0191641Y0140803D01*
X0191306Y0144801D02*
X0192694Y0144801D01*
X0192291Y0150796D02*
X0189709Y0150796D01*
X0191300Y0152795D02*
X0196552Y0152795D01*
X0199011Y0154793D02*
X0192600Y0154793D01*
X0192600Y0156792D02*
X0200157Y0156792D01*
X0204843Y0156792D02*
X0207966Y0156792D01*
X0205967Y0158790D02*
X0191715Y0158790D01*
X0182030Y0162787D02*
X0201970Y0162787D01*
X0203969Y0160789D02*
X0180031Y0160789D01*
X0175030Y0168783D02*
X0156800Y0168783D01*
X0155007Y0170781D02*
X0177028Y0170781D01*
X0152000Y0170781D02*
X0152000Y0170781D01*
X0152000Y0168783D02*
X0152000Y0168783D01*
X0148993Y0170781D02*
X0139724Y0170781D01*
X0141600Y0168783D02*
X0147200Y0168783D01*
X0147200Y0166784D02*
X0141600Y0166784D01*
X0141291Y0164786D02*
X0147426Y0164786D01*
X0134276Y0170781D02*
X0124724Y0170781D01*
X0123905Y0171600D02*
X0120095Y0171600D01*
X0117400Y0168905D01*
X0117400Y0165095D01*
X0120095Y0162400D01*
X0123905Y0162400D01*
X0126600Y0165095D01*
X0126600Y0168905D01*
X0123905Y0171600D01*
X0126600Y0168783D02*
X0132400Y0168783D01*
X0132400Y0166784D02*
X0126600Y0166784D01*
X0126291Y0164786D02*
X0130543Y0164786D01*
X0128544Y0162787D02*
X0124292Y0162787D01*
X0126546Y0160789D02*
X0107454Y0160789D01*
X0107000Y0162787D02*
X0107000Y0162787D01*
X0107000Y0164786D02*
X0107000Y0164786D01*
X0107000Y0166784D02*
X0107000Y0166784D01*
X0102200Y0166784D02*
X0013704Y0166784D01*
X0012507Y0164786D02*
X0065886Y0164786D01*
X0063544Y0162787D02*
X0011545Y0162787D01*
X0010999Y0160789D02*
X0061546Y0160789D01*
X0059547Y0158790D02*
X0010543Y0158790D01*
X0010386Y0156792D02*
X0021937Y0156792D01*
X0020463Y0156313D02*
X0020463Y0156313D01*
X0018776Y0154793D02*
X0010371Y0154793D01*
X0010371Y0152795D02*
X0017470Y0152795D01*
X0018082Y0154168D02*
X0018082Y0154168D01*
X0016778Y0150796D02*
X0010371Y0150796D01*
X0010371Y0148798D02*
X0016778Y0148798D01*
X0017329Y0146799D02*
X0010371Y0146799D01*
X0010371Y0144801D02*
X0018423Y0144801D01*
X0018082Y0145107D02*
X0018082Y0145107D01*
X0018082Y0145107D01*
X0020959Y0142802D02*
X0010371Y0142802D01*
X0023512Y0141973D02*
X0023512Y0141973D01*
X0031421Y0146799D02*
X0055184Y0146799D01*
X0052424Y0148798D02*
X0031846Y0148798D01*
X0032025Y0149638D02*
X0032025Y0149638D01*
X0031778Y0150796D02*
X0051546Y0150796D01*
X0051500Y0152795D02*
X0031342Y0152795D01*
X0031358Y0152773D02*
X0031358Y0152773D01*
X0029890Y0154793D02*
X0052204Y0154793D01*
X0054196Y0156792D02*
X0027005Y0156792D01*
X0029474Y0155366D02*
X0029474Y0155366D01*
X0029474Y0155366D01*
X0015298Y0168783D02*
X0102200Y0168783D01*
X0103993Y0170781D02*
X0017626Y0170781D01*
X0021045Y0172780D02*
X0342955Y0172780D01*
X0346374Y0170781D02*
X0325007Y0170781D01*
X0323988Y0171800D02*
X0326800Y0168988D01*
X0326800Y0167000D01*
X0322000Y0167000D01*
X0322000Y0167000D01*
X0322000Y0171800D01*
X0323988Y0171800D01*
X0322000Y0171800D02*
X0320012Y0171800D01*
X0317200Y0168988D01*
X0317200Y0167000D01*
X0322000Y0167000D01*
X0322000Y0167000D01*
X0322000Y0167000D01*
X0322000Y0171800D01*
X0322000Y0170781D02*
X0322000Y0170781D01*
X0322000Y0168783D02*
X0322000Y0168783D01*
X0322000Y0167000D02*
X0317200Y0167000D01*
X0317200Y0165012D01*
X0320012Y0162200D01*
X0322000Y0162200D01*
X0323988Y0162200D01*
X0326800Y0165012D01*
X0326800Y0167000D01*
X0322000Y0167000D01*
X0322000Y0162200D01*
X0322000Y0167000D01*
X0322000Y0167000D01*
X0322000Y0166784D02*
X0322000Y0166784D01*
X0322000Y0164786D02*
X0322000Y0164786D01*
X0322000Y0162787D02*
X0322000Y0162787D01*
X0324575Y0162787D02*
X0352455Y0162787D01*
X0353001Y0160789D02*
X0312204Y0160789D01*
X0310206Y0162787D02*
X0319425Y0162787D01*
X0317426Y0164786D02*
X0266574Y0164786D01*
X0266800Y0165012D02*
X0263988Y0162200D01*
X0262000Y0162200D01*
X0262000Y0167000D01*
X0262000Y0167000D01*
X0262000Y0171800D01*
X0263988Y0171800D01*
X0266800Y0168988D01*
X0266800Y0167000D01*
X0262000Y0167000D01*
X0262000Y0167000D01*
X0262000Y0167000D01*
X0257200Y0167000D01*
X0257200Y0168988D01*
X0260012Y0171800D01*
X0262000Y0171800D01*
X0262000Y0167000D01*
X0266800Y0167000D01*
X0266800Y0165012D01*
X0266800Y0166784D02*
X0317200Y0166784D01*
X0317200Y0168783D02*
X0266800Y0168783D01*
X0265007Y0170781D02*
X0318993Y0170781D01*
X0326800Y0168783D02*
X0348702Y0168783D01*
X0350296Y0166784D02*
X0326800Y0166784D01*
X0326574Y0164786D02*
X0351493Y0164786D01*
X0350888Y0166042D02*
X0350888Y0166042D01*
X0353457Y0158790D02*
X0314203Y0158790D01*
X0316201Y0156792D02*
X0337303Y0156792D01*
X0335829Y0156313D02*
X0335829Y0156313D01*
X0333447Y0154168D01*
X0332144Y0151240D01*
X0332144Y0148035D01*
X0333447Y0145107D01*
X0335829Y0142963D01*
X0335829Y0142963D01*
X0338877Y0141973D01*
X0342065Y0142308D01*
X0344840Y0143910D01*
X0344840Y0143910D01*
X0346724Y0146503D01*
X0347390Y0149638D01*
X0346724Y0152773D01*
X0344840Y0155366D01*
X0342065Y0156968D01*
X0342065Y0156968D01*
X0338877Y0157303D01*
X0335829Y0156313D01*
X0334141Y0154793D02*
X0318200Y0154793D01*
X0320198Y0152795D02*
X0332836Y0152795D01*
X0333447Y0154168D02*
X0333447Y0154168D01*
X0332144Y0150796D02*
X0322197Y0150796D01*
X0324195Y0148798D02*
X0332144Y0148798D01*
X0332694Y0146799D02*
X0325000Y0146799D01*
X0325000Y0144801D02*
X0333788Y0144801D01*
X0333447Y0145107D02*
X0333447Y0145107D01*
X0336324Y0142802D02*
X0325000Y0142802D01*
X0325000Y0140803D02*
X0353629Y0140803D01*
X0353629Y0138805D02*
X0326600Y0138805D01*
X0326600Y0136806D02*
X0353629Y0136806D01*
X0353629Y0134808D02*
X0326313Y0134808D01*
X0324315Y0132809D02*
X0353629Y0132809D01*
X0353629Y0130811D02*
X0219064Y0130811D01*
X0218165Y0129693D02*
X0218165Y0129693D01*
X0216337Y0128812D02*
X0214184Y0128812D01*
X0213803Y0127592D02*
X0213803Y0127592D01*
X0212827Y0126814D02*
X0212185Y0126814D01*
X0210321Y0124815D02*
X0209322Y0124815D01*
X0210017Y0124573D02*
X0210017Y0124573D01*
X0210017Y0124573D01*
X0208617Y0122817D02*
X0208222Y0122817D01*
X0207023Y0120818D02*
X0197512Y0120818D01*
X0197451Y0118820D02*
X0206051Y0118820D01*
X0205088Y0116821D02*
X0203237Y0116821D01*
X0204898Y0116425D02*
X0204898Y0116425D01*
X0204532Y0114823D02*
X0203237Y0114823D01*
X0203237Y0112824D02*
X0204076Y0112824D01*
X0203820Y0110826D02*
X0203237Y0110826D01*
X0203237Y0108827D02*
X0203820Y0108827D01*
X0203820Y0106829D02*
X0203237Y0106829D01*
X0203237Y0104830D02*
X0203820Y0104830D01*
X0203820Y0102832D02*
X0203237Y0102832D01*
X0203237Y0100833D02*
X0203820Y0100833D01*
X0203820Y0098835D02*
X0203237Y0098835D01*
X0203237Y0096836D02*
X0203820Y0096836D01*
X0203820Y0094838D02*
X0203090Y0094838D01*
X0203820Y0092839D02*
X0201092Y0092839D01*
X0199093Y0090841D02*
X0203820Y0090841D01*
X0203820Y0088842D02*
X0197095Y0088842D01*
X0197000Y0086844D02*
X0203820Y0086844D01*
X0203820Y0084845D02*
X0196916Y0084845D01*
X0194918Y0082847D02*
X0203820Y0082847D01*
X0203820Y0080848D02*
X0168974Y0080848D01*
X0169082Y0082847D02*
X0166976Y0082847D01*
X0167084Y0084845D02*
X0166580Y0084845D01*
X0166580Y0086844D02*
X0167000Y0086844D01*
X0167000Y0088842D02*
X0166580Y0088842D01*
X0166580Y0090841D02*
X0168770Y0090841D01*
X0169090Y0092839D02*
X0166580Y0092839D01*
X0166580Y0094838D02*
X0167091Y0094838D01*
X0167000Y0096836D02*
X0166580Y0096836D01*
X0166580Y0098835D02*
X0167000Y0098835D01*
X0166580Y0100833D02*
X0168762Y0100833D01*
X0167232Y0102832D02*
X0166580Y0102832D01*
X0166580Y0104830D02*
X0166911Y0104830D01*
X0166580Y0106829D02*
X0167995Y0106829D01*
X0168416Y0112331D02*
X0166580Y0112331D01*
X0166580Y0114167D01*
X0168416Y0112331D01*
X0167923Y0112824D02*
X0166580Y0112824D01*
X0160580Y0112824D02*
X0159924Y0112824D01*
X0160180Y0110826D02*
X0160580Y0110826D01*
X0160580Y0108827D02*
X0160180Y0108827D01*
X0160180Y0106829D02*
X0160580Y0106829D01*
X0160580Y0104830D02*
X0160180Y0104830D01*
X0160180Y0102832D02*
X0160580Y0102832D01*
X0160580Y0100833D02*
X0160180Y0100833D01*
X0160180Y0098835D02*
X0160580Y0098835D01*
X0160580Y0096836D02*
X0160180Y0096836D01*
X0160180Y0094838D02*
X0160580Y0094838D01*
X0160580Y0092839D02*
X0160180Y0092839D01*
X0160180Y0090841D02*
X0160580Y0090841D01*
X0160580Y0088842D02*
X0160180Y0088842D01*
X0160180Y0086844D02*
X0160580Y0086844D01*
X0160580Y0084845D02*
X0160180Y0084845D01*
X0160180Y0082847D02*
X0160580Y0082847D01*
X0160810Y0080848D02*
X0160180Y0080848D01*
X0160180Y0078850D02*
X0162488Y0078850D01*
X0164486Y0076851D02*
X0160180Y0076851D01*
X0160180Y0074853D02*
X0166485Y0074853D01*
X0169013Y0071875D02*
X0168287Y0071348D01*
X0167652Y0070713D01*
X0167125Y0069987D01*
X0166718Y0069188D01*
X0166440Y0068335D01*
X0166300Y0067449D01*
X0166300Y0067000D01*
X0172000Y0067000D01*
X0177700Y0067000D01*
X0177700Y0067449D01*
X0177560Y0068335D01*
X0177282Y0069188D01*
X0176875Y0069987D01*
X0176348Y0070713D01*
X0175713Y0071348D01*
X0174987Y0071875D01*
X0174188Y0072282D01*
X0173335Y0072560D01*
X0172449Y0072700D01*
X0172000Y0072700D01*
X0172000Y0067000D01*
X0172000Y0067000D01*
X0172000Y0067000D01*
X0177700Y0067000D01*
X0177700Y0066551D01*
X0177560Y0065665D01*
X0177282Y0064812D01*
X0176875Y0064013D01*
X0176348Y0063287D01*
X0175713Y0062652D01*
X0174987Y0062125D01*
X0174544Y0061899D01*
X0175115Y0061663D01*
X0176663Y0060115D01*
X0177500Y0058094D01*
X0177500Y0055906D01*
X0176663Y0053884D01*
X0175115Y0052337D01*
X0173094Y0051500D01*
X0170906Y0051500D01*
X0168884Y0052337D01*
X0167337Y0053884D01*
X0166500Y0055906D01*
X0166500Y0058094D01*
X0167337Y0060115D01*
X0168884Y0061663D01*
X0169456Y0061899D01*
X0169013Y0062125D01*
X0168287Y0062652D01*
X0167652Y0063287D01*
X0167125Y0064013D01*
X0166718Y0064812D01*
X0166440Y0065665D01*
X0166300Y0066551D01*
X0166300Y0067000D01*
X0172000Y0067000D01*
X0172000Y0067000D01*
X0172000Y0072700D01*
X0171551Y0072700D01*
X0170665Y0072560D01*
X0169812Y0072282D01*
X0169013Y0071875D01*
X0167795Y0070856D02*
X0160180Y0070856D01*
X0160180Y0072854D02*
X0203820Y0072854D01*
X0203820Y0070856D02*
X0176205Y0070856D01*
X0177390Y0068857D02*
X0192352Y0068857D01*
X0191400Y0067905D02*
X0194095Y0070600D01*
X0197905Y0070600D01*
X0200600Y0067905D01*
X0200600Y0064095D01*
X0198105Y0061600D01*
X0198905Y0061600D01*
X0201600Y0058905D01*
X0201600Y0055095D01*
X0198905Y0052400D01*
X0195095Y0052400D01*
X0192400Y0055095D01*
X0192400Y0055895D01*
X0189905Y0053400D01*
X0186095Y0053400D01*
X0183400Y0056095D01*
X0183400Y0059905D01*
X0186095Y0062600D01*
X0189905Y0062600D01*
X0192600Y0059905D01*
X0192600Y0059105D01*
X0194895Y0061400D01*
X0194095Y0061400D01*
X0191400Y0064095D01*
X0191400Y0067905D01*
X0191400Y0066859D02*
X0177700Y0066859D01*
X0177298Y0064860D02*
X0191400Y0064860D01*
X0192633Y0062862D02*
X0175923Y0062862D01*
X0175915Y0060863D02*
X0184358Y0060863D01*
X0183400Y0058865D02*
X0177181Y0058865D01*
X0177500Y0056866D02*
X0183400Y0056866D01*
X0184627Y0054868D02*
X0177070Y0054868D01*
X0175647Y0052869D02*
X0194626Y0052869D01*
X0195095Y0051600D02*
X0192400Y0048905D01*
X0192400Y0045095D01*
X0195095Y0042400D01*
X0198905Y0042400D01*
X0201600Y0045095D01*
X0201600Y0048905D01*
X0198905Y0051600D01*
X0195095Y0051600D01*
X0194365Y0050870D02*
X0169635Y0050870D01*
X0168905Y0051600D02*
X0165095Y0051600D01*
X0162400Y0048905D01*
X0162400Y0045095D01*
X0165095Y0042400D01*
X0168905Y0042400D01*
X0171600Y0045095D01*
X0171600Y0048905D01*
X0168905Y0051600D01*
X0168353Y0052869D02*
X0160180Y0052869D01*
X0160180Y0050870D02*
X0164365Y0050870D01*
X0162400Y0048872D02*
X0160180Y0048872D01*
X0160180Y0046873D02*
X0162400Y0046873D01*
X0162620Y0044875D02*
X0160180Y0044875D01*
X0160180Y0042876D02*
X0164618Y0042876D01*
X0169382Y0042876D02*
X0194618Y0042876D01*
X0192620Y0044875D02*
X0171380Y0044875D01*
X0171600Y0046873D02*
X0192400Y0046873D01*
X0192400Y0048872D02*
X0171600Y0048872D01*
X0166930Y0054868D02*
X0160180Y0054868D01*
X0160180Y0056866D02*
X0166500Y0056866D01*
X0166819Y0058865D02*
X0160180Y0058865D01*
X0160180Y0060863D02*
X0168085Y0060863D01*
X0168077Y0062862D02*
X0160180Y0062862D01*
X0160180Y0064860D02*
X0166702Y0064860D01*
X0166300Y0066859D02*
X0160180Y0066859D01*
X0160180Y0068857D02*
X0166610Y0068857D01*
X0172000Y0068857D02*
X0172000Y0068857D01*
X0172000Y0070856D02*
X0172000Y0070856D01*
X0185787Y0074853D02*
X0203820Y0074853D01*
X0203820Y0076851D02*
X0186489Y0076851D01*
X0186010Y0078850D02*
X0203820Y0078850D01*
X0189082Y0082847D02*
X0184918Y0082847D01*
X0186916Y0084845D02*
X0187084Y0084845D01*
X0187000Y0084929D02*
X0187000Y0088747D01*
X0187000Y0088747D01*
X0187000Y0084929D01*
X0187000Y0086844D02*
X0187000Y0086844D01*
X0179082Y0082847D02*
X0174918Y0082847D01*
X0176916Y0084845D02*
X0177084Y0084845D01*
X0177000Y0086844D02*
X0177000Y0086844D01*
X0177000Y0088842D02*
X0177000Y0088842D01*
X0175230Y0090841D02*
X0178770Y0090841D01*
X0179929Y0092000D02*
X0183747Y0092000D01*
X0183747Y0092000D01*
X0179929Y0092000D01*
X0179090Y0092839D02*
X0174910Y0092839D01*
X0176909Y0094838D02*
X0177091Y0094838D01*
X0177000Y0094929D02*
X0177000Y0098747D01*
X0177000Y0098747D01*
X0177000Y0094929D01*
X0177000Y0096836D02*
X0177000Y0096836D01*
X0192000Y0097000D02*
X0197200Y0097000D01*
X0197200Y0097409D01*
X0197102Y0098027D01*
X0197103Y0098026D01*
X0198491Y0098026D01*
X0198637Y0098087D01*
X0198637Y0096890D01*
X0196852Y0095104D01*
X0197072Y0095782D01*
X0197200Y0096591D01*
X0197200Y0097000D01*
X0192000Y0097000D01*
X0192000Y0097000D01*
X0197200Y0096836D02*
X0198584Y0096836D01*
X0160580Y0114823D02*
X0159468Y0114823D01*
X0159102Y0116425D02*
X0159102Y0116425D01*
X0158912Y0116821D02*
X0160270Y0116821D01*
X0159000Y0118820D02*
X0157949Y0118820D01*
X0157002Y0120788D02*
X0157002Y0120788D01*
X0156977Y0120818D02*
X0159000Y0120818D01*
X0159000Y0122817D02*
X0155383Y0122817D01*
X0154233Y0124815D02*
X0153679Y0124815D01*
X0151834Y0126814D02*
X0151173Y0126814D01*
X0150197Y0127592D02*
X0150197Y0127592D01*
X0149836Y0128812D02*
X0147663Y0128812D01*
X0138722Y0150796D02*
X0125039Y0150796D01*
X0127037Y0152795D02*
X0138553Y0152795D01*
X0139859Y0154793D02*
X0129036Y0154793D01*
X0122549Y0156792D02*
X0111451Y0156792D01*
X0109453Y0158790D02*
X0124547Y0158790D01*
X0119707Y0162787D02*
X0109575Y0162787D01*
X0111574Y0164786D02*
X0117709Y0164786D01*
X0117400Y0166784D02*
X0111800Y0166784D01*
X0111800Y0168783D02*
X0117400Y0168783D01*
X0119276Y0170781D02*
X0110007Y0170781D01*
X0107000Y0170781D02*
X0107000Y0170781D01*
X0107000Y0168783D02*
X0107000Y0168783D01*
X0196128Y0122817D02*
X0203444Y0122817D01*
X0224315Y0132809D02*
X0229685Y0132809D01*
X0230095Y0132400D02*
X0233905Y0132400D01*
X0236600Y0135095D01*
X0236600Y0138905D01*
X0233905Y0141600D01*
X0230095Y0141600D01*
X0227400Y0138905D01*
X0227400Y0135095D01*
X0230095Y0132400D01*
X0227687Y0134808D02*
X0226313Y0134808D01*
X0226600Y0136806D02*
X0227400Y0136806D01*
X0227400Y0138805D02*
X0226600Y0138805D01*
X0224702Y0140803D02*
X0229298Y0140803D01*
X0234702Y0140803D02*
X0238605Y0140803D01*
X0237400Y0138805D02*
X0236600Y0138805D01*
X0236600Y0136806D02*
X0237400Y0136806D01*
X0237687Y0134808D02*
X0236313Y0134808D01*
X0234315Y0132809D02*
X0239685Y0132809D01*
X0244315Y0132809D02*
X0249685Y0132809D01*
X0247687Y0134808D02*
X0246313Y0134808D01*
X0246600Y0136806D02*
X0247400Y0136806D01*
X0247400Y0138805D02*
X0246600Y0138805D01*
X0236607Y0142802D02*
X0208955Y0142802D01*
X0209298Y0140803D02*
X0208300Y0140803D01*
X0214702Y0140803D02*
X0219298Y0140803D01*
X0217400Y0138805D02*
X0216600Y0138805D01*
X0216600Y0136806D02*
X0217400Y0136806D01*
X0239989Y0154793D02*
X0261700Y0154793D01*
X0263699Y0156792D02*
X0239254Y0156792D01*
X0238033Y0158790D02*
X0265697Y0158790D01*
X0267696Y0160789D02*
X0240031Y0160789D01*
X0244292Y0162787D02*
X0249707Y0162787D01*
X0250095Y0162400D02*
X0253905Y0162400D01*
X0256600Y0165095D01*
X0256600Y0168905D01*
X0253905Y0171600D01*
X0250095Y0171600D01*
X0247400Y0168905D01*
X0247400Y0165095D01*
X0250095Y0162400D01*
X0247709Y0164786D02*
X0246291Y0164786D01*
X0246600Y0166784D02*
X0247400Y0166784D01*
X0247400Y0168783D02*
X0246600Y0168783D01*
X0244724Y0170781D02*
X0249276Y0170781D01*
X0254724Y0170781D02*
X0258993Y0170781D01*
X0257200Y0168783D02*
X0256600Y0168783D01*
X0257200Y0167000D02*
X0257200Y0165012D01*
X0260012Y0162200D01*
X0262000Y0162200D01*
X0262000Y0167000D01*
X0262000Y0167000D01*
X0257200Y0167000D01*
X0257200Y0166784D02*
X0256600Y0166784D01*
X0256291Y0164786D02*
X0257426Y0164786D01*
X0259425Y0162787D02*
X0254292Y0162787D01*
X0262000Y0162787D02*
X0262000Y0162787D01*
X0262000Y0164786D02*
X0262000Y0164786D01*
X0262000Y0166784D02*
X0262000Y0166784D01*
X0262000Y0168783D02*
X0262000Y0168783D01*
X0262000Y0170781D02*
X0262000Y0170781D01*
X0264575Y0162787D02*
X0269694Y0162787D01*
X0273243Y0157850D02*
X0263982Y0148590D01*
X0263982Y0148590D01*
X0263875Y0148483D01*
X0264176Y0148358D01*
X0265158Y0147376D01*
X0265689Y0146094D01*
X0265689Y0144706D01*
X0265158Y0143424D01*
X0264176Y0142442D01*
X0262894Y0141911D01*
X0261506Y0141911D01*
X0260326Y0142400D01*
X0259853Y0142400D01*
X0260653Y0141600D01*
X0263905Y0141600D01*
X0265705Y0139800D01*
X0281040Y0139800D01*
X0283826Y0142586D01*
X0284614Y0143374D01*
X0285643Y0143800D01*
X0293695Y0143800D01*
X0292400Y0145095D01*
X0292400Y0148905D01*
X0295095Y0151600D01*
X0295895Y0151600D01*
X0293400Y0154095D01*
X0293400Y0157850D01*
X0273243Y0157850D01*
X0274013Y0156875D02*
X0274812Y0157282D01*
X0275665Y0157560D01*
X0276551Y0157700D01*
X0277000Y0157700D01*
X0277000Y0152000D01*
X0277000Y0152000D01*
X0277000Y0157700D01*
X0277449Y0157700D01*
X0278335Y0157560D01*
X0279188Y0157282D01*
X0279987Y0156875D01*
X0280713Y0156348D01*
X0281348Y0155713D01*
X0281875Y0154987D01*
X0282101Y0154544D01*
X0282337Y0155115D01*
X0283884Y0156663D01*
X0285906Y0157500D01*
X0288094Y0157500D01*
X0290115Y0156663D01*
X0291663Y0155115D01*
X0292500Y0153094D01*
X0292500Y0150906D01*
X0291663Y0148884D01*
X0290115Y0147337D01*
X0288094Y0146500D01*
X0285906Y0146500D01*
X0283884Y0147337D01*
X0282337Y0148884D01*
X0282101Y0149456D01*
X0281875Y0149013D01*
X0281348Y0148287D01*
X0280713Y0147652D01*
X0279987Y0147125D01*
X0279188Y0146718D01*
X0278335Y0146440D01*
X0277449Y0146300D01*
X0277000Y0146300D01*
X0277000Y0152000D01*
X0277000Y0152000D01*
X0277000Y0152000D01*
X0271300Y0152000D01*
X0271300Y0152449D01*
X0271440Y0153335D01*
X0271718Y0154188D01*
X0272125Y0154987D01*
X0272652Y0155713D01*
X0273287Y0156348D01*
X0274013Y0156875D01*
X0273898Y0156792D02*
X0272184Y0156792D01*
X0272026Y0154793D02*
X0270186Y0154793D01*
X0271355Y0152795D02*
X0268187Y0152795D01*
X0266189Y0150796D02*
X0271420Y0150796D01*
X0271440Y0150665D02*
X0271718Y0149812D01*
X0272125Y0149013D01*
X0272652Y0148287D01*
X0273287Y0147652D01*
X0274013Y0147125D01*
X0274812Y0146718D01*
X0275665Y0146440D01*
X0276551Y0146300D01*
X0277000Y0146300D01*
X0277000Y0152000D01*
X0271300Y0152000D01*
X0271300Y0151551D01*
X0271440Y0150665D01*
X0272281Y0148798D02*
X0264190Y0148798D01*
X0265397Y0146799D02*
X0274652Y0146799D01*
X0277000Y0146799D02*
X0277000Y0146799D01*
X0277000Y0148798D02*
X0277000Y0148798D01*
X0277000Y0150796D02*
X0277000Y0150796D01*
X0277000Y0152795D02*
X0277000Y0152795D01*
X0277000Y0154793D02*
X0277000Y0154793D01*
X0277000Y0156792D02*
X0277000Y0156792D01*
X0280102Y0156792D02*
X0284196Y0156792D01*
X0282204Y0154793D02*
X0281974Y0154793D01*
X0289804Y0156792D02*
X0293400Y0156792D01*
X0293400Y0154793D02*
X0291796Y0154793D01*
X0292500Y0152795D02*
X0294700Y0152795D01*
X0294291Y0150796D02*
X0292454Y0150796D01*
X0292400Y0148798D02*
X0291576Y0148798D01*
X0292400Y0146799D02*
X0288816Y0146799D01*
X0285184Y0146799D02*
X0279348Y0146799D01*
X0281719Y0148798D02*
X0282424Y0148798D01*
X0284042Y0142802D02*
X0264536Y0142802D01*
X0264702Y0140803D02*
X0282044Y0140803D01*
X0282200Y0137000D02*
X0286200Y0141000D01*
X0299200Y0141000D01*
X0300346Y0139854D01*
X0300346Y0137000D01*
X0304396Y0136806D02*
X0317400Y0136806D01*
X0317400Y0138805D02*
X0306394Y0138805D01*
X0308393Y0140803D02*
X0319000Y0140803D01*
X0319000Y0142802D02*
X0309000Y0142802D01*
X0309306Y0144801D02*
X0319000Y0144801D01*
X0317708Y0146799D02*
X0310600Y0146799D01*
X0310600Y0148798D02*
X0315710Y0148798D01*
X0313711Y0150796D02*
X0309709Y0150796D01*
X0311713Y0152795D02*
X0301300Y0152795D01*
X0302291Y0150796D02*
X0299709Y0150796D01*
X0302600Y0154793D02*
X0309714Y0154793D01*
X0307716Y0156792D02*
X0302600Y0156792D01*
X0292694Y0144801D02*
X0265689Y0144801D01*
X0256942Y0138805D02*
X0256600Y0138805D01*
X0256600Y0136806D02*
X0257400Y0136806D01*
X0257687Y0134808D02*
X0256313Y0134808D01*
X0254315Y0132809D02*
X0259685Y0132809D01*
X0264315Y0132809D02*
X0319685Y0132809D01*
X0317687Y0134808D02*
X0304312Y0134808D01*
X0293654Y0134808D02*
X0293653Y0134808D01*
X0293653Y0136806D02*
X0293654Y0136806D01*
X0289488Y0136806D02*
X0285966Y0136806D01*
X0283968Y0134808D02*
X0289488Y0134808D01*
X0282200Y0137000D02*
X0262000Y0137000D01*
X0231546Y0160789D02*
X0212454Y0160789D01*
X0214292Y0162787D02*
X0219425Y0162787D01*
X0220012Y0162200D02*
X0217200Y0165012D01*
X0217200Y0167000D01*
X0222000Y0167000D01*
X0222000Y0167000D01*
X0222000Y0171800D01*
X0223988Y0171800D01*
X0226800Y0168988D01*
X0226800Y0167000D01*
X0222000Y0167000D01*
X0222000Y0167000D01*
X0222000Y0167000D01*
X0222000Y0171800D01*
X0220012Y0171800D01*
X0217200Y0168988D01*
X0217200Y0167000D01*
X0222000Y0167000D01*
X0226800Y0167000D01*
X0226800Y0165012D01*
X0223988Y0162200D01*
X0222000Y0162200D01*
X0222000Y0167000D01*
X0222000Y0167000D01*
X0222000Y0162200D01*
X0220012Y0162200D01*
X0222000Y0162787D02*
X0222000Y0162787D01*
X0222000Y0164786D02*
X0222000Y0164786D01*
X0222000Y0166784D02*
X0222000Y0166784D01*
X0226800Y0166784D02*
X0227400Y0166784D01*
X0227709Y0164786D02*
X0226574Y0164786D01*
X0224575Y0162787D02*
X0229707Y0162787D01*
X0236600Y0166784D02*
X0237400Y0166784D01*
X0237400Y0168783D02*
X0236600Y0168783D01*
X0234724Y0170781D02*
X0239276Y0170781D01*
X0229276Y0170781D02*
X0225007Y0170781D01*
X0226800Y0168783D02*
X0227400Y0168783D01*
X0222000Y0168783D02*
X0222000Y0168783D01*
X0222000Y0170781D02*
X0222000Y0170781D01*
X0218993Y0170781D02*
X0214724Y0170781D01*
X0216600Y0168783D02*
X0217200Y0168783D01*
X0217200Y0166784D02*
X0216600Y0166784D01*
X0216291Y0164786D02*
X0217426Y0164786D01*
X0338877Y0157303D02*
X0338877Y0157303D01*
X0342370Y0156792D02*
X0353614Y0156792D01*
X0353629Y0154793D02*
X0345256Y0154793D01*
X0344840Y0155366D02*
X0344840Y0155366D01*
X0344840Y0155366D01*
X0346708Y0152795D02*
X0353629Y0152795D01*
X0353629Y0150796D02*
X0347144Y0150796D01*
X0347212Y0148798D02*
X0353629Y0148798D01*
X0353629Y0146799D02*
X0346787Y0146799D01*
X0346724Y0146503D02*
X0346724Y0146503D01*
X0345487Y0144801D02*
X0353629Y0144801D01*
X0353629Y0142802D02*
X0342921Y0142802D01*
X0342065Y0142308D02*
X0342065Y0142308D01*
X0344840Y0143910D02*
X0344840Y0143910D01*
X0338877Y0141973D02*
X0338877Y0141973D01*
X0346724Y0152773D02*
X0346724Y0152773D01*
X0203820Y0068857D02*
X0199648Y0068857D01*
X0200600Y0066859D02*
X0203820Y0066859D01*
X0203820Y0064860D02*
X0200600Y0064860D01*
X0199367Y0062862D02*
X0203820Y0062862D01*
X0203820Y0060863D02*
X0199642Y0060863D01*
X0201600Y0058865D02*
X0203820Y0058865D01*
X0203820Y0056866D02*
X0201600Y0056866D01*
X0201373Y0054868D02*
X0203820Y0054868D01*
X0203820Y0052869D02*
X0199374Y0052869D01*
X0199635Y0050870D02*
X0203820Y0050870D01*
X0203820Y0048872D02*
X0201600Y0048872D01*
X0201600Y0046873D02*
X0203820Y0046873D01*
X0203820Y0044875D02*
X0201380Y0044875D01*
X0199382Y0042876D02*
X0203820Y0042876D01*
X0203820Y0040878D02*
X0185997Y0040878D01*
X0187157Y0040208D02*
X0184382Y0041811D01*
X0184382Y0041811D01*
X0181194Y0042146D01*
X0178146Y0041155D01*
X0175765Y0039011D01*
X0174461Y0036083D01*
X0174461Y0032878D01*
X0175765Y0029950D01*
X0178146Y0027805D01*
X0178146Y0027805D01*
X0181194Y0026815D01*
X0181194Y0026815D01*
X0184382Y0027150D01*
X0187157Y0028753D01*
X0189041Y0031345D01*
X0189041Y0031345D01*
X0189707Y0034480D01*
X0189041Y0037615D01*
X0189041Y0037615D01*
X0187157Y0040208D01*
X0187157Y0040208D01*
X0188123Y0038879D02*
X0203820Y0038879D01*
X0203820Y0036881D02*
X0189197Y0036881D01*
X0189622Y0034882D02*
X0203820Y0034882D01*
X0203820Y0032884D02*
X0189368Y0032884D01*
X0188707Y0030885D02*
X0203820Y0030885D01*
X0203820Y0028887D02*
X0187255Y0028887D01*
X0187157Y0028753D02*
X0187157Y0028753D01*
X0187157Y0028753D01*
X0184382Y0027150D02*
X0184382Y0027150D01*
X0181892Y0026888D02*
X0203820Y0026888D01*
X0203820Y0024890D02*
X0160180Y0024890D01*
X0160180Y0026888D02*
X0180969Y0026888D01*
X0176945Y0028887D02*
X0160180Y0028887D01*
X0160180Y0030885D02*
X0175348Y0030885D01*
X0175765Y0029950D02*
X0175765Y0029950D01*
X0174461Y0032884D02*
X0160180Y0032884D01*
X0160180Y0034882D02*
X0174461Y0034882D01*
X0174816Y0036881D02*
X0160180Y0036881D01*
X0160180Y0038879D02*
X0175706Y0038879D01*
X0177838Y0040878D02*
X0160180Y0040878D01*
X0178146Y0041155D02*
X0178146Y0041155D01*
X0178146Y0041155D01*
X0181194Y0042146D02*
X0181194Y0042146D01*
X0191373Y0054868D02*
X0192627Y0054868D01*
X0191642Y0060863D02*
X0194358Y0060863D01*
X0203820Y0022891D02*
X0160180Y0022891D01*
X0160180Y0020893D02*
X0203820Y0020893D01*
X0203820Y0018894D02*
X0160180Y0018894D01*
X0160180Y0016896D02*
X0203820Y0016896D01*
X0203820Y0014897D02*
X0160180Y0014897D01*
X0160180Y0012899D02*
X0203820Y0012899D01*
D22*
X0167100Y0112900D03*
X0188500Y0130000D03*
X0201100Y0139000D03*
X0177000Y0142000D03*
X0162400Y0137500D03*
X0172800Y0163300D03*
X0288000Y0136700D03*
M02*
