G75*
%MOIN*%
%OFA0B0*%
%FSLAX25Y25*%
%IPPOS*%
%LPD*%
%AMOC8*
5,1,8,0,0,1.08239X$1,22.5*
%
%ADD10OC8,0.06000*%
%ADD11C,0.06800*%
%ADD12OC8,0.06800*%
%ADD13C,0.08200*%
%ADD14C,0.03778*%
%ADD15C,0.03187*%
D10*
X0167000Y0047000D03*
X0188000Y0058000D03*
X0197000Y0057000D03*
X0196000Y0066000D03*
X0197000Y0047000D03*
X0212000Y0137000D03*
X0222000Y0137000D03*
X0232000Y0137000D03*
X0242000Y0137000D03*
X0252000Y0137000D03*
X0262000Y0137000D03*
X0297000Y0147000D03*
X0306000Y0148000D03*
X0298000Y0156000D03*
X0322000Y0167000D03*
X0322000Y0137000D03*
X0262000Y0167000D03*
X0252000Y0167000D03*
X0242000Y0167000D03*
X0232000Y0167000D03*
X0222000Y0167000D03*
X0212000Y0167000D03*
X0188000Y0156000D03*
X0196000Y0148000D03*
X0187000Y0147000D03*
X0152000Y0137000D03*
X0137000Y0137000D03*
X0122000Y0137000D03*
X0107000Y0137000D03*
X0086000Y0148000D03*
X0077000Y0147000D03*
X0078000Y0156000D03*
X0107000Y0167000D03*
X0122000Y0167000D03*
X0137000Y0167000D03*
X0152000Y0167000D03*
D11*
X0192000Y0097000D03*
D12*
X0182000Y0097000D03*
X0172000Y0097000D03*
X0172000Y0087000D03*
X0182000Y0087000D03*
X0192000Y0087000D03*
D13*
X0172000Y0067000D03*
X0172000Y0057000D03*
X0172000Y0147000D03*
X0172000Y0157000D03*
X0067000Y0152000D03*
X0057000Y0152000D03*
X0277000Y0152000D03*
X0287000Y0152000D03*
D14*
X0262200Y0145400D03*
X0247800Y0145400D03*
X0236500Y0154611D03*
X0202500Y0154200D03*
X0201047Y0145015D03*
X0202000Y0132000D03*
X0196178Y0132000D03*
X0205833Y0125362D03*
X0194119Y0119892D03*
X0181552Y0122021D03*
X0166100Y0131400D03*
X0182000Y0132000D03*
X0142000Y0152000D03*
X0182000Y0157000D03*
X0197108Y0110100D03*
X0188700Y0103500D03*
X0197797Y0101515D03*
X0170400Y0104300D03*
X0183000Y0077000D03*
D15*
X0167100Y0112900D03*
X0188500Y0130000D03*
X0201100Y0139000D03*
X0177000Y0142000D03*
X0162400Y0137500D03*
X0172800Y0163300D03*
X0288000Y0136700D03*
M02*
