G75*
%MOIN*%
%OFA0B0*%
%FSLAX25Y25*%
%IPPOS*%
%LPD*%
%AMOC8*
5,1,8,0,0,1.08239X$1,22.5*
%
%ADD10OC8,0.05200*%
%ADD11C,0.06000*%
%ADD12OC8,0.06000*%
%ADD13C,0.07400*%
%ADD14C,0.02400*%
%ADD15C,0.01000*%
%ADD16C,0.02978*%
%ADD17C,0.02000*%
D10*
X0167000Y0047000D03*
X0188000Y0058000D03*
X0197000Y0057000D03*
X0196000Y0066000D03*
X0197000Y0047000D03*
X0212000Y0137000D03*
X0222000Y0137000D03*
X0232000Y0137000D03*
X0242000Y0137000D03*
X0252000Y0137000D03*
X0262000Y0137000D03*
X0297000Y0147000D03*
X0306000Y0148000D03*
X0298000Y0156000D03*
X0322000Y0167000D03*
X0322000Y0137000D03*
X0262000Y0167000D03*
X0252000Y0167000D03*
X0242000Y0167000D03*
X0232000Y0167000D03*
X0222000Y0167000D03*
X0212000Y0167000D03*
X0188000Y0156000D03*
X0196000Y0148000D03*
X0187000Y0147000D03*
X0152000Y0137000D03*
X0137000Y0137000D03*
X0122000Y0137000D03*
X0107000Y0137000D03*
X0086000Y0148000D03*
X0077000Y0147000D03*
X0078000Y0156000D03*
X0107000Y0167000D03*
X0122000Y0167000D03*
X0137000Y0167000D03*
X0152000Y0167000D03*
D11*
X0192000Y0097000D03*
D12*
X0182000Y0097000D03*
X0172000Y0097000D03*
X0172000Y0087000D03*
X0182000Y0087000D03*
X0192000Y0087000D03*
D13*
X0172000Y0067000D03*
X0172000Y0057000D03*
X0172000Y0147000D03*
X0172000Y0157000D03*
X0067000Y0152000D03*
X0057000Y0152000D03*
X0277000Y0152000D03*
X0287000Y0152000D03*
D14*
X0277000Y0142000D01*
X0267000Y0142000D01*
X0262200Y0145400D01*
X0257000Y0152000D02*
X0252000Y0147000D01*
X0252000Y0137000D01*
X0242000Y0137000D01*
X0232000Y0137000D01*
X0232000Y0142000D01*
X0227000Y0147000D01*
X0217000Y0147000D01*
X0212000Y0142000D01*
X0212000Y0137000D01*
X0212000Y0152000D01*
X0202000Y0162000D01*
X0189000Y0162000D01*
X0188000Y0161000D01*
X0188000Y0156000D01*
X0188000Y0161000D02*
X0182000Y0167000D01*
X0167000Y0167000D01*
X0137000Y0137000D01*
X0122000Y0137000D01*
X0117000Y0137000D01*
X0098000Y0156000D01*
X0078000Y0156000D01*
X0086000Y0148000D02*
X0096000Y0148000D01*
X0107000Y0137000D01*
X0181552Y0122021D02*
X0186709Y0122021D01*
X0193419Y0115311D01*
X0193419Y0105616D01*
X0191303Y0103500D01*
X0188700Y0103500D01*
X0172000Y0087000D02*
X0172000Y0082000D01*
X0188000Y0066000D01*
X0188000Y0058000D01*
X0188000Y0056000D01*
X0197000Y0047000D01*
X0172000Y0057000D02*
X0167000Y0052000D01*
X0167000Y0047000D01*
X0194000Y0066000D02*
X0196000Y0066000D01*
X0194000Y0066000D02*
X0183000Y0077000D01*
X0247800Y0145400D02*
X0242000Y0152000D01*
X0242000Y0157000D01*
X0252000Y0167000D01*
X0267000Y0152000D02*
X0275900Y0160900D01*
X0293100Y0160900D01*
X0298000Y0156000D01*
X0267000Y0152000D02*
X0257000Y0152000D01*
D15*
X0236500Y0154611D02*
X0232000Y0158011D01*
X0232000Y0167000D01*
X0202500Y0154200D02*
X0201047Y0151947D01*
X0201047Y0145015D01*
X0207000Y0142000D02*
X0187000Y0142000D01*
X0182000Y0137000D01*
X0182000Y0132000D01*
X0177000Y0129700D02*
X0180000Y0126700D01*
X0187311Y0126700D01*
X0194119Y0119892D01*
X0192000Y0122011D01*
X0197108Y0119220D02*
X0197400Y0119512D01*
X0197400Y0130778D01*
X0196178Y0132000D01*
X0202000Y0132000D02*
X0202000Y0115966D01*
X0201855Y0115567D01*
X0201120Y0114833D01*
X0201120Y0102786D01*
X0199850Y0101515D01*
X0197797Y0101515D01*
X0197108Y0110100D02*
X0197108Y0119220D01*
X0201120Y0115086D02*
X0202000Y0115966D01*
X0205833Y0125362D02*
X0205933Y0133867D01*
X0205933Y0134167D01*
X0201200Y0138900D01*
X0207000Y0142000D02*
X0212000Y0137000D01*
X0177000Y0142000D02*
X0177000Y0129700D01*
X0166100Y0131400D02*
X0182000Y0117000D01*
X0182000Y0112244D01*
X0174056Y0104300D01*
X0170400Y0104300D01*
X0142000Y0152000D02*
X0127000Y0152000D01*
X0122000Y0157000D01*
X0122000Y0167000D01*
X0172800Y0163300D02*
X0172900Y0163300D01*
X0175700Y0163300D01*
X0182000Y0157000D01*
D16*
X0182000Y0157000D03*
X0172900Y0163300D03*
X0202500Y0154200D03*
X0201047Y0145015D03*
X0201200Y0138900D03*
X0202000Y0132000D03*
X0196178Y0132000D03*
X0188600Y0131600D03*
X0182000Y0132000D03*
X0166100Y0131400D03*
X0162000Y0137700D03*
X0177000Y0142000D03*
X0205833Y0125362D03*
X0194119Y0119892D03*
X0181552Y0122021D03*
X0167200Y0112900D03*
X0170400Y0104300D03*
X0188700Y0103500D03*
X0197797Y0101515D03*
X0197108Y0110100D03*
X0183000Y0077000D03*
X0287600Y0136100D03*
X0262200Y0145400D03*
X0247800Y0145400D03*
X0236500Y0154611D03*
X0142000Y0152000D03*
D17*
X0163380Y0044680D02*
X0163380Y0015860D01*
X0200620Y0015860D01*
X0200620Y0044680D01*
X0198740Y0042800D01*
X0195260Y0042800D01*
X0192800Y0045260D01*
X0192800Y0047240D01*
X0185626Y0054414D01*
X0185612Y0054448D01*
X0183800Y0056260D01*
X0183800Y0059740D01*
X0185200Y0061140D01*
X0185200Y0064840D01*
X0170414Y0079626D01*
X0170414Y0079626D01*
X0169626Y0080414D01*
X0169200Y0081443D01*
X0169200Y0083295D01*
X0167400Y0085095D01*
X0167400Y0088905D01*
X0170095Y0091600D01*
X0172923Y0091600D01*
X0173723Y0092400D01*
X0170095Y0092400D01*
X0167400Y0095095D01*
X0167400Y0098905D01*
X0169729Y0101234D01*
X0168650Y0101681D01*
X0167781Y0102550D01*
X0167311Y0103686D01*
X0167311Y0104914D01*
X0167781Y0106050D01*
X0168650Y0106919D01*
X0169786Y0107389D01*
X0171014Y0107389D01*
X0172150Y0106919D01*
X0172668Y0106400D01*
X0173186Y0106400D01*
X0179900Y0113114D01*
X0179900Y0116069D01*
X0166382Y0128311D01*
X0165486Y0128311D01*
X0164350Y0128781D01*
X0163481Y0129650D01*
X0163011Y0130786D01*
X0163011Y0132014D01*
X0163481Y0133150D01*
X0164350Y0134019D01*
X0165486Y0134489D01*
X0166714Y0134489D01*
X0167850Y0134019D01*
X0168719Y0133150D01*
X0169189Y0132014D01*
X0169189Y0131436D01*
X0178584Y0122927D01*
X0178933Y0123770D01*
X0179763Y0124600D01*
X0179130Y0124600D01*
X0177900Y0125830D01*
X0174900Y0128830D01*
X0174900Y0139732D01*
X0174381Y0140250D01*
X0173911Y0141386D01*
X0173911Y0141628D01*
X0173335Y0141440D01*
X0172449Y0141300D01*
X0172000Y0141300D01*
X0172000Y0147000D01*
X0177700Y0147000D01*
X0177700Y0147449D01*
X0177560Y0148335D01*
X0177282Y0149188D01*
X0176875Y0149987D01*
X0176348Y0150713D01*
X0175713Y0151348D01*
X0174987Y0151875D01*
X0174310Y0152220D01*
X0175002Y0152507D01*
X0176493Y0153998D01*
X0177300Y0155946D01*
X0177300Y0158054D01*
X0176822Y0159208D01*
X0178911Y0157119D01*
X0178911Y0156386D01*
X0179381Y0155250D01*
X0180250Y0154381D01*
X0181386Y0153911D01*
X0182614Y0153911D01*
X0183750Y0154381D01*
X0183800Y0154432D01*
X0183800Y0154260D01*
X0186260Y0151800D01*
X0189740Y0151800D01*
X0192200Y0154260D01*
X0192200Y0157740D01*
X0190800Y0159140D01*
X0190800Y0159200D01*
X0200840Y0159200D01*
X0202751Y0157289D01*
X0201886Y0157289D01*
X0200750Y0156819D01*
X0199881Y0155950D01*
X0199411Y0154814D01*
X0199411Y0153586D01*
X0199487Y0153402D01*
X0199404Y0153274D01*
X0198947Y0152817D01*
X0198947Y0152566D01*
X0198811Y0152354D01*
X0198947Y0151723D01*
X0198947Y0150992D01*
X0197740Y0152200D01*
X0194260Y0152200D01*
X0191800Y0149740D01*
X0191800Y0146260D01*
X0193960Y0144100D01*
X0190040Y0144100D01*
X0191200Y0145260D01*
X0191200Y0148740D01*
X0188740Y0151200D01*
X0185260Y0151200D01*
X0182800Y0148740D01*
X0182800Y0145260D01*
X0185045Y0143015D01*
X0181130Y0139100D01*
X0179900Y0137870D01*
X0179900Y0134268D01*
X0179381Y0133750D01*
X0179100Y0133071D01*
X0179100Y0139732D01*
X0179619Y0140250D01*
X0180089Y0141386D01*
X0180089Y0142614D01*
X0179619Y0143750D01*
X0178750Y0144619D01*
X0177614Y0145089D01*
X0177372Y0145089D01*
X0177560Y0145665D01*
X0177700Y0146551D01*
X0177700Y0147000D01*
X0172000Y0147000D01*
X0172000Y0147000D01*
X0172000Y0147000D01*
X0166300Y0147000D01*
X0166300Y0147449D01*
X0166440Y0148335D01*
X0166718Y0149188D01*
X0167125Y0149987D01*
X0167652Y0150713D01*
X0168287Y0151348D01*
X0169013Y0151875D01*
X0169690Y0152220D01*
X0168998Y0152507D01*
X0167507Y0153998D01*
X0166700Y0155946D01*
X0166700Y0158054D01*
X0167507Y0160002D01*
X0168998Y0161493D01*
X0170114Y0161955D01*
X0169811Y0162686D01*
X0169811Y0163914D01*
X0169929Y0164200D01*
X0168160Y0164200D01*
X0141200Y0137240D01*
X0141200Y0135260D01*
X0139910Y0133970D01*
X0141474Y0133970D01*
X0146898Y0132733D01*
X0146898Y0132733D01*
X0151910Y0130319D01*
X0151910Y0130319D01*
X0156260Y0126850D01*
X0156260Y0126850D01*
X0156260Y0126850D01*
X0159728Y0122501D01*
X0159728Y0122501D01*
X0162142Y0117489D01*
X0162142Y0117489D01*
X0163380Y0112065D01*
X0163380Y0049320D01*
X0164200Y0050140D01*
X0164200Y0052557D01*
X0164626Y0053586D01*
X0165414Y0054374D01*
X0166784Y0055744D01*
X0166700Y0055946D01*
X0166700Y0058054D01*
X0167507Y0060002D01*
X0168998Y0061493D01*
X0169690Y0061780D01*
X0169013Y0062125D01*
X0168287Y0062652D01*
X0167652Y0063287D01*
X0167125Y0064013D01*
X0166718Y0064812D01*
X0166440Y0065665D01*
X0166300Y0066551D01*
X0166300Y0067000D01*
X0172000Y0067000D01*
X0172000Y0067000D01*
X0172000Y0072700D01*
X0172449Y0072700D01*
X0173335Y0072560D01*
X0174188Y0072282D01*
X0174987Y0071875D01*
X0175713Y0071348D01*
X0176348Y0070713D01*
X0176875Y0069987D01*
X0177282Y0069188D01*
X0177560Y0068335D01*
X0177700Y0067449D01*
X0177700Y0067000D01*
X0172000Y0067000D01*
X0172000Y0067000D01*
X0172000Y0067000D01*
X0172000Y0072700D01*
X0171551Y0072700D01*
X0170665Y0072560D01*
X0169812Y0072282D01*
X0169013Y0071875D01*
X0168287Y0071348D01*
X0167652Y0070713D01*
X0167125Y0069987D01*
X0166718Y0069188D01*
X0166440Y0068335D01*
X0166300Y0067449D01*
X0166300Y0067000D01*
X0172000Y0067000D01*
X0177700Y0067000D01*
X0177700Y0066551D01*
X0177560Y0065665D01*
X0177282Y0064812D01*
X0176875Y0064013D01*
X0176348Y0063287D01*
X0175713Y0062652D01*
X0174987Y0062125D01*
X0174310Y0061780D01*
X0175002Y0061493D01*
X0176493Y0060002D01*
X0177300Y0058054D01*
X0177300Y0055946D01*
X0176493Y0053998D01*
X0175002Y0052507D01*
X0173054Y0051700D01*
X0170946Y0051700D01*
X0170744Y0051784D01*
X0169800Y0050840D01*
X0169800Y0050140D01*
X0171200Y0048740D01*
X0171200Y0045260D01*
X0168740Y0042800D01*
X0165260Y0042800D01*
X0163380Y0044680D01*
X0163380Y0042876D02*
X0165184Y0042876D01*
X0163380Y0040878D02*
X0173324Y0040878D01*
X0172726Y0040222D02*
X0172726Y0040222D01*
X0171278Y0036485D01*
X0171278Y0032476D01*
X0172726Y0028738D01*
X0175427Y0025776D01*
X0179015Y0023989D01*
X0183006Y0023619D01*
X0186862Y0024716D01*
X0190061Y0027132D01*
X0192171Y0030540D01*
X0192907Y0034480D01*
X0192171Y0038421D01*
X0190061Y0041829D01*
X0190061Y0041829D01*
X0190061Y0041829D01*
X0186862Y0044244D01*
X0183006Y0045341D01*
X0179015Y0044971D01*
X0175427Y0043185D01*
X0175427Y0043185D01*
X0175427Y0043185D01*
X0172726Y0040222D01*
X0172206Y0038879D02*
X0163380Y0038879D01*
X0163380Y0036881D02*
X0171432Y0036881D01*
X0171278Y0034882D02*
X0163380Y0034882D01*
X0163380Y0032884D02*
X0171278Y0032884D01*
X0171894Y0030885D02*
X0163380Y0030885D01*
X0163380Y0028887D02*
X0172669Y0028887D01*
X0172726Y0028738D02*
X0172726Y0028738D01*
X0174413Y0026888D02*
X0163380Y0026888D01*
X0163380Y0024890D02*
X0177206Y0024890D01*
X0175427Y0025776D02*
X0175427Y0025776D01*
X0187092Y0024890D02*
X0200620Y0024890D01*
X0200620Y0026888D02*
X0189738Y0026888D01*
X0190061Y0027132D02*
X0190061Y0027132D01*
X0190061Y0027132D01*
X0191147Y0028887D02*
X0200620Y0028887D01*
X0200620Y0030885D02*
X0192235Y0030885D01*
X0192171Y0030540D02*
X0192171Y0030540D01*
X0192609Y0032884D02*
X0200620Y0032884D01*
X0200620Y0034882D02*
X0192832Y0034882D01*
X0192459Y0036881D02*
X0200620Y0036881D01*
X0200620Y0038879D02*
X0191887Y0038879D01*
X0192171Y0038421D02*
X0192171Y0038421D01*
X0190649Y0040878D02*
X0200620Y0040878D01*
X0200620Y0042876D02*
X0198816Y0042876D01*
X0195184Y0042876D02*
X0188673Y0042876D01*
X0186862Y0044244D02*
X0186862Y0044244D01*
X0184645Y0044875D02*
X0193185Y0044875D01*
X0192800Y0046873D02*
X0171200Y0046873D01*
X0171068Y0048872D02*
X0191168Y0048872D01*
X0189170Y0050870D02*
X0169830Y0050870D01*
X0175364Y0052869D02*
X0187171Y0052869D01*
X0185193Y0054868D02*
X0176853Y0054868D01*
X0177300Y0056866D02*
X0183800Y0056866D01*
X0183800Y0058865D02*
X0176964Y0058865D01*
X0175632Y0060863D02*
X0184923Y0060863D01*
X0185200Y0062862D02*
X0175923Y0062862D01*
X0177298Y0064860D02*
X0185180Y0064860D01*
X0183182Y0066859D02*
X0177700Y0066859D01*
X0177390Y0068857D02*
X0181183Y0068857D01*
X0179185Y0070856D02*
X0176205Y0070856D01*
X0177186Y0072854D02*
X0163380Y0072854D01*
X0163380Y0070856D02*
X0167795Y0070856D01*
X0166610Y0068857D02*
X0163380Y0068857D01*
X0163380Y0066859D02*
X0166300Y0066859D01*
X0166702Y0064860D02*
X0163380Y0064860D01*
X0163380Y0062862D02*
X0168077Y0062862D01*
X0168368Y0060863D02*
X0163380Y0060863D01*
X0163380Y0058865D02*
X0167036Y0058865D01*
X0166700Y0056866D02*
X0163380Y0056866D01*
X0163380Y0054868D02*
X0165908Y0054868D01*
X0164329Y0052869D02*
X0163380Y0052869D01*
X0163380Y0050870D02*
X0164200Y0050870D01*
X0170815Y0044875D02*
X0178821Y0044875D01*
X0179015Y0044971D02*
X0179015Y0044971D01*
X0183006Y0045341D02*
X0183006Y0045341D01*
X0175146Y0042876D02*
X0168816Y0042876D01*
X0191950Y0056010D02*
X0192200Y0056260D01*
X0192200Y0059740D01*
X0190800Y0061140D01*
X0190800Y0065240D01*
X0191626Y0064414D01*
X0192414Y0063626D01*
X0192448Y0063612D01*
X0194260Y0061800D01*
X0197740Y0061800D01*
X0200200Y0064260D01*
X0200200Y0067740D01*
X0197740Y0070200D01*
X0194260Y0070200D01*
X0194010Y0069950D01*
X0185908Y0078052D01*
X0185619Y0078750D01*
X0184750Y0079619D01*
X0183614Y0080089D01*
X0182386Y0080089D01*
X0181250Y0079619D01*
X0180381Y0078750D01*
X0180038Y0077922D01*
X0174800Y0083160D01*
X0174800Y0083295D01*
X0176600Y0085095D01*
X0176600Y0087923D01*
X0177400Y0088723D01*
X0177400Y0085095D01*
X0180095Y0082400D01*
X0183905Y0082400D01*
X0186600Y0085095D01*
X0186600Y0088905D01*
X0185933Y0089572D01*
X0186473Y0089796D01*
X0188473Y0091796D01*
X0189204Y0092527D01*
X0189307Y0092776D01*
X0189379Y0092724D01*
X0190081Y0092366D01*
X0190829Y0092123D01*
X0191606Y0092000D01*
X0192000Y0092000D01*
X0192394Y0092000D01*
X0193171Y0092123D01*
X0193919Y0092366D01*
X0194621Y0092724D01*
X0195257Y0093186D01*
X0195814Y0093743D01*
X0196276Y0094379D01*
X0196634Y0095081D01*
X0196877Y0095829D01*
X0197000Y0096606D01*
X0197000Y0097000D01*
X0197000Y0097394D01*
X0196877Y0098171D01*
X0196733Y0098612D01*
X0197183Y0098426D01*
X0198412Y0098426D01*
X0199547Y0098897D01*
X0200066Y0099415D01*
X0200620Y0099415D01*
X0200620Y0059320D01*
X0198740Y0061200D01*
X0195260Y0061200D01*
X0192800Y0058740D01*
X0192800Y0055260D01*
X0195260Y0052800D01*
X0198740Y0052800D01*
X0200620Y0054680D01*
X0200620Y0049320D01*
X0198740Y0051200D01*
X0196760Y0051200D01*
X0191950Y0056010D01*
X0192200Y0056866D02*
X0192800Y0056866D01*
X0192925Y0058865D02*
X0192200Y0058865D01*
X0191077Y0060863D02*
X0194923Y0060863D01*
X0193199Y0062862D02*
X0190800Y0062862D01*
X0190800Y0064860D02*
X0191180Y0064860D01*
X0198801Y0062862D02*
X0200620Y0062862D01*
X0200620Y0064860D02*
X0200200Y0064860D01*
X0200200Y0066859D02*
X0200620Y0066859D01*
X0200620Y0068857D02*
X0199083Y0068857D01*
X0200620Y0070856D02*
X0193104Y0070856D01*
X0191106Y0072854D02*
X0200620Y0072854D01*
X0200620Y0074853D02*
X0189107Y0074853D01*
X0187109Y0076851D02*
X0200620Y0076851D01*
X0200620Y0078850D02*
X0185519Y0078850D01*
X0184352Y0082847D02*
X0189648Y0082847D01*
X0190095Y0082400D02*
X0193905Y0082400D01*
X0196600Y0085095D01*
X0196600Y0088905D01*
X0193905Y0091600D01*
X0190095Y0091600D01*
X0187400Y0088905D01*
X0187400Y0085095D01*
X0190095Y0082400D01*
X0187649Y0084845D02*
X0186351Y0084845D01*
X0186600Y0086844D02*
X0187400Y0086844D01*
X0187400Y0088842D02*
X0186600Y0088842D01*
X0187518Y0090841D02*
X0189335Y0090841D01*
X0192000Y0092000D02*
X0192000Y0097000D01*
X0197000Y0097000D01*
X0192000Y0097000D01*
X0192000Y0097000D01*
X0192000Y0092000D01*
X0192000Y0092839D02*
X0192000Y0092839D01*
X0192000Y0094838D02*
X0192000Y0094838D01*
X0192000Y0096836D02*
X0192000Y0096836D01*
X0192000Y0097000D02*
X0192000Y0097000D01*
X0197000Y0096836D02*
X0200620Y0096836D01*
X0200620Y0094838D02*
X0196510Y0094838D01*
X0194780Y0092839D02*
X0200620Y0092839D01*
X0200620Y0090841D02*
X0194665Y0090841D01*
X0196600Y0088842D02*
X0200620Y0088842D01*
X0200620Y0086844D02*
X0196600Y0086844D01*
X0196351Y0084845D02*
X0200620Y0084845D01*
X0200620Y0082847D02*
X0194352Y0082847D01*
X0200620Y0080848D02*
X0177112Y0080848D01*
X0179110Y0078850D02*
X0180481Y0078850D01*
X0179648Y0082847D02*
X0175113Y0082847D01*
X0176351Y0084845D02*
X0177649Y0084845D01*
X0177400Y0086844D02*
X0176600Y0086844D01*
X0172000Y0087000D02*
X0177000Y0092000D01*
X0185000Y0092000D01*
X0187000Y0094000D01*
X0187000Y0101800D01*
X0188700Y0103500D01*
X0199398Y0098835D02*
X0200620Y0098835D01*
X0177612Y0110826D02*
X0163380Y0110826D01*
X0163380Y0108827D02*
X0175614Y0108827D01*
X0173615Y0106829D02*
X0172240Y0106829D01*
X0168560Y0106829D02*
X0163380Y0106829D01*
X0163380Y0104830D02*
X0167311Y0104830D01*
X0167665Y0102832D02*
X0163380Y0102832D01*
X0163380Y0100833D02*
X0169328Y0100833D01*
X0167400Y0098835D02*
X0163380Y0098835D01*
X0163380Y0096836D02*
X0167400Y0096836D01*
X0167657Y0094838D02*
X0163380Y0094838D01*
X0163380Y0092839D02*
X0169655Y0092839D01*
X0169335Y0090841D02*
X0163380Y0090841D01*
X0163380Y0088842D02*
X0167400Y0088842D01*
X0167400Y0086844D02*
X0163380Y0086844D01*
X0163380Y0084845D02*
X0167649Y0084845D01*
X0169200Y0082847D02*
X0163380Y0082847D01*
X0163380Y0080848D02*
X0169446Y0080848D01*
X0171191Y0078850D02*
X0163380Y0078850D01*
X0163380Y0076851D02*
X0173189Y0076851D01*
X0175188Y0074853D02*
X0163380Y0074853D01*
X0172000Y0070856D02*
X0172000Y0070856D01*
X0172000Y0068857D02*
X0172000Y0068857D01*
X0193092Y0054868D02*
X0193193Y0054868D01*
X0195091Y0052869D02*
X0195191Y0052869D01*
X0198809Y0052869D02*
X0200620Y0052869D01*
X0200620Y0050870D02*
X0199069Y0050870D01*
X0199077Y0060863D02*
X0200620Y0060863D01*
X0200620Y0022891D02*
X0163380Y0022891D01*
X0163380Y0020893D02*
X0200620Y0020893D01*
X0200620Y0018894D02*
X0163380Y0018894D01*
X0163380Y0016896D02*
X0200620Y0016896D01*
X0179611Y0112824D02*
X0163207Y0112824D01*
X0162750Y0114823D02*
X0179900Y0114823D01*
X0179069Y0116821D02*
X0162294Y0116821D01*
X0161501Y0118820D02*
X0176862Y0118820D01*
X0174656Y0120818D02*
X0160538Y0120818D01*
X0159476Y0122817D02*
X0172449Y0122817D01*
X0170242Y0124815D02*
X0157882Y0124815D01*
X0156289Y0126814D02*
X0168035Y0126814D01*
X0164319Y0128812D02*
X0153799Y0128812D01*
X0150888Y0130811D02*
X0163011Y0130811D01*
X0163340Y0132809D02*
X0153749Y0132809D01*
X0153740Y0132800D02*
X0156200Y0135260D01*
X0156200Y0138740D01*
X0153740Y0141200D01*
X0150260Y0141200D01*
X0147800Y0138740D01*
X0147800Y0135260D01*
X0150260Y0132800D01*
X0153740Y0132800D01*
X0155748Y0134808D02*
X0174900Y0134808D01*
X0174900Y0136806D02*
X0156200Y0136806D01*
X0156135Y0138805D02*
X0174900Y0138805D01*
X0174152Y0140803D02*
X0154136Y0140803D01*
X0149864Y0140803D02*
X0144763Y0140803D01*
X0142765Y0138805D02*
X0147865Y0138805D01*
X0147800Y0136806D02*
X0141200Y0136806D01*
X0140748Y0134808D02*
X0148252Y0134808D01*
X0146561Y0132809D02*
X0150251Y0132809D01*
X0137240Y0141200D02*
X0135260Y0141200D01*
X0133860Y0139800D01*
X0125140Y0139800D01*
X0123740Y0141200D01*
X0120260Y0141200D01*
X0118860Y0139800D01*
X0118160Y0139800D01*
X0099586Y0158374D01*
X0098557Y0158800D01*
X0081140Y0158800D01*
X0079740Y0160200D01*
X0076260Y0160200D01*
X0073800Y0157740D01*
X0073800Y0154260D01*
X0076260Y0151800D01*
X0079740Y0151800D01*
X0081140Y0153200D01*
X0096840Y0153200D01*
X0115414Y0134626D01*
X0116443Y0134200D01*
X0118860Y0134200D01*
X0119090Y0133970D01*
X0109910Y0133970D01*
X0111200Y0135260D01*
X0111200Y0138740D01*
X0108740Y0141200D01*
X0106760Y0141200D01*
X0097586Y0150374D01*
X0096557Y0150800D01*
X0089140Y0150800D01*
X0087740Y0152200D01*
X0084260Y0152200D01*
X0081800Y0149740D01*
X0081800Y0146260D01*
X0084260Y0143800D01*
X0087740Y0143800D01*
X0089140Y0145200D01*
X0094840Y0145200D01*
X0102800Y0137240D01*
X0102800Y0135260D01*
X0104090Y0133970D01*
X0013571Y0133970D01*
X0013571Y0156528D01*
X0013663Y0158172D01*
X0013663Y0158172D01*
X0014395Y0161377D01*
X0015822Y0164339D01*
X0017872Y0166910D01*
X0020442Y0168960D01*
X0023405Y0170387D01*
X0026610Y0171118D01*
X0028254Y0171211D01*
X0104705Y0171211D01*
X0102400Y0168905D01*
X0102400Y0167000D01*
X0107000Y0167000D01*
X0111600Y0167000D01*
X0111600Y0168905D01*
X0109295Y0171211D01*
X0149705Y0171211D01*
X0147400Y0168905D01*
X0147400Y0167000D01*
X0152000Y0167000D01*
X0156600Y0167000D01*
X0156600Y0168905D01*
X0154295Y0171211D01*
X0219705Y0171211D01*
X0217400Y0168905D01*
X0217400Y0167000D01*
X0222000Y0167000D01*
X0226600Y0167000D01*
X0226600Y0168905D01*
X0224295Y0171211D01*
X0259705Y0171211D01*
X0257400Y0168905D01*
X0257400Y0167000D01*
X0262000Y0167000D01*
X0266600Y0167000D01*
X0266600Y0168905D01*
X0264295Y0171211D01*
X0319705Y0171211D01*
X0317400Y0168905D01*
X0317400Y0167000D01*
X0322000Y0167000D01*
X0326600Y0167000D01*
X0326600Y0168905D01*
X0324295Y0171211D01*
X0335746Y0171211D01*
X0337390Y0171118D01*
X0340595Y0170387D01*
X0343558Y0168960D01*
X0346128Y0166910D01*
X0348178Y0164339D01*
X0349605Y0161377D01*
X0350337Y0158172D01*
X0350429Y0156528D01*
X0350429Y0150501D01*
X0349854Y0153578D01*
X0347744Y0156986D01*
X0347744Y0156986D01*
X0347744Y0156986D01*
X0344545Y0159402D01*
X0344545Y0159402D01*
X0340689Y0160499D01*
X0336698Y0160129D01*
X0333110Y0158342D01*
X0333110Y0158342D01*
X0330409Y0155380D01*
X0330409Y0155380D01*
X0328961Y0151642D01*
X0328961Y0147634D01*
X0330409Y0143896D01*
X0330409Y0143896D01*
X0333110Y0140933D01*
X0336698Y0139147D01*
X0340689Y0138777D01*
X0344545Y0139874D01*
X0347744Y0142289D01*
X0347744Y0142289D01*
X0347744Y0142289D01*
X0349854Y0145698D01*
X0350429Y0148774D01*
X0350429Y0133970D01*
X0324910Y0133970D01*
X0326200Y0135260D01*
X0326200Y0138740D01*
X0323740Y0141200D01*
X0320260Y0141200D01*
X0317800Y0138740D01*
X0317800Y0135260D01*
X0319090Y0133970D01*
X0264910Y0133970D01*
X0266200Y0135260D01*
X0266200Y0138740D01*
X0264843Y0140096D01*
X0265188Y0139852D01*
X0265414Y0139626D01*
X0265638Y0139533D01*
X0265836Y0139393D01*
X0266148Y0139322D01*
X0266443Y0139200D01*
X0266686Y0139200D01*
X0266922Y0139146D01*
X0267237Y0139200D01*
X0277557Y0139200D01*
X0278586Y0139626D01*
X0279374Y0140414D01*
X0285744Y0146784D01*
X0285946Y0146700D01*
X0288054Y0146700D01*
X0290002Y0147507D01*
X0291493Y0148998D01*
X0292300Y0150946D01*
X0292300Y0153054D01*
X0291493Y0155002D01*
X0290002Y0156493D01*
X0288054Y0157300D01*
X0285946Y0157300D01*
X0283998Y0156493D01*
X0282507Y0155002D01*
X0282220Y0154310D01*
X0281875Y0154987D01*
X0281348Y0155713D01*
X0280713Y0156348D01*
X0279987Y0156875D01*
X0279188Y0157282D01*
X0278335Y0157560D01*
X0277449Y0157700D01*
X0277000Y0157700D01*
X0277000Y0152000D01*
X0277000Y0152000D01*
X0277000Y0157700D01*
X0276660Y0157700D01*
X0277060Y0158100D01*
X0291940Y0158100D01*
X0293800Y0156240D01*
X0293800Y0154260D01*
X0296260Y0151800D01*
X0299740Y0151800D01*
X0302200Y0154260D01*
X0302200Y0157740D01*
X0299740Y0160200D01*
X0297760Y0160200D01*
X0295474Y0162486D01*
X0294686Y0163274D01*
X0293657Y0163700D01*
X0275343Y0163700D01*
X0274314Y0163274D01*
X0273526Y0162486D01*
X0265840Y0154800D01*
X0256443Y0154800D01*
X0255414Y0154374D01*
X0249626Y0148586D01*
X0249414Y0148075D01*
X0249041Y0148229D01*
X0244800Y0153055D01*
X0244800Y0155840D01*
X0251760Y0162800D01*
X0253740Y0162800D01*
X0256200Y0165260D01*
X0256200Y0168740D01*
X0253740Y0171200D01*
X0250260Y0171200D01*
X0247800Y0168740D01*
X0247800Y0166760D01*
X0239626Y0158586D01*
X0239200Y0157557D01*
X0239200Y0156164D01*
X0239119Y0156361D01*
X0238250Y0157230D01*
X0237114Y0157700D01*
X0235895Y0157700D01*
X0234100Y0159056D01*
X0234100Y0163160D01*
X0236200Y0165260D01*
X0236200Y0168740D01*
X0233740Y0171200D01*
X0230260Y0171200D01*
X0227800Y0168740D01*
X0227800Y0165260D01*
X0229900Y0163160D01*
X0229900Y0158715D01*
X0229800Y0158583D01*
X0229900Y0157866D01*
X0229900Y0157141D01*
X0230017Y0157024D01*
X0230040Y0156860D01*
X0230618Y0156423D01*
X0231130Y0155911D01*
X0231296Y0155911D01*
X0233411Y0154313D01*
X0233411Y0153997D01*
X0233881Y0152861D01*
X0234750Y0151992D01*
X0235886Y0151522D01*
X0237114Y0151522D01*
X0238250Y0151992D01*
X0239119Y0152861D01*
X0239200Y0153058D01*
X0239200Y0152090D01*
X0239170Y0151624D01*
X0239200Y0151536D01*
X0239200Y0151443D01*
X0239379Y0151012D01*
X0239529Y0150570D01*
X0239591Y0150500D01*
X0239626Y0150414D01*
X0239956Y0150084D01*
X0244799Y0144573D01*
X0245181Y0143650D01*
X0246050Y0142781D01*
X0247186Y0142311D01*
X0248414Y0142311D01*
X0249200Y0142636D01*
X0249200Y0140140D01*
X0248860Y0139800D01*
X0245140Y0139800D01*
X0243740Y0141200D01*
X0240260Y0141200D01*
X0238860Y0139800D01*
X0235140Y0139800D01*
X0234800Y0140140D01*
X0234800Y0142557D01*
X0234374Y0143586D01*
X0233586Y0144374D01*
X0228586Y0149374D01*
X0227557Y0149800D01*
X0216443Y0149800D01*
X0215414Y0149374D01*
X0214800Y0148760D01*
X0214800Y0152557D01*
X0214374Y0153586D01*
X0203586Y0164374D01*
X0202557Y0164800D01*
X0188443Y0164800D01*
X0188243Y0164717D01*
X0183586Y0169374D01*
X0182557Y0169800D01*
X0166443Y0169800D01*
X0165414Y0169374D01*
X0164626Y0168586D01*
X0137240Y0141200D01*
X0138842Y0142802D02*
X0115158Y0142802D01*
X0117156Y0140803D02*
X0119864Y0140803D01*
X0124136Y0140803D02*
X0134864Y0140803D01*
X0140841Y0144801D02*
X0113159Y0144801D01*
X0111161Y0146799D02*
X0142839Y0146799D01*
X0142614Y0148911D02*
X0143750Y0149381D01*
X0144619Y0150250D01*
X0145089Y0151386D01*
X0145089Y0152614D01*
X0144619Y0153750D01*
X0143750Y0154619D01*
X0142614Y0155089D01*
X0141386Y0155089D01*
X0140250Y0154619D01*
X0139732Y0154100D01*
X0127870Y0154100D01*
X0124100Y0157870D01*
X0124100Y0163160D01*
X0126200Y0165260D01*
X0126200Y0168740D01*
X0123740Y0171200D01*
X0120260Y0171200D01*
X0117800Y0168740D01*
X0117800Y0165260D01*
X0119900Y0163160D01*
X0119900Y0156130D01*
X0121130Y0154900D01*
X0126130Y0149900D01*
X0139732Y0149900D01*
X0140250Y0149381D01*
X0141386Y0148911D01*
X0142614Y0148911D01*
X0144838Y0148798D02*
X0109162Y0148798D01*
X0107164Y0150796D02*
X0125234Y0150796D01*
X0123236Y0152795D02*
X0105165Y0152795D01*
X0103167Y0154793D02*
X0121237Y0154793D01*
X0119900Y0156792D02*
X0101168Y0156792D01*
X0098581Y0158790D02*
X0119900Y0158790D01*
X0119900Y0160789D02*
X0014261Y0160789D01*
X0013805Y0158790D02*
X0018644Y0158790D01*
X0017744Y0158342D02*
X0021332Y0160129D01*
X0021332Y0160129D01*
X0025324Y0160499D01*
X0025324Y0160499D01*
X0029179Y0159402D01*
X0029179Y0159402D01*
X0032378Y0156986D01*
X0032378Y0156986D01*
X0034488Y0153578D01*
X0035225Y0149638D01*
X0035225Y0149638D01*
X0034488Y0145698D01*
X0032378Y0142289D01*
X0032378Y0142289D01*
X0029179Y0139874D01*
X0029179Y0139874D01*
X0025324Y0138777D01*
X0025324Y0138777D01*
X0021332Y0139147D01*
X0021332Y0139147D01*
X0017744Y0140933D01*
X0017744Y0140933D01*
X0015043Y0143896D01*
X0015043Y0143896D01*
X0013595Y0147634D01*
X0013595Y0151642D01*
X0015043Y0155380D01*
X0015043Y0155380D01*
X0017744Y0158342D01*
X0017744Y0158342D01*
X0017744Y0158342D01*
X0016330Y0156792D02*
X0013586Y0156792D01*
X0013571Y0154793D02*
X0014816Y0154793D01*
X0014042Y0152795D02*
X0013571Y0152795D01*
X0013571Y0150796D02*
X0013595Y0150796D01*
X0013571Y0148798D02*
X0013595Y0148798D01*
X0013571Y0146799D02*
X0013919Y0146799D01*
X0013571Y0144801D02*
X0014693Y0144801D01*
X0013571Y0142802D02*
X0016041Y0142802D01*
X0018005Y0140803D02*
X0013571Y0140803D01*
X0013571Y0138805D02*
X0025020Y0138805D01*
X0025422Y0138805D02*
X0101235Y0138805D01*
X0102800Y0136806D02*
X0013571Y0136806D01*
X0013571Y0134808D02*
X0103252Y0134808D01*
X0099237Y0140803D02*
X0030410Y0140803D01*
X0032695Y0142802D02*
X0075258Y0142802D01*
X0075260Y0142800D02*
X0078740Y0142800D01*
X0081200Y0145260D01*
X0081200Y0148740D01*
X0078740Y0151200D01*
X0075260Y0151200D01*
X0072800Y0148740D01*
X0072800Y0145260D01*
X0075260Y0142800D01*
X0073260Y0144801D02*
X0033933Y0144801D01*
X0034694Y0146799D02*
X0055707Y0146799D01*
X0055946Y0146700D02*
X0058054Y0146700D01*
X0060002Y0147507D01*
X0061493Y0148998D01*
X0061780Y0149690D01*
X0062125Y0149013D01*
X0062652Y0148287D01*
X0063287Y0147652D01*
X0064013Y0147125D01*
X0064812Y0146718D01*
X0065665Y0146440D01*
X0066551Y0146300D01*
X0067000Y0146300D01*
X0067449Y0146300D01*
X0068335Y0146440D01*
X0069188Y0146718D01*
X0069987Y0147125D01*
X0070713Y0147652D01*
X0071348Y0148287D01*
X0071875Y0149013D01*
X0072282Y0149812D01*
X0072560Y0150665D01*
X0072700Y0151551D01*
X0072700Y0152000D01*
X0072700Y0152449D01*
X0072560Y0153335D01*
X0072282Y0154188D01*
X0071875Y0154987D01*
X0071348Y0155713D01*
X0070713Y0156348D01*
X0069987Y0156875D01*
X0069188Y0157282D01*
X0068335Y0157560D01*
X0067449Y0157700D01*
X0067000Y0157700D01*
X0067000Y0152000D01*
X0072700Y0152000D01*
X0067000Y0152000D01*
X0067000Y0152000D01*
X0067000Y0152000D01*
X0067000Y0146300D01*
X0067000Y0152000D01*
X0067000Y0152000D01*
X0067000Y0157700D01*
X0066551Y0157700D01*
X0065665Y0157560D01*
X0064812Y0157282D01*
X0064013Y0156875D01*
X0063287Y0156348D01*
X0062652Y0155713D01*
X0062125Y0154987D01*
X0061780Y0154310D01*
X0061493Y0155002D01*
X0060002Y0156493D01*
X0058054Y0157300D01*
X0055946Y0157300D01*
X0053998Y0156493D01*
X0052507Y0155002D01*
X0051700Y0153054D01*
X0051700Y0150946D01*
X0052507Y0148998D01*
X0053998Y0147507D01*
X0055946Y0146700D01*
X0058293Y0146799D02*
X0064652Y0146799D01*
X0067000Y0146799D02*
X0067000Y0146799D01*
X0067000Y0148798D02*
X0067000Y0148798D01*
X0067000Y0150796D02*
X0067000Y0150796D01*
X0067000Y0152795D02*
X0067000Y0152795D01*
X0067000Y0154793D02*
X0067000Y0154793D01*
X0067000Y0156792D02*
X0067000Y0156792D01*
X0070102Y0156792D02*
X0073800Y0156792D01*
X0073800Y0154793D02*
X0071974Y0154793D01*
X0072645Y0152795D02*
X0075266Y0152795D01*
X0074856Y0150796D02*
X0072580Y0150796D01*
X0072858Y0148798D02*
X0071719Y0148798D01*
X0072800Y0146799D02*
X0069348Y0146799D01*
X0062281Y0148798D02*
X0061293Y0148798D01*
X0052707Y0148798D02*
X0035068Y0148798D01*
X0035008Y0150796D02*
X0051762Y0150796D01*
X0051700Y0152795D02*
X0034635Y0152795D01*
X0034488Y0153578D02*
X0034488Y0153578D01*
X0033736Y0154793D02*
X0052420Y0154793D01*
X0054718Y0156792D02*
X0032498Y0156792D01*
X0032378Y0156986D02*
X0032378Y0156986D01*
X0029989Y0158790D02*
X0074850Y0158790D01*
X0080734Y0152795D02*
X0097246Y0152795D01*
X0096566Y0150796D02*
X0099244Y0150796D01*
X0099162Y0148798D02*
X0101243Y0148798D01*
X0101161Y0146799D02*
X0103241Y0146799D01*
X0103159Y0144801D02*
X0105240Y0144801D01*
X0105158Y0142802D02*
X0107238Y0142802D01*
X0109136Y0140803D02*
X0109237Y0140803D01*
X0111135Y0138805D02*
X0111235Y0138805D01*
X0111200Y0136806D02*
X0113234Y0136806D01*
X0115232Y0134808D02*
X0110748Y0134808D01*
X0097238Y0142802D02*
X0078742Y0142802D01*
X0080740Y0144801D02*
X0083260Y0144801D01*
X0081800Y0146799D02*
X0081200Y0146799D01*
X0081142Y0148798D02*
X0081800Y0148798D01*
X0082856Y0150796D02*
X0079144Y0150796D01*
X0088740Y0144801D02*
X0095240Y0144801D01*
X0124100Y0158790D02*
X0154830Y0158790D01*
X0152832Y0156792D02*
X0125178Y0156792D01*
X0127177Y0154793D02*
X0140671Y0154793D01*
X0143329Y0154793D02*
X0150833Y0154793D01*
X0148835Y0152795D02*
X0145014Y0152795D01*
X0144845Y0150796D02*
X0146836Y0150796D01*
X0150759Y0146799D02*
X0166300Y0146799D01*
X0166300Y0147000D02*
X0166300Y0146551D01*
X0166440Y0145665D01*
X0166718Y0144812D01*
X0167125Y0144013D01*
X0167652Y0143287D01*
X0168287Y0142652D01*
X0169013Y0142125D01*
X0169812Y0141718D01*
X0170665Y0141440D01*
X0171551Y0141300D01*
X0172000Y0141300D01*
X0172000Y0147000D01*
X0172000Y0147000D01*
X0166300Y0147000D01*
X0166591Y0148798D02*
X0152757Y0148798D01*
X0154756Y0150796D02*
X0167735Y0150796D01*
X0168710Y0152795D02*
X0156754Y0152795D01*
X0158753Y0154793D02*
X0167177Y0154793D01*
X0166700Y0156792D02*
X0160751Y0156792D01*
X0162750Y0158790D02*
X0167005Y0158790D01*
X0168293Y0160789D02*
X0164748Y0160789D01*
X0166747Y0162787D02*
X0169811Y0162787D01*
X0162824Y0166784D02*
X0156600Y0166784D01*
X0156600Y0167000D02*
X0156600Y0165095D01*
X0153905Y0162400D01*
X0152000Y0162400D01*
X0152000Y0167000D01*
X0152000Y0167000D01*
X0156600Y0167000D01*
X0156600Y0168783D02*
X0164823Y0168783D01*
X0160826Y0164786D02*
X0156291Y0164786D01*
X0154292Y0162787D02*
X0158827Y0162787D01*
X0156829Y0160789D02*
X0124100Y0160789D01*
X0124100Y0162787D02*
X0149707Y0162787D01*
X0150095Y0162400D02*
X0152000Y0162400D01*
X0152000Y0167000D01*
X0152000Y0167000D01*
X0152000Y0167000D01*
X0147400Y0167000D01*
X0147400Y0165095D01*
X0150095Y0162400D01*
X0152000Y0162787D02*
X0152000Y0162787D01*
X0152000Y0164786D02*
X0152000Y0164786D01*
X0152000Y0166784D02*
X0152000Y0166784D01*
X0147709Y0164786D02*
X0140725Y0164786D01*
X0141200Y0165260D02*
X0138740Y0162800D01*
X0135260Y0162800D01*
X0132800Y0165260D01*
X0132800Y0168740D01*
X0135260Y0171200D01*
X0138740Y0171200D01*
X0141200Y0168740D01*
X0141200Y0165260D01*
X0141200Y0166784D02*
X0147400Y0166784D01*
X0147400Y0168783D02*
X0141157Y0168783D01*
X0139159Y0170781D02*
X0149276Y0170781D01*
X0154724Y0170781D02*
X0209841Y0170781D01*
X0210260Y0171200D02*
X0207800Y0168740D01*
X0207800Y0165260D01*
X0210260Y0162800D01*
X0213740Y0162800D01*
X0216200Y0165260D01*
X0216200Y0168740D01*
X0213740Y0171200D01*
X0210260Y0171200D01*
X0207843Y0168783D02*
X0184177Y0168783D01*
X0186176Y0166784D02*
X0207800Y0166784D01*
X0208275Y0164786D02*
X0202592Y0164786D01*
X0205173Y0162787D02*
X0219707Y0162787D01*
X0220095Y0162400D02*
X0222000Y0162400D01*
X0223905Y0162400D01*
X0226600Y0165095D01*
X0226600Y0167000D01*
X0222000Y0167000D01*
X0222000Y0167000D01*
X0222000Y0162400D01*
X0222000Y0167000D01*
X0222000Y0167000D01*
X0222000Y0167000D01*
X0217400Y0167000D01*
X0217400Y0165095D01*
X0220095Y0162400D01*
X0222000Y0162787D02*
X0222000Y0162787D01*
X0222000Y0164786D02*
X0222000Y0164786D01*
X0222000Y0166784D02*
X0222000Y0166784D01*
X0226600Y0166784D02*
X0227800Y0166784D01*
X0228275Y0164786D02*
X0226291Y0164786D01*
X0224292Y0162787D02*
X0229900Y0162787D01*
X0229900Y0160789D02*
X0207171Y0160789D01*
X0209170Y0158790D02*
X0229900Y0158790D01*
X0230130Y0156792D02*
X0211168Y0156792D01*
X0213167Y0154793D02*
X0232775Y0154793D01*
X0233948Y0152795D02*
X0214702Y0152795D01*
X0214800Y0150796D02*
X0239452Y0150796D01*
X0239200Y0152795D02*
X0239052Y0152795D01*
X0239200Y0156792D02*
X0238688Y0156792D01*
X0239830Y0158790D02*
X0234452Y0158790D01*
X0234100Y0160789D02*
X0241829Y0160789D01*
X0240260Y0162800D02*
X0243740Y0162800D01*
X0246200Y0165260D01*
X0246200Y0168740D01*
X0243740Y0171200D01*
X0240260Y0171200D01*
X0237800Y0168740D01*
X0237800Y0165260D01*
X0240260Y0162800D01*
X0238275Y0164786D02*
X0235725Y0164786D01*
X0236200Y0166784D02*
X0237800Y0166784D01*
X0237843Y0168783D02*
X0236157Y0168783D01*
X0234159Y0170781D02*
X0239841Y0170781D01*
X0244159Y0170781D02*
X0249841Y0170781D01*
X0247843Y0168783D02*
X0246157Y0168783D01*
X0246200Y0166784D02*
X0247800Y0166784D01*
X0245826Y0164786D02*
X0245725Y0164786D01*
X0243827Y0162787D02*
X0234100Y0162787D01*
X0245751Y0156792D02*
X0267832Y0156792D01*
X0269830Y0158790D02*
X0247750Y0158790D01*
X0249748Y0160789D02*
X0271829Y0160789D01*
X0273827Y0162787D02*
X0264292Y0162787D01*
X0263905Y0162400D02*
X0266600Y0165095D01*
X0266600Y0167000D01*
X0262000Y0167000D01*
X0262000Y0167000D01*
X0262000Y0162400D01*
X0263905Y0162400D01*
X0262000Y0162400D02*
X0262000Y0167000D01*
X0262000Y0167000D01*
X0262000Y0167000D01*
X0257400Y0167000D01*
X0257400Y0165095D01*
X0260095Y0162400D01*
X0262000Y0162400D01*
X0262000Y0162787D02*
X0262000Y0162787D01*
X0262000Y0164786D02*
X0262000Y0164786D01*
X0262000Y0166784D02*
X0262000Y0166784D01*
X0266600Y0166784D02*
X0317400Y0166784D01*
X0317400Y0167000D02*
X0317400Y0165095D01*
X0320095Y0162400D01*
X0322000Y0162400D01*
X0323905Y0162400D01*
X0326600Y0165095D01*
X0326600Y0167000D01*
X0322000Y0167000D01*
X0322000Y0167000D01*
X0322000Y0162400D01*
X0322000Y0167000D01*
X0322000Y0167000D01*
X0322000Y0167000D01*
X0317400Y0167000D01*
X0317400Y0168783D02*
X0266600Y0168783D01*
X0264724Y0170781D02*
X0319276Y0170781D01*
X0324724Y0170781D02*
X0338867Y0170781D01*
X0343780Y0168783D02*
X0326600Y0168783D01*
X0326600Y0166784D02*
X0346229Y0166784D01*
X0347822Y0164786D02*
X0326291Y0164786D01*
X0324292Y0162787D02*
X0348926Y0162787D01*
X0349739Y0160789D02*
X0297171Y0160789D01*
X0295173Y0162787D02*
X0319707Y0162787D01*
X0322000Y0162787D02*
X0322000Y0162787D01*
X0322000Y0164786D02*
X0322000Y0164786D01*
X0322000Y0166784D02*
X0322000Y0166784D01*
X0317709Y0164786D02*
X0266291Y0164786D01*
X0259707Y0162787D02*
X0251747Y0162787D01*
X0255725Y0164786D02*
X0257709Y0164786D01*
X0257400Y0166784D02*
X0256200Y0166784D01*
X0256157Y0168783D02*
X0257400Y0168783D01*
X0259276Y0170781D02*
X0254159Y0170781D01*
X0229841Y0170781D02*
X0224724Y0170781D01*
X0226600Y0168783D02*
X0227843Y0168783D01*
X0219276Y0170781D02*
X0214159Y0170781D01*
X0216157Y0168783D02*
X0217400Y0168783D01*
X0217400Y0166784D02*
X0216200Y0166784D01*
X0215725Y0164786D02*
X0217709Y0164786D01*
X0201250Y0158790D02*
X0191150Y0158790D01*
X0192200Y0156792D02*
X0200723Y0156792D01*
X0199411Y0154793D02*
X0192200Y0154793D01*
X0190734Y0152795D02*
X0198947Y0152795D01*
X0192856Y0150796D02*
X0189144Y0150796D01*
X0191142Y0148798D02*
X0191800Y0148798D01*
X0191800Y0146799D02*
X0191200Y0146799D01*
X0190740Y0144801D02*
X0193260Y0144801D01*
X0198271Y0139900D02*
X0187870Y0139900D01*
X0184100Y0136130D01*
X0184100Y0134268D01*
X0184619Y0133750D01*
X0185089Y0132614D01*
X0185089Y0131386D01*
X0184619Y0130250D01*
X0183750Y0129381D01*
X0182614Y0128911D01*
X0181386Y0128911D01*
X0180316Y0129354D01*
X0180870Y0128800D01*
X0188181Y0128800D01*
X0194000Y0122981D01*
X0194734Y0122981D01*
X0195300Y0122746D01*
X0195300Y0129020D01*
X0194428Y0129381D01*
X0193559Y0130250D01*
X0193089Y0131386D01*
X0193089Y0132614D01*
X0193559Y0133750D01*
X0194428Y0134619D01*
X0195564Y0135089D01*
X0196792Y0135089D01*
X0197928Y0134619D01*
X0198797Y0133750D01*
X0199089Y0133044D01*
X0199381Y0133750D01*
X0200250Y0134619D01*
X0201386Y0135089D01*
X0202041Y0135089D01*
X0201319Y0135811D01*
X0200586Y0135811D01*
X0199450Y0136281D01*
X0198581Y0137150D01*
X0198111Y0138286D01*
X0198111Y0139514D01*
X0198271Y0139900D01*
X0198111Y0138805D02*
X0186775Y0138805D01*
X0184776Y0136806D02*
X0198925Y0136806D01*
X0197471Y0134808D02*
X0200707Y0134808D01*
X0194885Y0134808D02*
X0184100Y0134808D01*
X0185008Y0132809D02*
X0193170Y0132809D01*
X0193327Y0130811D02*
X0184851Y0130811D01*
X0180857Y0128812D02*
X0195300Y0128812D01*
X0195300Y0126814D02*
X0190167Y0126814D01*
X0192166Y0124815D02*
X0195300Y0124815D01*
X0195300Y0122817D02*
X0195130Y0122817D01*
X0178915Y0124815D02*
X0176499Y0124815D01*
X0176916Y0126814D02*
X0174292Y0126814D01*
X0174918Y0128812D02*
X0172085Y0128812D01*
X0169879Y0130811D02*
X0174900Y0130811D01*
X0174900Y0132809D02*
X0168860Y0132809D01*
X0179100Y0134808D02*
X0179900Y0134808D01*
X0179900Y0136806D02*
X0179100Y0136806D01*
X0179100Y0138805D02*
X0180835Y0138805D01*
X0179848Y0140803D02*
X0182834Y0140803D01*
X0184832Y0142802D02*
X0180011Y0142802D01*
X0178311Y0144801D02*
X0183260Y0144801D01*
X0182800Y0146799D02*
X0177700Y0146799D01*
X0177409Y0148798D02*
X0182858Y0148798D01*
X0184856Y0150796D02*
X0176265Y0150796D01*
X0175290Y0152795D02*
X0185266Y0152795D01*
X0179838Y0154793D02*
X0176823Y0154793D01*
X0177300Y0156792D02*
X0178911Y0156792D01*
X0177240Y0158790D02*
X0176995Y0158790D01*
X0188174Y0164786D02*
X0188408Y0164786D01*
X0214800Y0148798D02*
X0214838Y0148798D01*
X0229162Y0148798D02*
X0241087Y0148798D01*
X0242843Y0146799D02*
X0231161Y0146799D01*
X0233159Y0144801D02*
X0244599Y0144801D01*
X0246030Y0142802D02*
X0234698Y0142802D01*
X0233586Y0144374D02*
X0233586Y0144374D01*
X0234800Y0140803D02*
X0239864Y0140803D01*
X0244136Y0140803D02*
X0249200Y0140803D01*
X0254800Y0140803D02*
X0259864Y0140803D01*
X0260260Y0141200D02*
X0263285Y0141200D01*
X0261717Y0142311D01*
X0261586Y0142311D01*
X0260450Y0142781D01*
X0259581Y0143650D01*
X0259111Y0144786D01*
X0259111Y0146014D01*
X0259581Y0147150D01*
X0260450Y0148019D01*
X0261586Y0148489D01*
X0262814Y0148489D01*
X0263950Y0148019D01*
X0264819Y0147150D01*
X0264920Y0146904D01*
X0267891Y0144800D01*
X0275840Y0144800D01*
X0277340Y0146300D01*
X0277000Y0146300D01*
X0277000Y0152000D01*
X0277000Y0152000D01*
X0277000Y0152000D01*
X0271300Y0152000D01*
X0271300Y0152340D01*
X0269374Y0150414D01*
X0269374Y0150414D01*
X0268586Y0149626D01*
X0267557Y0149200D01*
X0258160Y0149200D01*
X0254800Y0145840D01*
X0254800Y0140140D01*
X0256200Y0138740D01*
X0256200Y0135260D01*
X0254910Y0133970D01*
X0259090Y0133970D01*
X0257800Y0135260D01*
X0257800Y0138740D01*
X0260260Y0141200D01*
X0260430Y0142802D02*
X0254800Y0142802D01*
X0254800Y0144801D02*
X0259111Y0144801D01*
X0259436Y0146799D02*
X0255759Y0146799D01*
X0257757Y0148798D02*
X0272281Y0148798D01*
X0272125Y0149013D02*
X0272652Y0148287D01*
X0273287Y0147652D01*
X0274013Y0147125D01*
X0274812Y0146718D01*
X0275665Y0146440D01*
X0276551Y0146300D01*
X0277000Y0146300D01*
X0277000Y0152000D01*
X0271300Y0152000D01*
X0271300Y0151551D01*
X0271440Y0150665D01*
X0271718Y0149812D01*
X0272125Y0149013D01*
X0271420Y0150796D02*
X0269756Y0150796D01*
X0265069Y0146799D02*
X0274652Y0146799D01*
X0275841Y0144801D02*
X0267890Y0144801D01*
X0266135Y0138805D02*
X0317865Y0138805D01*
X0317800Y0136806D02*
X0266200Y0136806D01*
X0265748Y0134808D02*
X0318252Y0134808D01*
X0325748Y0134808D02*
X0350429Y0134808D01*
X0350429Y0136806D02*
X0326200Y0136806D01*
X0326135Y0138805D02*
X0340386Y0138805D01*
X0340689Y0138777D02*
X0340689Y0138777D01*
X0340788Y0138805D02*
X0350429Y0138805D01*
X0350429Y0140803D02*
X0345776Y0140803D01*
X0344545Y0139874D02*
X0344545Y0139874D01*
X0348061Y0142802D02*
X0350429Y0142802D01*
X0350429Y0144801D02*
X0349298Y0144801D01*
X0349854Y0145698D02*
X0349854Y0145698D01*
X0350060Y0146799D02*
X0350429Y0146799D01*
X0350374Y0150796D02*
X0350429Y0150796D01*
X0350429Y0152795D02*
X0350000Y0152795D01*
X0349854Y0153578D02*
X0349854Y0153578D01*
X0350429Y0154793D02*
X0349101Y0154793D01*
X0347864Y0156792D02*
X0350414Y0156792D01*
X0350195Y0158790D02*
X0345355Y0158790D01*
X0340689Y0160499D02*
X0340689Y0160499D01*
X0336698Y0160129D02*
X0336698Y0160129D01*
X0334009Y0158790D02*
X0301150Y0158790D01*
X0302200Y0156792D02*
X0331696Y0156792D01*
X0330182Y0154793D02*
X0302200Y0154793D01*
X0300734Y0152795D02*
X0329408Y0152795D01*
X0328961Y0150796D02*
X0309144Y0150796D01*
X0310200Y0149740D02*
X0307740Y0152200D01*
X0304260Y0152200D01*
X0301800Y0149740D01*
X0301800Y0146260D01*
X0304260Y0143800D01*
X0307740Y0143800D01*
X0310200Y0146260D01*
X0310200Y0149740D01*
X0310200Y0148798D02*
X0328961Y0148798D01*
X0329284Y0146799D02*
X0310200Y0146799D01*
X0308740Y0144801D02*
X0330059Y0144801D01*
X0331406Y0142802D02*
X0298742Y0142802D01*
X0298740Y0142800D02*
X0301200Y0145260D01*
X0301200Y0148740D01*
X0298740Y0151200D01*
X0295260Y0151200D01*
X0292800Y0148740D01*
X0292800Y0145260D01*
X0295260Y0142800D01*
X0298740Y0142800D01*
X0300740Y0144801D02*
X0303260Y0144801D01*
X0301800Y0146799D02*
X0301200Y0146799D01*
X0301142Y0148798D02*
X0301800Y0148798D01*
X0302856Y0150796D02*
X0299144Y0150796D01*
X0295266Y0152795D02*
X0292300Y0152795D01*
X0292238Y0150796D02*
X0294856Y0150796D01*
X0292858Y0148798D02*
X0291293Y0148798D01*
X0292800Y0146799D02*
X0288293Y0146799D01*
X0283760Y0144801D02*
X0293260Y0144801D01*
X0295258Y0142802D02*
X0281762Y0142802D01*
X0279763Y0140803D02*
X0319864Y0140803D01*
X0324136Y0140803D02*
X0333371Y0140803D01*
X0333110Y0140933D02*
X0333110Y0140933D01*
X0336698Y0139147D02*
X0336698Y0139147D01*
X0293800Y0154793D02*
X0291580Y0154793D01*
X0293249Y0156792D02*
X0289282Y0156792D01*
X0284718Y0156792D02*
X0280102Y0156792D01*
X0281974Y0154793D02*
X0282420Y0154793D01*
X0277000Y0154793D02*
X0277000Y0154793D01*
X0277000Y0152795D02*
X0277000Y0152795D01*
X0277000Y0150796D02*
X0277000Y0150796D01*
X0277000Y0148798D02*
X0277000Y0148798D01*
X0277000Y0146799D02*
X0277000Y0146799D01*
X0277000Y0156792D02*
X0277000Y0156792D01*
X0256426Y0154793D02*
X0244800Y0154793D01*
X0245029Y0152795D02*
X0253835Y0152795D01*
X0251836Y0150796D02*
X0246786Y0150796D01*
X0248542Y0148798D02*
X0249838Y0148798D01*
X0256135Y0138805D02*
X0257865Y0138805D01*
X0257800Y0136806D02*
X0256200Y0136806D01*
X0255748Y0134808D02*
X0258252Y0134808D01*
X0172000Y0142802D02*
X0172000Y0142802D01*
X0172000Y0144801D02*
X0172000Y0144801D01*
X0172000Y0146799D02*
X0172000Y0146799D01*
X0166723Y0144801D02*
X0148760Y0144801D01*
X0146762Y0142802D02*
X0168137Y0142802D01*
X0133275Y0164786D02*
X0125725Y0164786D01*
X0126200Y0166784D02*
X0132800Y0166784D01*
X0132843Y0168783D02*
X0126157Y0168783D01*
X0124159Y0170781D02*
X0134841Y0170781D01*
X0119841Y0170781D02*
X0109724Y0170781D01*
X0111600Y0168783D02*
X0117843Y0168783D01*
X0111600Y0167000D02*
X0107000Y0167000D01*
X0107000Y0167000D01*
X0107000Y0162400D01*
X0108905Y0162400D01*
X0111600Y0165095D01*
X0111600Y0167000D01*
X0111600Y0166784D02*
X0117800Y0166784D01*
X0118275Y0164786D02*
X0111291Y0164786D01*
X0109292Y0162787D02*
X0119900Y0162787D01*
X0107000Y0162787D02*
X0107000Y0162787D01*
X0107000Y0162400D02*
X0107000Y0167000D01*
X0107000Y0167000D01*
X0107000Y0167000D01*
X0102400Y0167000D01*
X0102400Y0165095D01*
X0105095Y0162400D01*
X0107000Y0162400D01*
X0104707Y0162787D02*
X0015074Y0162787D01*
X0016177Y0164786D02*
X0102709Y0164786D01*
X0102400Y0166784D02*
X0017771Y0166784D01*
X0020220Y0168783D02*
X0102400Y0168783D01*
X0104276Y0170781D02*
X0025133Y0170781D01*
X0059282Y0156792D02*
X0063898Y0156792D01*
X0062026Y0154793D02*
X0061580Y0154793D01*
X0107000Y0164786D02*
X0107000Y0164786D01*
X0107000Y0166784D02*
X0107000Y0166784D01*
M02*
