%
M48
M72
T01C0.01378
T02C0.03200
T03C0.04000
%
T01
X183000Y77000
X197797Y101515
X188700Y103500
X197108Y110100
X194119Y119892
X181552Y122021
X167200Y112900
X170400Y104300
X205833Y125362
X202000Y132000
X196178Y132000
X188600Y131600
X182000Y132000
X166100Y131400
X162000Y137700
X177000Y142000
X182000Y157000
X172900Y163300
X202500Y154200
X201047Y145015
X201200Y138900
X236500Y154611
X247800Y145400
X262200Y145400
X287600Y136100
X142000Y152000
T02
X167000Y47000
X172000Y57000
X188000Y58000
X197000Y57000
X196000Y66000
X172000Y67000
X197000Y47000
X212000Y137000
X222000Y137000
X232000Y137000
X242000Y137000
X252000Y137000
X262000Y137000
X277000Y152000
X287000Y152000
X297000Y147000
X306000Y148000
X298000Y156000
X322000Y167000
X322000Y137000
X262000Y167000
X252000Y167000
X242000Y167000
X232000Y167000
X222000Y167000
X212000Y167000
X188000Y156000
X196000Y148000
X187000Y147000
X172000Y147000
X172000Y157000
X152000Y167000
X137000Y167000
X122000Y167000
X107000Y167000
X78000Y156000
X67000Y152000
X57000Y152000
X77000Y147000
X86000Y148000
X107000Y137000
X122000Y137000
X137000Y137000
X152000Y137000
T03
X172000Y97000
X182000Y97000
X192000Y97000
X192000Y87000
X182000Y87000
X172000Y87000
M30
